{"glyphs":{"0":{"ha":907,"x_min":51,"x_max":858,"o":"m 51 503 q 149 139 51 274 q 454 4 247 4 q 760 139 661 4 q 858 503 858 274 q 760 865 858 731 q 454 1000 661 1000 q 149 866 247 1000 q 51 503 51 732 m 589 503 q 562 325 589 388 q 454 263 535 263 q 347 325 374 263 q 319 503 319 388 q 347 679 319 617 q 454 742 374 742 q 562 679 535 742 q 589 503 589 617 z "},"1":{"ha":524,"x_min":15,"x_max":449,"o":"m 15 726 l 15 983 l 449 983 l 449 0 l 163 0 l 163 726 l 15 726 z "},"2":{"ha":786,"x_min":42,"x_max":753,"o":"m 43 217 q 347 474 233 357 q 461 686 461 592 q 388 778 461 778 q 327 746 346 778 q 307 640 308 714 l 42 640 q 153 916 50 825 q 410 1007 256 1007 q 658 924 578 1007 q 739 713 739 840 q 641 449 739 575 q 400 233 543 322 l 753 233 l 753 13 l 43 13 l 43 217 z "},"3":{"ha":847,"x_min":54,"x_max":774,"o":"m 419 1032 q 602 995 526 1032 q 717 895 678 958 q 756 753 756 832 q 708 599 756 657 q 596 526 661 542 l 596 521 q 774 285 774 457 q 733 131 774 197 q 617 27 693 64 q 436 -10 542 -10 q 160 75 261 -10 q 54 338 60 160 l 321 338 q 425 217 318 217 q 485 241 463 217 q 508 304 508 265 q 474 379 508 354 q 365 404 440 404 l 317 404 l 317 625 l 364 625 q 454 644 418 625 q 490 719 490 663 q 469 784 490 763 q 414 806 449 806 q 355 776 375 806 q 332 700 335 746 l 67 700 q 163 947 72 861 q 419 1032 254 1032 z "},"4":{"ha":956,"x_min":67,"x_max":900,"o":"m 67 167 l 67 394 l 497 997 l 792 997 l 792 403 l 900 403 l 900 167 l 792 167 l 792 0 l 517 0 l 517 167 l 67 167 m 538 685 l 342 403 l 538 403 l 538 685 z "},"5":{"ha":906,"x_min":125,"x_max":847,"o":"m 797 771 l 375 771 l 375 613 q 451 658 404 642 q 554 675 497 675 q 717 631 651 675 q 815 512 783 586 q 847 349 847 438 q 756 92 847 185 q 499 -1 664 -1 q 299 39 383 -1 q 169 151 214 79 q 125 318 125 224 l 392 318 q 418 258 396 283 q 485 233 440 233 q 558 266 533 233 q 582 353 582 299 q 556 433 582 406 q 482 461 529 461 q 423 444 446 461 q 394 401 400 428 l 128 401 l 128 1011 l 797 1011 l 797 771 z "},"6":{"ha":876,"x_min":75,"x_max":813,"o":"m 532 710 q 501 785 524 760 q 435 810 478 810 q 343 746 369 810 q 318 549 317 682 q 395 624 342 596 q 515 651 449 651 q 732 568 651 651 q 813 329 813 485 q 770 151 813 228 q 649 33 728 75 q 460 -10 569 -10 q 159 124 243 -10 q 75 496 75 258 q 113 799 75 682 q 234 972 151 915 q 451 1028 317 1028 q 694 937 611 1028 q 786 710 776 846 l 532 710 m 338 336 q 367 254 338 283 q 450 225 396 225 q 528 252 500 225 q 557 333 557 279 q 528 414 557 386 q 449 442 499 442 q 369 414 400 442 q 338 336 338 386 z "},"7":{"ha":710,"x_min":26,"x_max":690,"o":"m 690 793 l 346 0 l 64 0 l 413 760 l 26 760 l 26 993 l 690 993 l 690 793 z "},"8":{"ha":904,"x_min":68,"x_max":835,"o":"m 90 764 q 131 898 90 835 q 253 1001 171 961 q 451 1042 335 1042 q 650 1001 568 1042 q 772 898 732 961 q 813 764 813 835 q 778 635 813 689 q 682 551 744 581 q 835 304 835 475 q 783 128 835 201 q 644 19 732 56 q 451 -18 557 -18 q 258 19 346 -18 q 119 128 171 56 q 68 304 68 201 q 221 551 68 475 q 124 635 158 582 q 90 764 90 689 m 360 718 q 385 644 360 669 q 451 618 410 618 q 518 644 493 618 q 543 718 543 669 q 517 793 543 765 q 451 821 492 821 q 385 793 411 821 q 360 718 360 765 m 333 319 q 365 237 333 268 q 451 206 396 206 q 539 237 507 206 q 571 319 571 268 q 538 403 571 372 q 451 435 504 435 q 366 403 399 435 q 333 319 333 372 z "},"9":{"ha":832,"x_min":47,"x_max":783,"o":"m 328 308 q 360 233 336 258 q 428 208 385 208 q 518 272 493 208 q 540 469 543 336 q 464 394 517 422 q 343 367 411 367 q 127 450 207 367 q 47 689 47 533 q 90 867 47 790 q 211 985 132 943 q 400 1028 290 1028 q 634 965 550 1028 q 751 795 718 903 q 783 533 783 688 q 702 127 783 264 q 428 -10 621 -10 q 240 35 318 -10 q 119 151 161 79 q 72 308 78 224 l 328 308 m 521 682 q 492 764 521 735 q 410 793 464 793 q 331 766 360 793 q 301 685 301 739 q 331 605 301 633 q 411 576 361 576 q 490 604 458 576 q 521 682 521 632 z "},"\u0000":{"ha":0,"x_min":0,"x_max":0,"o":""},"\r":{"ha":257,"x_min":0,"x_max":0,"o":""}," ":{"ha":257,"x_min":0,"x_max":0,"o":""},"अ":{"ha":1171,"x_min":76,"x_max":1189,"o":"m 1189 1028 l 1189 819 l 1068 819 l 1068 0 l 818 0 l 818 336 l 701 336 q 615 152 694 219 q 410 85 536 85 q 235 122 310 85 q 118 226 160 158 q 76 382 76 294 l 311 382 q 333 323 311 347 q 394 299 356 299 q 453 322 432 299 q 474 382 474 344 q 446 447 474 421 q 365 472 418 472 l 300 472 l 300 672 l 365 672 q 438 694 410 672 q 465 751 465 715 q 444 808 465 786 q 392 829 424 829 q 337 808 358 829 q 317 756 315 788 l 86 756 q 124 903 86 839 q 231 1004 161 968 q 392 1040 300 1040 q 608 972 528 1040 q 688 786 688 903 q 651 659 688 713 q 549 581 615 606 l 549 575 q 615 543 588 565 l 818 543 l 818 1028 l 1189 1028 z "},"आ":{"ha":1622,"x_min":76,"x_max":1643,"o":"m 1189 1028 l 1189 819 l 1068 819 l 1068 0 l 818 0 l 818 336 l 701 336 q 615 152 694 219 q 410 85 536 85 q 235 122 310 85 q 118 226 160 158 q 76 382 76 294 l 311 382 q 333 323 311 347 q 394 299 356 299 q 453 322 432 299 q 474 382 474 344 q 446 447 474 421 q 365 472 418 472 l 300 472 l 300 672 l 365 672 q 438 694 410 672 q 465 751 465 715 q 444 808 465 786 q 392 829 424 829 q 337 808 358 829 q 317 756 315 788 l 86 756 q 124 903 86 839 q 231 1004 161 968 q 392 1040 300 1040 q 608 972 528 1040 q 688 786 688 903 q 651 659 688 713 q 549 581 615 606 l 549 575 q 615 543 588 565 l 818 543 l 818 1028 l 1189 1028 m 1272 819 l 1150 819 l 1150 1028 l 1643 1028 l 1643 819 l 1522 819 l 1522 0 l 1272 0 l 1272 819 z "},"इ":{"ha":803,"x_min":-24,"x_max":825,"o":"m 392 561 q 344 550 363 561 q 326 514 326 539 q 390 467 326 467 l 450 467 q 656 408 574 467 q 738 214 738 349 q 673 40 738 107 q 499 -28 608 -28 q 408 -12 447 -28 q 343 26 369 4 l 343 -121 l 107 -121 l 107 238 l 332 238 q 358 178 333 199 q 424 157 382 157 q 480 175 460 157 q 500 222 500 193 q 401 292 500 292 q 310 293 346 292 q 144 353 214 299 q 74 515 74 407 q 144 683 74 626 q 329 739 215 739 l 411 739 l 411 819 l -24 819 l -24 1028 l 825 1028 l 825 819 l 654 819 l 654 561 l 392 561 z "},"ई":{"ha":803,"x_min":-24,"x_max":994,"o":"m 392 561 q 344 550 363 561 q 326 514 326 539 q 390 467 326 467 l 450 467 q 656 408 574 467 q 738 214 738 349 q 673 40 738 107 q 499 -28 608 -28 q 408 -12 447 -28 q 343 26 369 4 l 343 -121 l 107 -121 l 107 238 l 332 238 q 358 178 333 199 q 424 157 382 157 q 480 175 460 157 q 500 222 500 193 q 401 292 500 292 q 310 293 346 292 q 144 353 214 299 q 74 515 74 407 q 144 683 74 626 q 329 739 215 739 l 411 739 l 411 819 l -24 819 l -24 1028 l 825 1028 l 825 819 l 654 819 l 654 561 l 392 561 m 415 1113 q 481 1334 415 1243 q 706 1425 547 1425 q 921 1344 847 1425 q 988 1124 994 1264 l 769 1124 q 755 1194 771 1169 q 710 1218 739 1218 q 660 1193 675 1218 q 646 1117 646 1168 l 646 989 l 415 989 l 415 1113 z "},"उ":{"ha":781,"x_min":-19,"x_max":800,"o":"m 693 756 q 660 619 693 672 q 574 551 628 565 l 574 547 q 684 461 642 526 q 726 308 726 396 q 641 90 726 172 q 406 7 556 7 q 220 46 300 7 q 96 159 140 85 q 51 336 51 233 l 289 336 q 317 259 289 289 q 393 229 346 229 q 464 257 438 229 q 490 329 490 285 q 463 404 490 374 q 382 435 436 435 l 293 435 l 293 653 l 346 653 q 423 681 393 653 q 453 767 453 708 l 453 818 l -19 818 l -19 1028 l 800 1028 l 800 818 l 693 818 l 693 756 z "},"ऊ":{"ha":1179,"x_min":-19,"x_max":1196,"o":"m 693 756 q 660 619 693 672 q 574 551 628 565 l 574 547 l 810 547 q 1048 479 961 547 q 1135 275 1135 411 q 1066 93 1135 163 q 871 24 997 24 q 785 32 831 24 l 785 219 l 826 219 q 876 236 858 219 q 894 283 894 253 q 873 333 894 315 q 813 350 851 350 l 718 350 q 722 294 722 324 q 684 147 722 213 q 574 44 646 82 q 406 7 503 7 q 220 46 300 7 q 96 159 140 85 q 51 336 51 233 l 289 336 q 317 259 289 289 q 393 229 346 229 q 464 257 438 229 q 490 329 490 285 q 463 404 490 374 q 382 435 436 435 l 293 435 l 293 653 l 346 653 q 423 681 393 653 q 453 767 453 708 l 453 819 l -19 819 l -19 1028 l 1196 1028 l 1196 819 l 693 819 l 693 756 z "},"ऋ":{"ha":1474,"x_min":-19,"x_max":1493,"o":"m 883 819 l 883 632 l 1069 632 q 1128 649 1107 632 q 1149 699 1149 665 l 1149 739 l 1363 739 l 1363 256 l 1324 256 q 1247 233 1272 256 q 1221 172 1221 210 q 1253 111 1221 131 q 1336 92 1285 92 q 1415 103 1365 92 l 1415 -96 q 1301 -107 1349 -107 q 1070 -39 1158 -107 q 982 150 982 29 q 1026 296 982 236 q 1149 383 1071 356 l 1149 453 q 1032 435 1094 435 l 883 435 l 883 0 l 653 0 l 653 194 l 432 0 l 111 0 l 111 11 l 646 429 q 591 490 628 468 q 504 513 554 513 q 379 464 424 513 q 335 338 335 415 l 83 338 q 124 538 83 450 q 243 674 165 625 q 429 724 321 724 q 653 636 572 724 l 653 819 l -19 819 l -19 1028 l 1493 1028 l 1493 819 l 883 819 z "},"ॠ":{"ha":1463,"x_min":-19,"x_max":1497,"o":"m 883 819 l 883 632 l 1069 632 q 1128 649 1107 632 q 1149 699 1149 665 l 1149 739 l 1363 739 l 1363 250 l 1315 250 q 1250 238 1274 250 q 1226 193 1226 225 q 1317 138 1226 138 l 1400 138 l 1400 -47 l 1329 -47 q 1253 -60 1282 -47 q 1225 -108 1225 -74 q 1332 -168 1225 -168 q 1413 -161 1372 -168 q 1475 -147 1454 -154 l 1475 -332 q 1391 -353 1442 -346 q 1293 -361 1340 -361 q 1074 -306 1164 -361 q 985 -135 985 -250 q 1024 -24 985 -71 q 1128 39 1064 24 l 1128 44 q 1025 97 1064 58 q 986 206 986 136 q 1033 322 986 279 q 1149 378 1079 364 l 1149 453 q 1032 435 1094 435 l 883 435 l 883 0 l 653 0 l 653 194 l 432 0 l 111 0 l 111 11 l 646 429 q 591 490 628 468 q 504 513 554 513 q 379 464 424 513 q 335 338 335 415 l 83 338 q 124 538 83 450 q 243 674 165 625 q 429 724 321 724 q 653 636 572 724 l 653 819 l -19 819 l -19 1028 l 1497 1028 l 1497 819 l 883 819 z "},"ऌ":{"ha":1260,"x_min":-19,"x_max":1279,"o":"m 1015 819 l 1015 703 q 1147 588 1097 667 q 1196 389 1196 508 q 1174 250 1196 317 l 1165 250 q 1061 228 1092 250 q 1031 164 1031 206 q 1064 107 1031 126 q 1150 88 1097 88 q 1231 96 1199 88 l 1231 -103 q 1118 -111 1172 -111 q 881 -42 971 -111 q 792 151 792 26 q 835 284 792 226 q 946 369 878 342 l 946 390 q 919 476 946 443 q 847 508 893 508 q 766 469 792 508 q 740 372 740 429 l 740 328 l 533 328 l 533 372 q 508 469 533 429 q 428 508 482 508 q 349 475 376 508 q 321 385 321 442 q 354 283 321 315 q 446 250 388 250 q 483 251 469 250 l 483 35 q 435 33 461 33 q 162 128 258 33 q 65 389 65 224 q 110 578 65 501 q 230 691 156 654 q 390 728 304 728 q 540 688 481 728 q 631 582 600 649 l 636 582 q 772 708 676 672 l 772 819 l -19 819 l -19 1028 l 1279 1028 l 1279 819 l 1015 819 z "},"ॡ":{"ha":1276,"x_min":-19,"x_max":1294,"o":"m 1015 819 l 1015 703 q 1147 588 1097 667 q 1196 389 1196 508 q 1174 250 1196 317 l 1135 250 q 1044 193 1044 250 q 1071 151 1044 164 q 1136 138 1097 138 l 1221 138 l 1221 -47 l 1150 -47 q 1073 -60 1101 -47 q 1044 -108 1044 -74 q 1153 -168 1044 -168 q 1234 -161 1193 -168 q 1294 -147 1275 -154 l 1294 -332 q 1211 -353 1261 -346 q 1114 -361 1161 -361 q 895 -306 985 -361 q 806 -135 806 -250 q 845 -24 806 -71 q 949 39 885 24 l 949 44 q 846 97 885 58 q 807 206 807 136 q 845 313 807 272 q 944 371 883 353 q 946 390 946 378 q 919 476 946 443 q 847 508 893 508 q 766 469 792 508 q 740 372 740 429 l 740 328 l 533 328 l 533 372 q 508 469 533 429 q 428 508 482 508 q 349 475 376 508 q 321 385 321 442 q 354 283 321 315 q 446 250 388 250 q 483 251 469 250 l 483 35 q 435 33 461 33 q 162 128 258 33 q 65 389 65 224 q 110 578 65 501 q 230 691 156 654 q 390 728 304 728 q 540 688 481 728 q 631 582 600 649 l 636 582 q 772 708 676 672 l 772 819 l -19 819 l -19 1028 l 1294 1028 l 1294 819 l 1015 819 z "},"ए":{"ha":907,"x_min":-19,"x_max":926,"o":"m 926 819 l 817 819 l 817 726 q 756 501 817 579 q 557 422 694 422 q 475 429 524 422 l 475 653 q 501 650 494 650 q 574 732 574 650 l 574 819 l 356 819 l 356 363 q 385 270 356 301 q 461 239 415 239 q 533 266 506 239 q 560 339 560 293 l 806 339 q 713 109 806 192 q 464 26 619 26 q 198 120 290 26 q 106 372 106 214 l 104 819 l -19 819 l -19 1028 l 926 1028 l 926 819 z "},"ऐ":{"ha":907,"x_min":-19,"x_max":926,"o":"m 926 819 l 817 819 l 817 726 q 756 501 817 579 q 557 422 694 422 q 475 429 524 422 l 475 653 q 501 650 494 650 q 574 732 574 650 l 574 819 l 356 819 l 356 363 q 385 270 356 301 q 461 239 415 239 q 533 266 506 239 q 560 339 560 293 l 806 339 q 713 109 806 192 q 464 26 619 26 q 198 120 290 26 q 106 372 106 214 l 104 819 l -19 819 l -19 1028 l 926 1028 l 926 819 m 571 1021 q 488 1136 519 1101 q 421 1183 456 1171 q 324 1196 386 1196 l 247 1196 l 247 1397 l 321 1397 q 512 1371 442 1396 q 648 1268 582 1346 q 806 1021 714 1190 l 571 1021 z "},"ओ":{"ha":1624,"x_min":76,"x_max":1643,"o":"m 1279 1021 q 1196 1136 1228 1101 q 1129 1183 1164 1171 q 1032 1196 1094 1196 l 956 1196 l 956 1397 l 1029 1397 q 1220 1371 1150 1396 q 1356 1268 1290 1346 q 1514 1021 1422 1190 l 1279 1021 m 1189 1028 l 1189 819 l 1068 819 l 1068 0 l 818 0 l 818 336 l 701 336 q 615 152 694 219 q 410 85 536 85 q 235 122 310 85 q 118 226 160 158 q 76 382 76 294 l 311 382 q 333 323 311 347 q 394 299 356 299 q 453 322 432 299 q 474 382 474 344 q 446 447 474 421 q 365 472 418 472 l 300 472 l 300 672 l 365 672 q 438 694 410 672 q 465 751 465 715 q 444 808 465 786 q 392 829 424 829 q 337 808 358 829 q 317 756 315 788 l 86 756 q 124 903 86 839 q 231 1004 161 968 q 392 1040 300 1040 q 608 972 528 1040 q 688 786 688 903 q 651 659 688 713 q 549 581 615 606 l 549 575 q 615 543 588 565 l 818 543 l 818 1028 l 1189 1028 m 1272 819 l 1150 819 l 1150 1028 l 1643 1028 l 1643 819 l 1522 819 l 1522 0 l 1272 0 l 1272 819 z "},"औ":{"ha":1624,"x_min":76,"x_max":1643,"o":"m 1011 1501 q 1194 1476 1133 1501 q 1321 1356 1256 1450 q 1510 1024 1386 1263 l 1296 1024 l 1256 1047 q 1170 1093 1196 1082 q 1116 1107 1144 1104 q 1013 1110 1088 1110 l 933 1110 l 933 1265 l 1007 1265 q 1115 1263 1081 1265 q 1181 1246 1149 1260 q 1256 1199 1213 1232 q 1176 1299 1213 1268 q 1106 1338 1139 1331 q 1018 1346 1074 1346 l 933 1346 l 933 1501 l 1011 1501 m 1189 1028 l 1189 819 l 1068 819 l 1068 0 l 818 0 l 818 336 l 701 336 q 615 152 694 219 q 410 85 536 85 q 235 122 310 85 q 118 226 160 158 q 76 382 76 294 l 311 382 q 333 323 311 347 q 394 299 356 299 q 453 322 432 299 q 474 382 474 344 q 446 447 474 421 q 365 472 418 472 l 300 472 l 300 672 l 365 672 q 438 694 410 672 q 465 751 465 715 q 444 808 465 786 q 392 829 424 829 q 337 808 358 829 q 317 756 315 788 l 86 756 q 124 903 86 839 q 231 1004 161 968 q 392 1040 300 1040 q 608 972 528 1040 q 688 786 688 903 q 651 659 688 713 q 549 581 615 606 l 549 575 q 615 543 588 565 l 818 543 l 818 1028 l 1189 1028 m 1272 819 l 1150 819 l 1150 1028 l 1643 1028 l 1643 819 l 1522 819 l 1522 0 l 1272 0 l 1272 819 z "},"ऍ":{"ha":907,"x_min":-19,"x_max":926,"o":"m 926 819 l 817 819 l 817 726 q 756 501 817 579 q 557 422 694 422 q 475 429 524 422 l 475 653 q 501 650 494 650 q 574 732 574 650 l 574 819 l 356 819 l 356 363 q 385 270 356 301 q 461 239 415 239 q 533 266 506 239 q 560 339 560 293 l 806 339 q 713 109 806 192 q 464 26 619 26 q 198 120 290 26 q 106 372 106 214 l 104 819 l -19 819 l -19 1028 l 926 1028 l 926 819 m 454 1131 q 193 1213 279 1131 q 107 1439 107 1296 l 321 1439 q 353 1349 321 1382 q 454 1315 386 1315 q 556 1349 522 1315 q 589 1439 589 1383 l 803 1439 q 716 1213 803 1296 q 454 1131 629 1131 z "},"ॲ":{"ha":1178,"x_min":76,"x_max":1301,"o":"m 1189 1028 l 1189 819 l 1068 819 l 1068 0 l 818 0 l 818 336 l 701 336 q 615 152 694 219 q 410 85 536 85 q 235 122 310 85 q 118 226 160 158 q 76 382 76 294 l 311 382 q 333 323 311 347 q 394 299 356 299 q 453 322 432 299 q 474 382 474 344 q 446 447 474 421 q 365 472 418 472 l 300 472 l 300 672 l 365 672 q 438 694 410 672 q 465 751 465 715 q 444 808 465 786 q 392 829 424 829 q 337 808 358 829 q 317 756 315 788 l 86 756 q 124 903 86 839 q 231 1004 161 968 q 392 1040 300 1040 q 608 972 528 1040 q 688 786 688 903 q 651 659 688 713 q 549 581 615 606 l 549 575 q 615 543 588 565 l 818 543 l 818 1028 l 1189 1028 m 953 1138 q 692 1220 778 1138 q 606 1446 606 1303 l 819 1446 q 852 1356 819 1389 q 953 1322 885 1322 q 1054 1356 1021 1322 q 1088 1446 1088 1390 l 1301 1446 q 1215 1220 1301 1303 q 953 1138 1128 1138 z "},"ऑ":{"ha":1624,"x_min":76,"x_max":1643,"o":"m 1189 1028 l 1189 819 l 1068 819 l 1068 0 l 818 0 l 818 336 l 701 336 q 615 152 694 219 q 410 85 536 85 q 235 122 310 85 q 118 226 160 158 q 76 382 76 294 l 311 382 q 333 323 311 347 q 394 299 356 299 q 453 322 432 299 q 474 382 474 344 q 446 447 474 421 q 365 472 418 472 l 300 472 l 300 672 l 365 672 q 438 694 410 672 q 465 751 465 715 q 444 808 465 786 q 392 829 424 829 q 337 808 358 829 q 317 756 315 788 l 86 756 q 124 903 86 839 q 231 1004 161 968 q 392 1040 300 1040 q 608 972 528 1040 q 688 786 688 903 q 651 659 688 713 q 549 581 615 606 l 549 575 q 615 543 588 565 l 818 543 l 818 1028 l 1189 1028 m 1272 819 l 1150 819 l 1150 1028 l 1643 1028 l 1643 819 l 1522 819 l 1522 0 l 1272 0 l 1272 819 m 1176 1131 q 915 1213 1001 1131 q 829 1439 829 1296 l 1043 1439 q 1076 1349 1043 1382 q 1176 1315 1108 1315 q 1278 1349 1244 1315 q 1311 1439 1311 1383 l 1525 1439 q 1438 1213 1525 1296 q 1176 1131 1351 1131 z "},"ा":{"ha":454,"x_min":-19,"x_max":474,"o":"m 103 819 l -19 819 l -19 1028 l 474 1028 l 474 819 l 353 819 l 353 0 l 103 0 l 103 819 z "},"ि":{"ha":454,"x_min":-19,"x_max":1292,"o":"m 696 1447 q 1014 1389 879 1447 q 1220 1228 1149 1331 q 1292 999 1292 1126 l 1292 974 l 1040 974 l 1040 993 q 994 1129 1040 1072 q 869 1215 947 1186 q 696 1244 790 1244 q 459 1188 556 1244 q 353 1028 363 1132 l 474 1028 l 474 819 l 353 819 l 353 0 l 103 0 l 103 819 l -19 819 l -19 1028 l 104 1028 q 183 1245 111 1150 q 386 1394 256 1340 q 696 1447 517 1447 z "},"ी":{"ha":454,"x_min":-353,"x_max":474,"o":"m 474 1028 l 474 819 l 353 819 l 353 0 l 103 0 l 103 819 l -19 819 l -19 1028 l 110 1028 l 110 1078 q 88 1190 110 1143 q 3 1236 67 1236 q -110 1078 -110 1236 l -110 974 l -353 974 l -353 1067 q -268 1346 -353 1244 q 3 1447 -183 1447 q 353 1067 353 1447 l 353 1028 l 474 1028 z "},"ु":{"ha":0,"x_min":-672,"x_max":17,"o":"m -300 -489 q -483 -456 -399 -489 q -620 -348 -568 -422 q -671 -157 -672 -274 l -450 -157 q -412 -261 -451 -228 q -306 -294 -374 -294 q -224 -272 -253 -294 q -196 -211 -196 -250 q -222 -151 -196 -174 q -299 -128 -249 -128 l -353 -128 l -353 67 l -299 67 q -64 -7 -144 67 q 17 -212 17 -81 q -69 -415 17 -340 q -300 -489 -154 -489 z "},"ू":{"ha":0,"x_min":-549,"x_max":146,"o":"m -271 -467 q -469 -401 -390 -467 q -549 -210 -549 -335 q -462 -14 -549 -85 q -235 57 -375 57 q 60 -65 -25 57 q 146 -369 146 -187 q 143 -458 146 -403 l -61 -458 l -61 -361 q -103 -187 -61 -246 q -239 -128 -146 -128 q -317 -149 -285 -128 q -349 -211 -349 -169 q -322 -268 -349 -249 q -254 -287 -294 -287 l -219 -287 l -219 -465 l -271 -467 z "},"ृ":{"ha":0,"x_min":-508,"x_max":-29,"o":"m -189 -478 q -415 -412 -321 -478 q -508 -206 -508 -346 q -425 -12 -508 -85 q -193 61 -342 61 q -103 58 -131 61 l -103 -110 l -171 -110 q -242 -133 -217 -110 q -267 -196 -267 -157 q -234 -260 -267 -240 q -149 -279 -201 -279 q -29 -261 -90 -279 l -29 -454 q -189 -478 -104 -478 z "},"ॄ":{"ha":0,"x_min":-454,"x_max":35,"o":"m -146 -683 q -365 -628 -275 -683 q -454 -458 -454 -574 q -415 -347 -454 -393 q -311 -285 -375 -300 l -311 -281 q -454 -118 -454 -247 q -383 18 -454 -25 q -224 61 -312 61 l -103 61 l -103 -74 l -125 -74 q -190 -86 -167 -74 q -214 -131 -214 -99 q -124 -186 -214 -186 l -39 -186 l -39 -371 l -108 -371 q -187 -383 -158 -371 q -215 -432 -215 -396 q -107 -492 -215 -492 q 35 -471 -37 -492 l 35 -656 q -49 -676 1 -668 q -146 -683 -99 -683 z "},"ॢ":{"ha":0,"x_min":-657,"x_max":228,"o":"m 167 -515 q 228 -508 203 -515 l 228 -662 q 140 -669 179 -669 q -40 -616 29 -669 q -108 -467 -108 -562 q -75 -366 -108 -410 q 10 -301 -42 -322 l 10 -290 q -10 -225 10 -250 q -64 -200 -31 -200 q -124 -229 -106 -200 q -142 -301 -142 -258 l -142 -335 l -303 -335 l -303 -301 q -322 -230 -303 -260 q -379 -200 -340 -200 q -440 -225 -418 -200 q -461 -292 -461 -250 q -436 -369 -461 -344 q -368 -393 -411 -393 q -340 -390 -350 -393 l -340 -558 q -376 -560 -356 -560 q -583 -487 -510 -560 q -657 -290 -657 -414 q -623 -146 -657 -204 q -533 -60 -589 -87 q -410 -32 -476 -32 q -298 -61 -343 -32 q -229 -140 -253 -90 l -225 -140 q -153 -62 -201 -92 q -35 -32 -104 -32 q 84 -60 29 -32 q 173 -146 139 -87 q 207 -290 207 -204 q 190 -394 207 -340 l 182 -394 q 101 -410 125 -394 q 78 -458 78 -426 q 103 -500 78 -485 q 167 -515 128 -515 z "},"ॣ":{"ha":0,"x_min":-657,"x_max":276,"o":"m 168 -710 q 276 -694 215 -710 l 276 -836 q 210 -851 249 -846 q 136 -857 172 -857 q -28 -816 39 -857 q -96 -687 -96 -775 q -66 -601 -96 -636 q 13 -554 -36 -565 l 13 -551 q -66 -509 -36 -540 q -96 -425 -96 -478 q -67 -342 -96 -374 q 10 -299 -37 -311 l 10 -290 q -10 -225 10 -250 q -64 -200 -31 -200 q -124 -229 -106 -200 q -142 -301 -142 -258 l -142 -335 l -303 -335 l -303 -301 q -322 -230 -303 -260 q -379 -200 -340 -200 q -440 -225 -418 -200 q -461 -292 -461 -250 q -436 -369 -461 -344 q -368 -393 -411 -393 q -340 -390 -350 -393 l -340 -558 q -376 -560 -356 -560 q -583 -487 -510 -560 q -657 -290 -657 -414 q -623 -146 -657 -204 q -533 -60 -589 -87 q -410 -32 -476 -32 q -298 -61 -343 -32 q -229 -140 -253 -90 l -225 -140 q -153 -62 -201 -92 q -35 -32 -104 -32 q 84 -60 29 -32 q 173 -146 139 -87 q 207 -290 207 -204 q 190 -394 207 -340 l 157 -394 q 107 -403 125 -394 q 89 -436 89 -412 q 108 -468 89 -458 q 158 -478 128 -478 l 219 -478 l 219 -619 l 168 -619 q 108 -629 129 -619 q 88 -667 88 -639 q 168 -710 88 -710 z "},"े":{"ha":0,"x_min":-662,"x_max":-104,"o":"m -339 1021 q -422 1136 -390 1101 q -489 1183 -454 1171 q -586 1196 -524 1196 l -662 1196 l -662 1397 l -589 1397 q -398 1371 -468 1396 q -262 1268 -328 1346 q -104 1021 -196 1190 l -339 1021 z "},"ै":{"ha":0,"x_min":-682,"x_max":-106,"o":"m -604 1501 q -421 1476 -482 1501 q -294 1356 -360 1450 q -106 1024 -229 1263 l -319 1024 l -360 1047 q -445 1093 -419 1082 q -499 1107 -471 1104 q -603 1110 -528 1110 l -682 1110 l -682 1265 l -608 1265 q -501 1263 -535 1265 q -435 1246 -467 1260 q -360 1199 -403 1232 q -440 1299 -403 1268 q -509 1338 -476 1331 q -597 1346 -542 1346 l -682 1346 l -682 1501 l -604 1501 z "},"ो":{"ha":456,"x_min":-207,"x_max":474,"o":"m 103 819 l -19 819 l -19 1028 l 474 1028 l 474 819 l 353 819 l 353 0 l 103 0 l 103 819 m 117 1021 q 33 1136 65 1101 q -33 1183 1 1171 q -131 1196 -68 1196 l -207 1196 l -207 1397 l -133 1397 q 58 1371 -12 1396 q 194 1268 128 1346 q 351 1021 260 1190 l 117 1021 z "},"ौ":{"ha":454,"x_min":-235,"x_max":474,"o":"m 103 819 l -19 819 l -19 1028 l 474 1028 l 474 819 l 353 819 l 353 0 l 103 0 l 103 819 m -157 1501 q 26 1476 -35 1501 q 153 1356 88 1450 q 342 1024 218 1263 l 128 1024 l 88 1047 q 2 1093 28 1082 q -52 1107 -24 1104 q -156 1110 -81 1110 l -235 1110 l -235 1265 l -161 1265 q -53 1263 -87 1265 q 13 1246 -19 1260 q 88 1199 44 1232 q 8 1299 44 1268 q -62 1338 -29 1331 q -150 1346 -94 1346 l -235 1346 l -235 1501 l -157 1501 z "},"ॅ":{"ha":0,"x_min":-587,"x_max":108,"o":"m -240 1124 q -501 1206 -415 1124 q -587 1432 -587 1289 l -374 1432 q -341 1342 -374 1375 q -240 1308 -308 1308 q -139 1342 -172 1308 q -106 1432 -106 1376 l 108 1432 q 22 1206 108 1289 q -240 1124 -65 1124 z "},"ॉ":{"ha":457,"x_min":-119,"x_max":576,"o":"m 104 819 l -18 819 l -18 1028 l 475 1028 l 475 819 l 354 819 l 354 0 l 104 0 l 104 819 m 228 1124 q -33 1206 53 1124 q -119 1432 -119 1289 l 94 1432 q 127 1342 94 1375 q 228 1308 160 1308 q 329 1342 296 1308 q 363 1432 363 1376 l 576 1432 q 490 1206 576 1289 q 228 1124 403 1124 z "},"क":{"ha":1326,"x_min":-19,"x_max":1346,"o":"m 796 819 l 796 640 q 873 703 825 681 q 983 725 921 725 q 1133 683 1071 725 q 1228 568 1196 640 q 1261 407 1261 496 q 1224 237 1261 308 q 1123 128 1188 165 q 975 90 1058 90 q 879 103 924 90 l 879 297 q 907 293 890 293 q 979 322 951 293 q 1007 400 1007 351 q 979 481 1007 449 q 901 513 951 513 q 823 478 850 513 q 796 386 796 443 l 796 0 l 554 0 l 554 164 q 350 75 488 75 q 198 117 263 75 q 99 232 133 158 q 65 400 65 306 q 144 636 65 547 q 360 725 222 725 q 474 703 425 725 q 554 643 524 682 l 554 819 l -19 819 l -19 1028 l 1346 1028 l 1346 819 l 796 819 m 438 285 q 522 319 490 285 q 554 400 554 353 q 523 480 554 447 q 438 513 492 513 q 353 481 386 513 q 321 399 321 450 q 353 317 321 349 q 438 285 385 285 z "},"ख":{"ha":1346,"x_min":-19,"x_max":1365,"o":"m 1365 1028 l 1365 819 l 1244 819 l 1244 0 l 994 0 l 994 196 q 846 143 942 143 q 803 146 831 143 q 671 31 750 74 q 489 -11 592 -11 q 192 96 300 -11 q 83 399 83 203 l 83 563 l 114 563 q 253 603 210 563 q 297 733 297 644 l 297 819 l -19 819 l -19 1028 l 1365 1028 m 494 204 q 628 260 585 204 q 581 432 581 335 q 614 578 581 513 q 708 680 647 643 q 846 717 768 717 q 994 661 942 717 l 994 819 l 550 819 l 550 699 q 492 487 550 567 q 332 389 433 407 l 332 368 q 374 250 332 296 q 494 204 417 204 m 901 333 q 969 361 944 333 q 994 431 994 389 q 971 499 994 471 q 901 528 947 528 q 831 502 858 528 q 804 432 804 476 q 831 359 804 385 q 901 333 858 333 z "},"ग":{"ha":1163,"x_min":-19,"x_max":1182,"o":"m 1182 1028 l 1182 819 l 1060 819 l 1060 0 l 810 0 l 810 819 l 657 819 l 657 525 q 582 297 657 383 q 356 211 507 211 q 126 288 208 211 q 44 513 44 365 q 46 558 44 543 l 288 558 l 288 514 q 349 425 288 425 q 407 514 407 425 l 407 819 l -19 819 l -19 1028 l 1182 1028 z "},"घ":{"ha":965,"x_min":-19,"x_max":985,"o":"m 985 819 l 865 819 l 865 0 l 613 0 l 613 218 q 512 149 571 172 q 381 126 453 126 q 231 155 299 126 q 123 241 163 183 q 83 379 83 299 q 124 506 83 454 q 222 575 164 557 l 222 581 q 132 643 165 597 q 99 767 99 689 l 99 819 l -19 819 l -19 1028 l 985 1028 l 985 819 m 613 819 l 350 819 l 350 779 q 374 707 350 732 q 453 682 397 682 l 506 682 l 506 481 l 433 481 q 363 460 388 481 q 339 406 339 439 q 367 349 339 368 q 443 329 396 329 q 564 374 515 329 q 613 493 613 419 l 613 819 z "},"ङ":{"ha":993,"x_min":-19,"x_max":1013,"o":"m 1013 1028 l 1013 819 l 660 819 l 660 561 l 400 561 q 351 550 371 561 q 332 514 332 539 q 349 478 332 490 q 394 467 367 467 l 456 467 q 661 408 578 467 q 744 221 744 349 q 660 37 744 104 q 424 -31 576 -31 q 169 40 269 -31 q 61 238 68 110 l 311 238 q 344 177 314 197 q 417 157 375 157 q 483 175 458 157 q 507 224 507 193 q 482 274 507 257 q 410 292 457 292 l 363 292 q 168 341 254 292 q 82 524 82 390 q 153 683 82 628 q 336 738 224 738 l 418 738 l 418 819 l -19 819 l -19 1028 l 1013 1028 m 854 629 q 946 592 908 629 q 983 501 983 554 q 946 412 983 449 q 854 375 908 375 q 765 413 803 375 q 728 501 728 450 q 765 592 728 554 q 854 629 801 629 z "},"च":{"ha":1054,"x_min":-19,"x_max":1074,"o":"m 1074 819 l 953 819 l 953 0 l 701 0 l 701 203 q 601 131 663 156 q 467 107 540 107 q 324 138 388 107 q 223 228 260 169 q 186 367 186 286 q 240 510 186 451 l 71 510 l 71 706 l 588 706 l 588 510 l 526 510 q 451 484 482 510 q 421 413 421 458 q 456 340 421 365 q 544 314 490 314 q 661 370 621 315 q 701 518 701 425 l 701 819 l -19 819 l -19 1028 l 1074 1028 l 1074 819 z "},"छ":{"ha":1147,"x_min":-19,"x_max":1167,"o":"m 919 819 l 919 725 q 1045 622 1000 694 q 1090 444 1090 549 q 1028 224 1090 318 q 847 77 967 129 q 560 25 728 25 q 210 103 340 25 q 81 335 81 182 q 219 544 81 486 l 219 550 q 131 611 164 565 q 97 736 97 657 l 97 819 l -19 819 l -19 1028 l 1167 1028 l 1167 819 l 919 819 m 689 819 l 349 819 l 349 746 q 436 649 349 649 l 464 649 l 464 450 l 442 450 q 363 424 390 450 q 335 358 335 399 q 563 239 335 239 q 871 457 871 239 q 853 531 871 501 q 803 560 835 560 q 753 535 771 560 q 735 467 735 510 q 750 367 735 417 l 544 367 q 526 494 526 421 q 570 644 526 586 q 689 728 614 703 l 689 819 z "},"ज":{"ha":1203,"x_min":-19,"x_max":1222,"o":"m 1222 819 l 1101 819 l 1101 0 l 851 0 l 851 460 l 724 460 l 724 447 q 684 280 724 353 q 571 166 644 207 q 397 125 497 125 q 148 213 235 125 q 61 447 61 301 l 61 674 l 314 674 l 314 454 q 335 373 314 401 q 397 344 357 344 q 458 373 438 344 q 479 454 479 401 l 479 674 l 851 674 l 851 819 l -19 819 l -19 1028 l 1222 1028 l 1222 819 z "},"झ":{"ha":1217,"x_min":-19,"x_max":1236,"o":"m 1236 819 l 1114 819 l 1114 0 l 868 0 l 868 279 l 714 279 q 729 186 729 238 q 669 33 729 92 q 506 -25 610 -25 q 413 -10 453 -25 q 346 26 372 6 l 346 -121 l 108 -121 l 108 235 l 333 235 q 359 178 335 199 q 424 158 383 158 q 480 176 460 158 q 500 222 500 193 q 476 274 500 256 q 401 292 451 292 q 310 293 346 292 q 144 353 214 299 q 74 515 74 407 q 144 683 74 626 q 329 739 215 739 l 411 739 l 411 819 l -19 819 l -19 1028 l 1236 1028 l 1236 819 m 868 467 l 868 819 l 654 819 l 654 561 l 392 561 q 344 550 363 561 q 326 514 326 539 q 390 467 326 467 l 450 467 l 868 467 z "},"ञ":{"ha":1171,"x_min":-19,"x_max":1190,"o":"m 1190 819 l 1069 819 l 1069 0 l 819 0 l 819 299 l 717 299 q 605 122 690 185 q 396 58 519 58 q 165 133 257 58 q 65 340 74 208 l 303 340 q 339 288 313 306 q 399 269 365 269 q 474 305 447 269 q 501 394 501 340 q 474 483 501 447 q 399 518 447 518 q 338 500 365 518 q 303 449 311 482 l 65 449 q 165 656 74 581 q 396 731 257 731 q 598 672 514 731 q 713 510 682 614 l 819 510 l 819 819 l -19 819 l -19 1028 l 1190 1028 l 1190 819 z "},"ट":{"ha":894,"x_min":-19,"x_max":914,"o":"m 485 521 q 365 482 413 521 q 317 374 317 443 q 358 272 317 311 q 468 233 399 233 q 581 274 539 233 q 622 383 622 315 l 861 383 q 814 190 861 274 q 679 62 767 107 q 474 17 592 17 q 262 61 354 17 q 117 188 169 106 q 65 376 65 269 q 110 556 65 478 q 242 681 156 635 q 446 731 328 726 l 446 819 l -19 819 l -19 1028 l 914 1028 l 914 819 l 692 819 l 692 521 l 485 521 z "},"ठ":{"ha":931,"x_min":-19,"x_max":950,"o":"m 586 819 l 586 732 q 788 614 710 701 q 865 389 865 526 q 813 200 865 281 q 669 77 761 119 q 465 35 578 35 q 261 77 353 35 q 117 200 169 119 q 65 389 65 281 q 142 612 65 524 q 339 731 218 700 l 339 819 l -19 819 l -19 1028 l 950 1028 l 950 819 l 586 819 m 465 242 q 575 283 535 242 q 615 389 615 324 q 575 495 615 454 q 465 536 535 536 q 356 495 397 536 q 315 389 315 454 q 356 283 315 325 q 465 242 397 242 z "},"ड":{"ha":782,"x_min":-19,"x_max":801,"o":"m 400 561 q 351 550 371 561 q 332 514 332 539 q 349 478 332 490 q 394 467 367 467 l 456 467 q 661 408 578 467 q 744 221 744 349 q 660 37 744 104 q 424 -31 576 -31 q 169 40 269 -31 q 61 238 68 110 l 311 238 q 344 177 314 197 q 417 157 375 157 q 483 175 458 157 q 507 224 507 193 q 482 274 507 257 q 410 292 457 292 l 363 292 q 168 341 254 292 q 82 524 82 390 q 153 683 82 628 q 336 738 224 738 l 417 738 l 417 819 l -19 819 l -19 1028 l 801 1028 l 801 819 l 658 819 l 658 561 l 400 561 z "},"ढ":{"ha":917,"x_min":-19,"x_max":936,"o":"m 549 574 q 376 518 443 574 q 308 363 308 463 q 363 217 308 274 q 526 160 418 160 q 644 187 599 160 q 689 267 689 214 q 674 309 689 293 q 632 325 658 325 q 595 310 610 325 q 581 275 581 296 q 583 254 581 265 l 407 254 q 401 310 401 281 q 467 451 401 401 q 643 501 533 501 q 833 438 765 501 q 901 267 901 374 q 803 56 901 131 q 522 -19 706 -19 q 288 27 392 -19 q 125 162 185 74 q 65 374 65 250 q 117 572 65 489 q 260 699 169 656 q 468 743 351 743 l 485 743 l 485 819 l -19 819 l -19 1028 l 936 1028 l 936 819 l 721 819 l 721 574 l 549 574 z "},"ण":{"ha":1261,"x_min":-19,"x_max":1281,"o":"m 1281 819 l 1160 819 l 1160 0 l 908 0 l 908 819 l 750 819 l 750 500 q 667 271 750 358 q 429 183 585 183 q 251 225 324 183 q 144 338 179 267 q 108 500 108 410 l 108 819 l -19 819 l -19 1028 l 1281 1028 l 1281 819 m 504 819 l 353 819 l 353 476 q 374 417 353 440 q 429 394 394 394 q 485 417 465 394 q 504 476 504 439 l 504 819 z "},"त":{"ha":990,"x_min":-19,"x_max":1010,"o":"m 1010 819 l 888 819 l 888 0 l 636 0 l 636 467 l 472 467 q 362 431 404 467 q 319 333 319 394 q 357 234 319 271 q 467 197 394 197 l 490 197 l 490 1 l 426 1 q 167 85 269 1 q 65 339 65 168 q 118 531 65 454 q 260 644 171 607 q 461 681 350 681 l 636 681 l 636 819 l -19 819 l -19 1028 l 1010 1028 l 1010 819 z "},"थ":{"ha":1115,"x_min":67,"x_max":1135,"o":"m 1135 1028 l 1135 819 l 1014 819 l 1014 0 l 763 0 l 763 246 q 650 147 728 186 q 467 107 572 107 q 257 156 347 107 q 117 294 167 204 q 67 508 67 385 q 74 615 67 571 l 190 615 q 373 647 308 615 q 438 756 438 679 q 420 807 438 786 q 375 828 403 828 q 326 808 344 828 q 308 751 308 788 q 314 706 308 733 l 89 706 q 83 758 83 744 q 123 913 83 849 q 230 1008 163 976 q 378 1040 297 1040 q 531 1005 464 1040 q 635 903 597 969 q 672 749 672 838 q 581 528 672 613 q 311 438 490 443 q 369 350 322 386 q 504 314 415 314 q 635 346 576 314 q 728 442 694 378 q 763 599 763 507 l 763 1028 l 1135 1028 z "},"द":{"ha":850,"x_min":-19,"x_max":869,"o":"m 463 508 q 360 475 399 508 q 322 385 322 442 q 352 303 322 333 q 432 274 382 274 q 507 303 478 274 q 536 381 536 332 l 768 381 l 768 -54 l 524 -54 l 524 135 q 453 92 496 107 q 360 76 411 76 q 215 111 282 76 q 106 217 147 146 q 65 392 65 288 q 113 570 65 496 q 244 683 160 644 q 436 722 328 722 l 472 722 l 472 819 l -19 819 l -19 1028 l 869 1028 l 868 819 l 725 819 l 725 508 l 463 508 z "},"ध":{"ha":1025,"x_min":81,"x_max":1057,"o":"m 1057 819 l 940 819 l 940 0 l 690 0 l 690 211 q 410 99 600 99 q 249 128 321 99 q 134 215 176 157 q 92 354 92 272 q 140 487 92 436 q 249 554 188 538 l 249 558 q 129 640 178 581 q 81 792 81 699 q 115 924 81 868 q 210 1010 150 981 q 347 1040 271 1040 q 535 974 468 1040 q 603 800 603 908 q 600 742 603 769 l 417 742 l 418 768 q 401 814 418 797 q 357 831 385 831 q 309 812 326 831 q 292 763 292 793 q 340 685 292 708 q 456 661 389 661 l 540 661 l 540 460 l 468 460 q 347 382 347 460 q 381 324 347 344 q 474 304 414 304 q 632 366 574 304 q 690 531 690 428 l 690 1028 l 1057 1028 l 1057 819 z "},"न":{"ha":1158,"x_min":-19,"x_max":1178,"o":"m 1178 819 l 1056 819 l 1056 0 l 804 0 l 804 478 l 654 478 q 683 346 683 415 q 643 197 683 258 q 535 106 603 136 q 385 75 467 75 q 226 111 300 75 q 107 217 151 147 q 63 381 63 286 q 109 549 63 481 q 233 652 156 618 q 406 686 311 686 l 804 686 l 804 819 l -19 819 l -19 1028 l 1178 1028 l 1178 819 m 388 286 q 458 313 431 286 q 485 382 485 339 q 458 451 485 424 q 388 478 431 478 q 317 451 344 478 q 289 382 289 424 q 316 313 289 339 q 388 286 343 286 z "},"प":{"ha":950,"x_min":-19,"x_max":969,"o":"m 969 819 l 849 819 l 849 0 l 599 0 l 599 276 q 401 206 528 206 q 229 253 300 206 q 122 382 158 300 q 86 569 86 464 l 86 819 l -19 819 l -19 1028 l 969 1028 l 969 819 m 599 819 l 338 819 l 338 569 q 369 458 338 500 q 467 417 401 417 q 565 458 531 417 q 599 561 599 499 l 599 819 z "},"फ":{"ha":1367,"x_min":-19,"x_max":1386,"o":"m 826 819 l 826 642 q 910 703 860 682 q 1026 725 961 725 q 1176 683 1113 725 q 1272 570 1239 642 q 1304 413 1304 499 q 1268 240 1304 313 q 1167 128 1232 167 q 1018 90 1101 90 q 913 106 960 90 l 913 297 q 950 292 938 292 q 1022 322 996 292 q 1049 400 1049 353 q 1021 481 1049 449 q 944 513 993 513 q 857 471 888 513 q 826 358 826 429 l 826 0 l 575 0 l 575 274 q 389 206 507 206 q 224 251 292 206 q 121 375 156 296 q 86 556 86 454 l 86 819 l -19 819 l -19 1028 l 1386 1028 l 1386 819 l 826 819 m 575 819 l 338 819 l 338 556 q 367 454 338 492 q 456 417 396 417 q 544 455 513 417 q 575 550 575 493 l 575 819 z "},"ब":{"ha":954,"x_min":-19,"x_max":974,"o":"m 974 1028 l 974 819 l 854 819 l 854 0 l 613 0 l 613 146 q 525 88 579 108 q 404 68 471 68 q 231 112 308 68 q 109 234 153 156 q 65 411 65 313 q 109 582 65 507 q 230 699 153 657 q 404 740 307 740 q 613 674 528 740 l 613 819 l -19 819 l -19 1028 l 974 1028 m 457 581 q 354 549 399 581 l 619 357 q 628 411 628 382 q 581 532 628 483 q 457 581 533 581 m 283 411 q 334 290 283 336 q 458 244 385 244 q 561 275 518 244 l 293 467 q 283 411 283 443 z "},"भ":{"ha":1211,"x_min":68,"x_max":1231,"o":"m 1231 1028 l 1231 819 l 1107 819 l 1107 0 l 857 0 l 857 446 l 703 446 l 703 393 q 622 154 703 240 q 389 68 542 68 q 220 104 293 68 q 108 206 147 140 q 68 360 68 272 q 160 576 68 501 q 396 650 253 650 l 468 650 l 468 746 q 410 828 468 828 q 366 808 382 828 q 350 756 350 788 q 354 714 350 738 l 103 714 q 97 765 97 744 q 175 963 97 886 q 400 1040 253 1040 q 632 947 561 1040 q 703 700 703 854 l 703 650 l 857 650 l 857 1028 l 1231 1028 m 468 446 l 403 446 q 328 424 357 446 q 300 361 300 401 q 324 301 300 322 q 383 279 347 279 q 447 306 426 279 q 468 379 468 333 l 468 446 z "},"म":{"ha":1196,"x_min":-19,"x_max":1215,"o":"m 1215 819 l 1093 819 l 1093 0 l 842 0 l 842 446 l 688 446 l 688 393 q 606 154 688 240 q 372 68 525 68 q 204 104 276 68 q 92 206 132 140 q 53 360 53 272 q 145 576 53 501 q 379 650 238 650 l 453 650 l 453 819 l -19 819 l -19 1028 l 1215 1028 l 1215 819 m 842 819 l 688 819 l 688 650 l 842 650 l 842 819 m 453 446 l 386 446 q 313 424 340 446 q 285 361 285 401 q 308 301 285 322 q 367 279 331 279 q 431 307 410 279 q 453 379 453 335 l 453 446 z "},"य":{"ha":1060,"x_min":-19,"x_max":1079,"o":"m 1079 819 l 957 819 l 957 0 l 707 0 l 707 192 q 449 100 615 100 q 169 206 269 100 q 69 492 69 311 q 76 582 69 531 l 89 582 q 240 630 199 582 q 281 767 281 678 l 281 819 l -19 819 l -19 1028 l 1079 1028 l 1079 819 m 707 819 l 528 819 l 528 721 q 478 543 528 614 q 319 456 429 472 q 372 350 324 392 q 504 308 421 308 q 653 367 600 308 q 707 519 707 426 l 707 819 z "},"र":{"ha":735,"x_min":-19,"x_max":754,"o":"m 653 765 q 579 501 653 599 q 326 399 506 403 l 326 278 q 342 222 326 243 q 388 200 357 200 q 431 221 415 200 q 447 275 447 242 l 447 317 l 688 317 q 689 283 689 301 q 610 67 689 147 q 393 -12 532 -12 q 222 27 293 -12 q 114 135 150 67 q 78 290 78 204 l 78 600 l 217 600 q 360 642 319 600 q 401 765 401 685 l 401 819 l -19 819 l -19 1028 l 754 1028 l 754 819 l 653 819 l 653 765 z "},"ल":{"ha":1274,"x_min":-19,"x_max":1293,"o":"m 1047 819 l 1047 682 q 1165 566 1121 642 q 1208 381 1208 490 q 1165 196 1208 276 q 1039 69 1122 115 q 839 24 956 24 l 790 26 l 790 244 l 828 242 q 918 277 883 242 q 953 376 953 313 q 925 465 953 432 q 847 499 897 499 q 766 460 792 499 q 740 364 740 421 l 740 328 l 533 328 l 533 364 q 508 460 533 422 q 428 499 483 499 q 349 466 376 499 q 321 376 321 433 q 356 277 321 313 q 446 242 390 242 l 483 244 l 483 26 l 435 24 q 235 69 318 24 q 108 196 151 115 q 65 381 65 276 q 110 569 65 493 q 230 683 156 646 q 390 719 304 719 q 635 575 563 719 l 639 575 q 801 710 689 681 l 801 819 l -19 819 l -19 1028 l 1293 1028 l 1293 819 l 1047 819 z "},"व":{"ha":922,"x_min":-19,"x_max":942,"o":"m 942 1028 l 942 819 l 822 819 l 822 0 l 576 0 l 576 157 q 490 94 542 117 q 375 72 439 72 q 209 116 279 72 q 102 235 139 160 q 65 407 65 311 q 102 573 65 500 q 209 688 139 646 q 375 731 279 731 q 490 709 439 731 q 576 647 542 688 l 576 819 l -19 819 l -19 1028 l 942 1028 m 446 271 q 541 309 506 271 q 576 401 576 347 q 542 494 576 457 q 446 531 507 531 q 349 494 386 531 q 313 401 313 458 q 349 308 313 344 q 446 271 386 271 z "},"श":{"ha":1207,"x_min":82,"x_max":1226,"o":"m 336 385 l 336 306 q 356 233 336 261 q 421 206 375 206 q 479 231 458 206 q 500 296 500 256 l 500 318 l 744 318 l 746 292 q 660 71 746 150 q 428 -8 575 -8 q 175 80 268 -8 q 82 319 82 168 l 82 594 l 274 594 q 439 627 374 594 q 504 740 504 660 q 485 800 504 776 q 432 824 467 824 q 376 800 396 824 q 357 736 357 776 l 357 694 l 108 694 q 104 744 104 719 q 144 898 104 831 q 258 1003 183 965 q 432 1040 332 1040 q 669 957 581 1040 q 758 724 758 874 q 649 470 758 556 q 368 385 540 385 l 336 385 m 1226 1028 l 1226 819 l 1106 819 l 1106 0 l 851 0 l 851 1028 l 1226 1028 z "},"ष":{"ha":974,"x_min":-19,"x_max":993,"o":"m 993 819 l 871 819 l 871 0 l 625 0 l 625 263 q 417 186 553 186 q 237 236 311 186 q 124 373 163 286 q 86 569 86 460 l 86 819 l -19 819 l -19 1028 l 993 1028 l 993 819 m 625 819 l 332 819 l 625 636 l 625 819 m 471 397 q 558 419 522 397 q 610 481 593 442 l 329 656 l 329 561 q 365 442 329 488 q 471 397 401 397 z "},"स":{"ha":1154,"x_min":-19,"x_max":1174,"o":"m 1174 819 l 1053 819 l 1053 0 l 801 0 l 801 396 l 326 396 l 326 279 q 343 222 326 244 q 393 200 360 200 q 442 221 425 200 q 458 275 458 242 l 458 292 l 700 292 l 700 260 q 620 61 700 135 q 399 -12 540 -12 q 224 28 296 -12 q 115 137 151 68 q 78 292 78 206 l 78 574 l 174 574 q 317 617 276 574 q 358 738 358 660 l 358 819 l -19 819 l -19 1028 l 1174 1028 l 1174 819 m 801 819 l 610 819 l 610 738 q 586 600 610 660 l 801 600 l 801 819 z "},"ह":{"ha":811,"x_min":-19,"x_max":831,"o":"m 422 567 q 374 554 393 567 q 356 514 356 542 q 378 472 356 489 q 429 475 411 475 q 664 402 581 475 q 760 207 747 329 l 519 207 q 488 257 514 236 q 424 278 463 278 q 350 248 381 278 q 319 164 319 218 q 349 77 319 107 q 424 47 379 47 q 486 66 460 47 q 519 113 513 85 l 760 113 q 658 -86 750 -12 q 424 -160 565 -160 q 240 -119 319 -160 q 118 -6 161 -79 q 75 167 75 68 q 193 408 75 324 q 129 476 151 436 q 107 565 107 515 q 167 694 107 644 q 332 743 226 743 l 419 743 l 419 819 l -19 819 l -19 1028 l 831 1028 l 831 819 l 658 819 l 658 567 l 422 567 z "},"ळ":{"ha":1319,"x_min":-19,"x_max":1339,"o":"m 1082 819 l 1082 674 q 1207 559 1161 635 q 1253 381 1253 483 q 1210 208 1253 282 q 1093 94 1167 133 q 932 54 1019 54 q 772 93 843 54 q 664 206 701 132 l 656 206 q 547 93 618 132 q 388 54 476 54 q 226 94 300 54 q 108 208 151 133 q 65 381 65 282 q 108 553 65 479 q 225 667 151 626 q 388 707 299 707 q 657 557 567 707 l 663 557 q 840 696 724 665 l 840 819 l -19 819 l -19 1028 l 1339 1028 l 1339 819 l 1082 819 m 425 268 q 506 299 474 268 q 538 381 538 331 q 506 463 538 431 q 425 494 474 494 q 342 463 374 494 q 311 379 311 431 q 343 299 311 329 q 425 268 375 268 m 894 268 q 976 299 944 268 q 1008 379 1008 329 q 976 463 1008 431 q 894 494 944 494 q 813 463 844 494 q 782 381 782 431 q 813 299 782 329 q 894 268 844 268 z "},"क़":{"ha":1326,"x_min":-19,"x_max":1346,"o":"m 796 819 l 796 640 q 873 703 825 681 q 983 725 921 725 q 1133 683 1071 725 q 1228 568 1196 640 q 1261 407 1261 496 q 1224 237 1261 308 q 1123 128 1188 165 q 975 90 1058 90 q 879 103 924 90 l 879 297 q 907 293 890 293 q 979 322 951 293 q 1007 400 1007 351 q 979 481 1007 449 q 901 513 951 513 q 823 478 850 513 q 796 386 796 443 l 796 0 l 554 0 l 554 164 q 350 75 488 75 q 198 117 263 75 q 99 232 133 158 q 65 400 65 306 q 144 636 65 547 q 360 725 222 725 q 474 703 425 725 q 554 643 524 682 l 554 819 l -19 819 l -19 1028 l 1346 1028 l 1346 819 l 796 819 m 438 285 q 522 319 490 285 q 554 400 554 353 q 523 480 554 447 q 438 513 492 513 q 353 481 386 513 q 321 399 321 450 q 353 317 321 349 q 438 285 385 285 m 315 -279 q 215 -238 256 -279 q 174 -139 174 -197 q 215 -36 174 -78 q 315 6 256 6 q 417 -36 375 6 q 458 -139 458 -78 q 417 -238 458 -197 q 315 -279 375 -279 z "},"ख़":{"ha":1346,"x_min":-19,"x_max":1365,"o":"m 1365 1028 l 1365 819 l 1244 819 l 1244 0 l 994 0 l 994 196 q 846 143 942 143 q 803 146 831 143 q 671 31 750 74 q 489 -11 592 -11 q 192 96 300 -11 q 83 399 83 203 l 83 563 l 114 563 q 253 603 210 563 q 297 733 297 644 l 297 819 l -19 819 l -19 1028 l 1365 1028 m 494 204 q 628 260 585 204 q 581 432 581 335 q 614 578 581 513 q 708 680 647 643 q 846 717 768 717 q 994 661 942 717 l 994 819 l 550 819 l 550 699 q 492 487 550 567 q 332 389 433 407 l 332 368 q 374 250 332 296 q 494 204 417 204 m 901 333 q 969 361 944 333 q 994 431 994 389 q 971 499 994 471 q 901 528 947 528 q 831 502 858 528 q 804 432 804 476 q 831 359 804 385 q 901 333 858 333 m 454 -360 q 353 -319 394 -360 q 313 -219 313 -278 q 353 -117 313 -158 q 454 -75 394 -75 q 556 -117 514 -75 q 597 -219 597 -158 q 556 -319 597 -278 q 454 -360 514 -360 z "},"ग़":{"ha":1161,"x_min":-19,"x_max":1182,"o":"m 1182 1028 l 1182 819 l 1060 819 l 1060 0 l 810 0 l 810 819 l 657 819 l 657 525 q 582 297 657 383 q 356 211 507 211 q 126 288 208 211 q 44 513 44 365 q 46 558 44 543 l 288 558 l 288 514 q 349 425 288 425 q 407 514 407 425 l 407 819 l -19 819 l -19 1028 l 1182 1028 m 356 -144 q 255 -103 296 -144 q 214 -4 214 -62 q 255 99 214 57 q 356 140 296 140 q 457 99 415 140 q 499 -4 499 57 q 457 -103 499 -62 q 356 -144 415 -144 z "},"ज़":{"ha":1203,"x_min":-19,"x_max":1222,"o":"m 1222 819 l 1101 819 l 1101 0 l 851 0 l 851 460 l 724 460 l 724 447 q 684 280 724 353 q 571 166 644 207 q 397 125 497 125 q 148 213 235 125 q 61 447 61 301 l 61 674 l 314 674 l 314 454 q 335 373 314 401 q 397 344 357 344 q 458 373 438 344 q 479 454 479 401 l 479 674 l 851 674 l 851 819 l -19 819 l -19 1028 l 1222 1028 l 1222 819 m 397 -228 q 297 -187 338 -228 q 256 -87 256 -146 q 297 15 256 -26 q 397 57 338 57 q 499 15 457 57 q 540 -87 540 -26 q 499 -187 540 -146 q 397 -228 457 -228 z "},"ड़":{"ha":782,"x_min":-19,"x_max":801,"o":"m 400 561 q 351 550 371 561 q 332 514 332 539 q 349 478 332 490 q 394 467 367 467 l 456 467 q 661 408 578 467 q 744 221 744 349 q 660 37 744 104 q 424 -31 576 -31 q 169 40 269 -31 q 61 238 68 110 l 311 238 q 344 177 314 197 q 417 157 375 157 q 483 175 458 157 q 507 224 507 193 q 482 274 507 257 q 410 292 457 292 l 363 292 q 168 341 254 292 q 82 524 82 390 q 153 683 82 628 q 336 738 224 738 l 417 738 l 417 819 l -19 819 l -19 1028 l 801 1028 l 801 819 l 658 819 l 658 561 l 400 561 m 424 -383 q 323 -342 364 -383 q 282 -243 282 -301 q 323 -140 282 -182 q 424 -99 364 -99 q 525 -140 483 -99 q 567 -243 567 -182 q 525 -342 567 -301 q 424 -383 483 -383 z "},"ढ़":{"ha":917,"x_min":-19,"x_max":936,"o":"m 549 574 q 376 518 443 574 q 308 363 308 463 q 363 217 308 274 q 526 160 418 160 q 644 187 599 160 q 689 267 689 214 q 674 309 689 293 q 632 325 658 325 q 595 310 610 325 q 581 275 581 296 q 583 254 581 265 l 407 254 q 401 310 401 281 q 467 451 401 401 q 643 501 533 501 q 833 438 765 501 q 901 267 901 374 q 803 56 901 131 q 522 -19 706 -19 q 288 27 392 -19 q 125 162 185 74 q 65 374 65 250 q 117 572 65 489 q 260 699 169 656 q 468 743 351 743 l 485 743 l 485 819 l -19 819 l -19 1028 l 936 1028 l 936 819 l 721 819 l 721 574 l 549 574 m 496 -371 q 395 -330 436 -371 q 354 -231 354 -289 q 395 -128 354 -169 q 496 -86 436 -86 q 597 -128 556 -86 q 639 -231 639 -169 q 597 -330 639 -289 q 496 -371 556 -371 z "},"फ़":{"ha":1367,"x_min":-19,"x_max":1386,"o":"m 826 819 l 826 642 q 910 703 860 682 q 1026 725 961 725 q 1176 683 1113 725 q 1272 570 1239 642 q 1304 413 1304 499 q 1268 240 1304 313 q 1167 128 1232 167 q 1018 90 1101 90 q 913 106 960 90 l 913 297 q 950 292 938 292 q 1022 322 996 292 q 1049 400 1049 353 q 1021 481 1049 449 q 944 513 993 513 q 857 471 888 513 q 826 358 826 429 l 826 0 l 575 0 l 575 274 q 389 206 507 206 q 224 251 292 206 q 121 375 156 296 q 86 556 86 454 l 86 819 l -19 819 l -19 1028 l 1386 1028 l 1386 819 l 826 819 m 575 819 l 338 819 l 338 556 q 367 454 338 492 q 456 417 396 417 q 544 455 513 417 q 575 550 575 493 l 575 819 m 300 -140 q 199 -99 240 -140 q 158 0 158 -58 q 199 103 158 61 q 300 144 240 144 q 401 103 360 144 q 443 0 443 61 q 401 -99 443 -58 q 300 -140 360 -140 z "},"ऱ":{"ha":735,"x_min":-19,"x_max":754,"o":"m 653 765 q 579 501 653 599 q 326 399 506 403 l 326 278 q 342 222 326 243 q 388 200 357 200 q 431 221 415 200 q 447 275 447 242 l 447 317 l 688 317 q 689 283 689 301 q 610 67 689 147 q 393 -12 532 -12 q 222 27 293 -12 q 114 135 150 67 q 78 290 78 204 l 78 600 l 217 600 q 360 642 319 600 q 401 765 401 685 l 401 819 l -19 819 l -19 1028 l 754 1028 l 754 819 l 653 819 l 653 765 m 147 -318 q 47 -277 88 -318 q 6 -178 6 -236 q 47 -75 6 -117 q 147 -33 88 -33 q 249 -75 207 -33 q 290 -178 290 -117 q 249 -277 290 -236 q 147 -318 207 -318 z "},"ं":{"ha":0,"x_min":-372,"x_max":-86,"o":"m -231 1119 q -331 1161 -290 1119 q -372 1261 -372 1203 q -331 1363 -372 1321 q -231 1404 -290 1404 q -128 1363 -169 1404 q -86 1261 -86 1321 q -128 1161 -86 1203 q -231 1119 -171 1119 z "},"ँ":{"ha":0,"x_min":-587,"x_max":108,"o":"m -242 1372 q -307 1399 -279 1372 q -335 1465 -335 1426 q -307 1530 -335 1503 q -242 1557 -279 1557 q -175 1530 -201 1557 q -149 1465 -149 1503 q -175 1399 -149 1425 q -242 1372 -201 1372 m -240 1124 q -498 1203 -408 1124 q -587 1432 -587 1283 l -390 1432 q -350 1338 -390 1375 q -240 1300 -310 1300 q -133 1338 -172 1300 q -93 1432 -93 1375 l 108 1432 q 18 1203 108 1283 q -240 1124 -72 1124 z "},"ः":{"ha":410,"x_min":63,"x_max":347,"o":"m 206 499 q 104 540 146 499 q 63 640 63 582 q 104 740 63 699 q 206 782 146 782 q 306 740 264 782 q 347 640 347 699 q 306 540 347 582 q 206 499 264 499 m 206 101 q 104 142 146 101 q 63 242 63 183 q 104 343 63 301 q 206 385 146 385 q 306 343 264 385 q 347 242 347 301 q 306 142 347 183 q 206 101 264 101 z "},"ऽ":{"ha":839,"x_min":71,"x_max":729,"o":"m 71 268 l 399 268 q 460 310 460 268 q 436 358 460 335 q 363 419 413 382 q 261 505 301 467 q 191 599 221 543 q 161 725 161 654 q 227 879 161 825 q 403 933 293 933 l 729 933 l 729 722 l 467 722 q 430 715 443 722 q 417 686 417 708 q 439 640 417 663 q 513 579 461 618 q 615 495 574 533 q 685 401 656 457 q 715 272 715 344 q 645 115 715 172 q 465 58 575 58 l 71 58 l 71 268 z "},"्":{"ha":0,"x_min":-347,"x_max":90,"o":"m -347 -74 l -99 -74 l 90 -393 l -165 -393 l -347 -74 z "},"़":{"ha":0,"x_min":-501,"x_max":-217,"o":"m -360 -415 q -460 -374 -419 -415 q -501 -275 -501 -333 q -460 -172 -501 -214 q -360 -131 -419 -131 q -258 -172 -300 -131 q -217 -275 -217 -214 q -258 -374 -217 -333 q -360 -415 -300 -415 z "},"०":{"ha":907,"x_min":51,"x_max":858,"o":"m 51 503 q 149 139 51 274 q 454 4 247 4 q 760 139 661 4 q 858 503 858 274 q 760 865 858 731 q 454 1000 661 1000 q 149 866 247 1000 q 51 503 51 732 m 589 503 q 562 325 589 388 q 454 263 535 263 q 347 325 374 263 q 319 503 319 388 q 347 679 319 617 q 454 742 374 742 q 562 679 535 742 q 589 503 589 617 z "},"१":{"ha":524,"x_min":15,"x_max":449,"o":"m 15 726 l 15 983 l 449 983 l 449 0 l 163 0 l 163 726 l 15 726 z "},"२":{"ha":786,"x_min":42,"x_max":753,"o":"m 43 217 q 347 474 233 357 q 461 686 461 592 q 388 778 461 778 q 327 746 346 778 q 307 640 308 714 l 42 640 q 153 916 50 825 q 410 1007 256 1007 q 658 924 578 1007 q 739 713 739 840 q 641 449 739 575 q 400 233 543 322 l 753 233 l 753 13 l 43 13 l 43 217 z "},"३":{"ha":847,"x_min":54,"x_max":774,"o":"m 419 1032 q 602 995 526 1032 q 717 895 678 958 q 756 753 756 832 q 708 599 756 657 q 596 526 661 542 l 596 521 q 774 285 774 457 q 733 131 774 197 q 617 27 693 64 q 436 -10 542 -10 q 160 75 261 -10 q 54 338 60 160 l 321 338 q 425 217 318 217 q 485 241 463 217 q 508 304 508 265 q 474 379 508 354 q 365 404 440 404 l 317 404 l 317 625 l 364 625 q 454 644 418 625 q 490 719 490 663 q 469 784 490 763 q 414 806 449 806 q 355 776 375 806 q 332 700 335 746 l 67 700 q 163 947 72 861 q 419 1032 254 1032 z "},"४":{"ha":956,"x_min":67,"x_max":900,"o":"m 67 167 l 67 394 l 497 997 l 792 997 l 792 403 l 900 403 l 900 167 l 792 167 l 792 0 l 517 0 l 517 167 l 67 167 m 538 685 l 342 403 l 538 403 l 538 685 z "},"५":{"ha":906,"x_min":125,"x_max":847,"o":"m 797 771 l 375 771 l 375 613 q 451 658 404 642 q 554 675 497 675 q 717 631 651 675 q 815 512 783 586 q 847 349 847 438 q 756 92 847 185 q 499 -1 664 -1 q 299 39 383 -1 q 169 151 214 79 q 125 318 125 224 l 392 318 q 418 258 396 283 q 485 233 440 233 q 558 266 533 233 q 582 353 582 299 q 556 433 582 406 q 482 461 529 461 q 423 444 446 461 q 394 401 400 428 l 128 401 l 128 1011 l 797 1011 l 797 771 z "},"६":{"ha":876,"x_min":75,"x_max":813,"o":"m 532 710 q 501 785 524 760 q 435 810 478 810 q 343 746 369 810 q 318 549 317 682 q 395 624 342 596 q 515 651 449 651 q 732 568 651 651 q 813 329 813 485 q 770 151 813 228 q 649 33 728 75 q 460 -10 569 -10 q 159 124 243 -10 q 75 496 75 258 q 113 799 75 682 q 234 972 151 915 q 451 1028 317 1028 q 694 937 611 1028 q 786 710 776 846 l 532 710 m 338 336 q 367 254 338 283 q 450 225 396 225 q 528 252 500 225 q 557 333 557 279 q 528 414 557 386 q 449 442 499 442 q 369 414 400 442 q 338 336 338 386 z "},"७":{"ha":710,"x_min":26,"x_max":690,"o":"m 690 793 l 346 0 l 64 0 l 413 760 l 26 760 l 26 993 l 690 993 l 690 793 z "},"८":{"ha":904,"x_min":68,"x_max":835,"o":"m 90 764 q 131 898 90 835 q 253 1001 171 961 q 451 1042 335 1042 q 650 1001 568 1042 q 772 898 732 961 q 813 764 813 835 q 778 635 813 689 q 682 551 744 581 q 835 304 835 475 q 783 128 835 201 q 644 19 732 56 q 451 -18 557 -18 q 258 19 346 -18 q 119 128 171 56 q 68 304 68 201 q 221 551 68 475 q 124 635 158 582 q 90 764 90 689 m 360 718 q 385 644 360 669 q 451 618 410 618 q 518 644 493 618 q 543 718 543 669 q 517 793 543 765 q 451 821 492 821 q 385 793 411 821 q 360 718 360 765 m 333 319 q 365 237 333 268 q 451 206 396 206 q 539 237 507 206 q 571 319 571 268 q 538 403 571 372 q 451 435 504 435 q 366 403 399 435 q 333 319 333 372 z "},"९":{"ha":832,"x_min":47,"x_max":783,"o":"m 328 308 q 360 233 336 258 q 428 208 385 208 q 518 272 493 208 q 540 469 543 336 q 464 394 517 422 q 343 367 411 367 q 127 450 207 367 q 47 689 47 533 q 90 867 47 790 q 211 985 132 943 q 400 1028 290 1028 q 634 965 550 1028 q 751 795 718 903 q 783 533 783 688 q 702 127 783 264 q 428 -10 621 -10 q 240 35 318 -10 q 119 151 161 79 q 72 308 78 224 l 328 308 m 521 682 q 492 764 521 735 q 410 793 464 793 q 331 766 360 793 q 301 685 301 739 q 331 605 301 633 q 411 576 361 576 q 490 604 458 576 q 521 682 521 632 z "},"ॐ":{"ha":1496,"x_min":90,"x_max":1404,"o":"m 774 1247 q 709 1274 736 1247 q 682 1340 682 1301 q 709 1407 682 1379 q 774 1435 736 1435 q 840 1408 813 1435 q 867 1340 867 1381 q 840 1274 867 1301 q 774 1247 813 1247 m 774 1000 q 516 1080 606 1000 q 426 1308 426 1160 l 625 1308 q 665 1215 625 1251 q 774 1178 706 1178 q 883 1215 843 1178 q 922 1308 922 1251 l 1124 1308 q 1033 1080 1124 1160 q 774 1000 942 1000 m 1090 946 q 1329 859 1254 946 q 1404 603 1404 772 l 1404 440 q 1304 126 1404 235 q 1021 18 1204 18 q 878 32 953 18 l 878 239 l 910 235 q 975 229 957 229 q 1120 285 1079 229 q 1161 450 1161 342 l 1161 638 q 1090 735 1161 735 q 1035 708 1051 735 q 1019 635 1019 682 q 992 450 1019 518 q 899 350 964 382 q 715 315 833 318 q 717 286 717 306 q 635 88 717 161 q 421 14 553 14 q 246 51 321 14 q 131 154 171 88 q 90 308 90 221 l 324 308 q 346 251 324 275 q 406 228 368 228 q 466 251 444 228 q 488 313 488 274 q 460 378 488 353 q 379 404 432 404 l 314 404 l 314 615 l 379 615 q 451 638 424 615 q 479 697 479 660 q 458 753 479 732 q 404 774 438 774 q 350 753 371 774 q 329 700 329 733 l 97 700 q 135 850 97 785 q 244 951 174 915 q 410 988 315 988 q 625 917 544 988 q 706 729 706 847 q 669 599 706 654 q 565 519 632 544 l 565 515 l 582 510 l 657 510 q 756 535 728 510 q 785 636 785 561 q 856 868 785 790 q 1090 946 926 946 z "},"॰":{"ha":654,"x_min":86,"x_max":568,"o":"m 568 461 q 501 292 568 358 q 329 226 435 226 q 203 256 258 226 q 117 340 147 286 q 86 461 86 393 q 154 631 86 565 q 329 697 222 697 q 501 631 435 697 q 568 461 568 565 m 236 461 q 263 398 236 422 q 329 374 289 374 q 392 398 368 374 q 417 461 417 422 q 392 525 417 500 q 329 550 368 550 q 263 525 289 550 q 236 461 236 500 z "},"।":{"ha":506,"x_min":200,"x_max":449,"o":"m 449 0 l 200 0 l 200 1028 l 449 1028 l 449 0 z "},"॥":{"ha":911,"x_min":200,"x_max":854,"o":"m 449 0 l 200 0 l 200 1028 l 449 1028 l 449 0 m 854 0 l 606 0 l 606 1028 l 854 1028 l 854 0 z "},"₨":{"ha":1665,"x_min":75,"x_max":1629,"o":"m 874 667 q 817 488 874 564 q 653 382 760 413 l 876 0 l 575 0 l 376 363 l 349 363 l 349 0 l 75 0 l 75 983 l 507 983 q 708 942 625 983 q 832 829 790 901 q 874 667 874 757 m 1160 539 q 1195 499 1160 513 q 1311 469 1231 486 q 1470 431 1406 453 q 1582 363 1535 410 q 1629 233 1629 315 q 1592 109 1629 164 q 1485 22 1556 54 q 1315 -10 1414 -10 q 1049 61 1150 -10 q 925 264 947 132 l 1192 264 q 1231 210 1197 228 q 1313 192 1264 192 q 1383 239 1383 192 q 1347 282 1383 268 q 1229 313 1311 296 q 1072 351 1133 331 q 964 418 1010 371 q 918 549 918 465 q 956 670 918 615 q 1067 757 993 725 q 1243 789 1140 789 q 1503 714 1407 789 q 1622 515 1599 639 l 1354 515 q 1315 568 1346 550 q 1239 586 1283 586 q 1181 574 1203 586 q 1160 539 1160 563 m 349 546 l 483 546 q 597 649 597 546 q 569 725 597 697 q 483 753 540 753 l 349 753 l 349 546 z "},"₹":{"ha":818,"x_min":47,"x_max":771,"o":"m 671 803 l 671 735 l 771 735 l 771 581 l 664 581 q 558 397 644 465 q 313 328 471 328 l 313 282 q 382 190 313 190 q 435 214 419 190 q 450 289 450 238 l 703 289 q 618 67 696 149 q 394 -14 540 -14 q 57 326 57 -14 l 57 503 q 267 508 199 503 q 368 529 335 513 q 411 581 401 546 l 47 581 l 47 735 l 417 735 l 417 803 l 47 803 l 47 983 l 771 983 l 771 803 l 671 803 z "},"‌":{"ha":0,"x_min":-32,"x_max":33,"o":"m -32 1126 l 33 1126 l 33 -319 l -32 -319 l -32 1126 z "},"‍":{"ha":0,"x_min":-178,"x_max":178,"o":"m 32 882 l 32 -319 l -33 -319 l -33 882 l -129 781 l -175 826 l -46 956 l -178 1088 l -132 1133 l 0 1001 l 133 1133 l 178 1089 l 44 956 l 178 824 l 132 778 l 32 882 z "},"◌":{"ha":904,"x_min":69,"x_max":835,"o":"m 418 633 q 375 649 392 633 q 358 692 358 665 q 375 734 358 718 q 418 750 392 750 q 461 734 444 750 q 478 692 478 718 q 461 649 478 665 q 418 633 444 633 m 586 613 q 543 628 560 613 q 526 671 526 644 q 543 713 526 697 q 586 729 560 729 q 629 713 613 729 q 646 671 646 697 q 629 628 646 644 q 586 613 613 613 m 256 575 q 213 591 229 575 q 196 633 196 607 q 213 676 196 660 q 256 692 229 692 q 299 676 282 692 q 315 633 315 660 q 299 591 315 607 q 256 575 282 575 m 714 510 q 671 526 688 510 q 654 568 654 542 q 671 610 654 594 q 714 626 688 626 q 757 610 740 626 q 774 568 774 594 q 757 526 774 542 q 714 510 740 510 m 150 438 q 107 453 124 438 q 90 496 90 469 q 107 538 90 522 q 150 554 124 554 q 193 538 176 554 q 210 496 210 522 q 193 453 210 469 q 150 438 176 438 m 775 351 q 732 367 749 351 q 715 410 715 383 q 732 452 715 436 q 775 468 749 468 q 818 452 801 468 q 835 410 835 436 q 818 367 835 383 q 775 351 801 351 m 129 269 q 86 285 103 269 q 69 328 69 301 q 86 370 69 354 q 129 386 103 386 q 172 370 156 386 q 189 328 189 354 q 172 285 189 301 q 129 269 156 269 m 761 185 q 718 201 735 185 q 701 243 701 217 q 718 285 701 269 q 761 301 735 301 q 804 285 788 301 q 821 243 821 269 q 804 201 821 217 q 761 185 788 185 m 192 113 q 149 128 165 113 q 132 171 132 144 q 149 213 132 197 q 192 229 165 229 q 235 213 218 229 q 251 171 251 197 q 235 128 251 144 q 192 113 218 113 m 660 51 q 617 67 633 51 q 600 110 600 83 q 617 152 600 136 q 660 168 633 168 q 703 152 686 168 q 719 110 719 136 q 703 67 719 83 q 660 51 686 51 m 328 7 q 285 23 301 7 q 268 65 268 39 q 285 108 268 92 q 328 124 301 124 q 371 108 354 124 q 388 65 388 92 q 371 23 388 39 q 328 7 354 7 m 500 -12 q 457 3 474 -12 q 440 46 440 19 q 457 88 440 72 q 500 104 474 104 q 543 88 526 104 q 560 46 560 72 q 543 3 560 19 q 500 -12 526 -12 z "},"!":{"ha":568,"x_min":149,"x_max":447,"o":"m 447 1040 l 414 371 l 181 371 l 149 1040 l 447 1040 m 436 267 l 436 0 l 160 0 l 160 267 l 436 267 z "},"\"":{"ha":629,"x_min":61,"x_max":568,"o":"m 279 1114 l 263 797 l 81 797 l 61 1114 l 279 1114 m 568 1114 l 551 797 l 368 797 l 350 1114 l 568 1114 z "},"#":{"ha":1263,"x_min":19,"x_max":1244,"o":"m 1024 593 l 992 443 l 1153 443 l 1153 194 l 939 194 l 897 0 l 643 0 l 685 194 l 472 194 l 431 0 l 178 0 l 219 194 l 19 194 l 19 443 l 272 443 l 304 593 l 111 593 l 111 842 l 357 842 l 397 1028 l 650 1028 l 610 842 l 822 842 l 863 1028 l 1117 1028 l 1076 842 l 1244 842 l 1244 593 l 1024 593 m 769 593 l 557 593 l 525 443 l 738 443 l 769 593 z "},"$":{"ha":901,"x_min":47,"x_max":857,"o":"m 857 283 q 813 135 857 201 q 684 30 769 69 q 479 -10 599 -10 l 479 -121 l 414 -121 l 414 -7 q 158 88 257 7 q 50 306 60 168 l 340 306 q 414 206 346 228 l 414 386 q 382 396 396 390 q 212 455 279 425 q 96 546 144 485 q 47 707 47 607 q 96 860 47 796 q 228 960 144 925 q 414 999 311 994 l 414 1111 l 479 1111 l 479 997 q 735 908 642 986 q 839 694 829 829 l 546 694 q 479 785 538 765 l 479 607 q 529 592 513 596 q 697 529 632 560 q 810 439 763 499 q 857 283 857 379 m 340 719 q 414 632 340 667 l 414 790 q 340 719 340 783 m 479 197 q 542 222 518 200 q 565 278 565 243 q 543 328 565 307 q 479 364 521 349 l 479 197 z "},"%":{"ha":1181,"x_min":32,"x_max":1150,"o":"m 274 1000 q 446 937 379 1000 q 513 757 513 874 q 447 579 513 642 q 274 517 381 517 q 99 579 167 517 q 32 757 32 642 q 99 937 32 874 q 274 1000 167 1000 m 985 986 l 458 0 l 197 0 l 724 986 l 985 986 m 211 757 q 227 697 211 718 q 271 676 243 676 q 317 698 300 676 q 335 757 335 719 q 317 819 335 797 q 271 840 300 840 q 227 819 243 840 q 211 757 211 797 m 910 471 q 1083 408 1017 471 q 1150 229 1150 346 q 1083 49 1150 113 q 910 -14 1017 -14 q 736 49 803 -14 q 669 229 669 113 q 736 408 669 346 q 910 471 803 471 m 847 229 q 863 167 847 189 q 908 146 879 146 q 954 167 938 146 q 971 229 971 189 q 954 290 971 268 q 908 311 938 311 q 863 290 879 311 q 847 229 847 268 z "},"&":{"ha":968,"x_min":38,"x_max":965,"o":"m 693 0 l 608 107 q 583 79 601 97 q 490 14 546 38 q 363 -10 433 -10 q 186 31 260 -10 q 75 142 113 72 q 38 299 38 213 q 97 490 38 413 q 249 588 156 567 l 232 617 q 199 751 199 686 q 233 869 199 814 q 335 959 268 925 q 497 993 403 993 q 797 806 733 993 q 817 654 821 735 l 563 654 q 558 708 563 688 q 503 767 554 767 q 467 754 481 767 q 454 721 454 742 q 462 688 454 703 q 490 643 469 672 l 965 0 l 693 0 m 364 217 q 431 241 406 217 q 457 304 457 265 q 429 367 457 343 q 361 392 401 392 q 296 369 321 392 q 271 306 271 346 q 297 241 271 265 q 364 217 324 217 z "},"'":{"ha":343,"x_min":61,"x_max":281,"o":"m 281 1114 l 264 797 l 81 797 l 61 1114 l 281 1114 z "},"(":{"ha":583,"x_min":28,"x_max":672,"o":"m 28 558 q 133 1033 28 821 q 408 1378 238 1246 l 672 1378 l 672 1353 q 385 994 479 1192 q 290 558 290 797 q 385 122 290 319 q 672 -236 479 -75 l 672 -261 l 408 -261 q 133 83 238 -129 q 28 558 28 294 z "},")":{"ha":588,"x_min":-86,"x_max":560,"o":"m 560 560 q 454 83 560 296 q 178 -261 349 -129 l -86 -261 l -86 -236 q 202 122 107 -75 q 297 558 297 318 q 202 995 297 799 q -86 1353 107 1192 l -86 1378 l 178 1378 q 454 1034 349 1246 q 560 560 560 822 z "},"*":{"ha":757,"x_min":110,"x_max":660,"o":"m 574 975 l 660 821 l 497 765 l 660 713 l 567 551 l 438 672 l 474 500 l 296 500 l 332 672 l 204 550 l 110 714 l 272 769 l 111 819 l 197 975 l 333 857 l 294 1031 l 475 1031 l 438 857 l 574 975 z "},"+":{"ha":772,"x_min":32,"x_max":740,"o":"m 740 354 l 517 354 l 517 125 l 254 125 l 254 354 l 32 354 l 32 604 l 254 604 l 254 833 l 517 833 l 517 604 l 740 604 l 740 354 z "},",":{"ha":357,"x_min":38,"x_max":303,"o":"m 254 165 q 290 73 278 124 q 303 -29 303 22 q 247 -202 303 -133 q 74 -271 192 -271 l 74 -172 q 131 -156 113 -172 q 149 -90 149 -139 l 149 -75 l 38 -75 l 38 165 l 254 165 z "},"-":{"ha":778,"x_min":19,"x_max":649,"o":"m 649 594 l 649 368 l 19 368 l 19 594 l 649 594 z "},".":{"ha":357,"x_min":39,"x_max":315,"o":"m 315 267 l 315 0 l 39 0 l 39 267 l 315 267 z "},"/":{"ha":547,"x_min":-39,"x_max":594,"o":"m 594 1324 l 224 -268 l -39 -268 l 333 1324 l 594 1324 z "},":":{"ha":424,"x_min":81,"x_max":357,"o":"m 357 821 l 357 554 l 81 554 l 81 821 l 357 821 m 357 267 l 357 0 l 81 0 l 81 267 l 357 267 z "},";":{"ha":550,"x_min":146,"x_max":426,"o":"m 422 808 l 422 542 l 146 542 l 146 808 l 422 808 m 378 165 q 414 73 401 124 q 426 -29 426 22 q 371 -202 426 -133 q 197 -271 315 -271 l 197 -172 q 254 -156 236 -172 q 272 -90 272 -139 l 272 -75 l 161 -75 l 161 165 l 378 165 z "},"<":{"ha":671,"x_min":32,"x_max":639,"o":"m 299 176 l 32 479 l 299 783 l 639 783 l 372 479 l 639 176 l 299 176 z "},"=":{"ha":858,"x_min":32,"x_max":828,"o":"m 828 788 l 828 540 l 32 540 l 32 788 l 828 788 m 828 417 l 828 169 l 32 169 l 32 417 l 828 417 z "},">":{"ha":671,"x_min":32,"x_max":639,"o":"m 32 783 l 372 783 l 639 479 l 372 176 l 32 176 l 299 479 l 32 783 z "},"?":{"ha":738,"x_min":26,"x_max":707,"o":"m 376 1063 q 617 987 526 1063 q 707 767 707 911 q 622 564 707 639 q 400 486 538 489 l 400 374 l 143 374 l 143 660 l 249 660 q 390 683 340 660 q 439 765 439 707 q 419 822 439 801 q 367 842 399 842 q 308 818 329 842 q 288 757 288 794 l 29 757 q 65 911 26 842 q 182 1022 103 981 q 376 1063 261 1063 m 411 267 l 411 0 l 135 0 l 135 267 l 411 267 z "},"@":{"ha":1822,"x_min":61,"x_max":1786,"o":"m 1021 1157 q 1425 1082 1253 1157 q 1692 860 1597 1007 q 1786 501 1786 713 q 1722 244 1786 361 q 1553 58 1658 126 q 1326 -10 1447 -10 q 1156 34 1225 -10 q 1067 167 1086 78 q 955 35 1022 81 q 789 -10 888 -10 q 638 31 704 -10 q 535 147 572 72 q 499 318 499 221 q 503 379 499 349 q 577 589 514 497 q 742 733 640 681 q 968 785 844 785 q 1213 709 1119 785 q 1307 492 1307 633 q 1304 442 1307 475 l 1289 329 q 1286 296 1286 304 q 1301 244 1286 260 q 1346 228 1315 228 q 1425 257 1388 228 q 1486 345 1463 286 q 1510 492 1510 404 q 1449 725 1510 625 q 1268 880 1388 825 q 978 935 1149 935 q 624 853 771 935 q 401 631 476 771 q 325 317 325 490 q 465 -39 325 92 q 893 -167 606 -169 l 840 -387 q 413 -299 588 -385 q 150 -56 239 -212 q 61 317 61 101 q 192 768 61 578 q 543 1058 324 958 q 1021 1157 763 1157 m 1042 424 q 1006 520 1042 490 q 919 550 969 550 q 810 503 858 550 q 763 357 763 456 q 799 259 763 290 q 886 228 835 228 q 994 275 946 228 q 1042 424 1042 322 z "},"A":{"ha":1044,"x_min":6,"x_max":1039,"o":"m 696 164 l 347 164 l 293 0 l 6 0 l 365 979 l 681 979 l 1039 0 l 750 0 l 696 164 m 628 369 l 522 689 l 415 369 l 628 369 z "},"B":{"ha":929,"x_min":75,"x_max":889,"o":"m 700 506 q 838 419 788 485 q 889 268 889 354 q 804 70 889 140 q 561 0 719 0 l 75 0 l 75 983 l 550 983 q 783 918 699 983 q 867 729 867 853 q 821 583 867 642 q 700 506 775 524 m 349 590 l 486 590 q 589 676 589 590 q 485 765 589 765 l 349 765 l 349 590 m 503 219 q 610 308 610 219 q 503 400 610 400 l 349 400 l 349 219 l 503 219 z "},"C":{"ha":1049,"x_min":47,"x_max":1001,"o":"m 529 993 q 755 947 656 993 q 917 815 854 900 q 1001 617 979 729 l 714 617 q 640 708 690 675 q 525 740 590 740 q 379 673 435 740 q 324 493 324 606 q 379 313 324 381 q 525 244 435 244 q 640 278 590 244 q 714 369 690 311 l 1001 369 q 844 95 968 197 q 529 -7 719 -7 q 274 56 383 -7 q 106 233 165 119 q 47 493 47 347 q 106 753 47 639 q 274 930 165 867 q 529 993 383 993 z "},"D":{"ha":1025,"x_min":75,"x_max":978,"o":"m 978 494 q 915 240 978 351 q 738 64 853 128 q 467 0 622 0 l 75 0 l 75 983 l 467 983 q 738 922 622 983 q 916 749 854 860 q 978 494 978 638 m 442 244 q 632 310 563 244 q 701 494 701 375 q 632 678 701 613 q 442 744 563 744 l 349 744 l 349 244 l 442 244 z "},"E":{"ha":758,"x_min":75,"x_max":708,"o":"m 349 765 l 349 603 l 667 603 l 667 396 l 349 396 l 349 218 l 708 218 l 708 0 l 75 0 l 75 983 l 708 983 l 708 765 l 349 765 z "},"F":{"ha":781,"x_min":75,"x_max":743,"o":"m 743 983 l 743 765 l 349 765 l 349 590 l 643 590 l 643 385 l 349 385 l 349 0 l 75 0 l 75 983 l 743 983 z "},"G":{"ha":1051,"x_min":47,"x_max":1004,"o":"m 540 992 q 850 900 729 992 q 996 653 971 808 l 708 653 q 643 717 686 693 q 542 740 600 740 q 383 673 442 740 q 324 493 324 606 q 387 299 324 365 q 572 233 450 233 q 694 267 642 233 q 778 365 747 300 l 506 365 l 506 560 l 1004 560 l 1004 289 q 835 80 951 167 q 543 -7 719 -7 q 281 56 393 -7 q 108 233 168 119 q 47 493 47 347 q 108 752 47 639 q 279 928 168 865 q 540 992 390 992 z "},"H":{"ha":1031,"x_min":75,"x_max":954,"o":"m 954 983 l 954 0 l 682 0 l 682 397 l 349 397 l 349 0 l 75 0 l 75 983 l 349 983 l 349 615 l 682 615 l 682 983 l 954 983 z "},"I":{"ha":425,"x_min":75,"x_max":349,"o":"m 349 983 l 349 0 l 75 0 l 75 983 l 349 983 z "},"J":{"ha":792,"x_min":18,"x_max":721,"o":"m 721 983 l 721 331 q 633 77 721 164 q 388 -10 546 -10 q 117 85 217 -10 q 18 360 18 179 l 288 360 q 375 236 288 236 q 449 331 449 236 l 449 983 l 721 983 z "},"K":{"ha":1003,"x_min":75,"x_max":988,"o":"m 607 503 l 988 0 l 658 0 l 349 435 l 349 0 l 75 0 l 75 983 l 349 983 l 349 558 l 661 983 l 988 983 l 607 503 z "},"L":{"ha":683,"x_min":75,"x_max":656,"o":"m 349 207 l 656 207 l 656 0 l 75 0 l 75 983 l 349 983 l 349 207 z "},"M":{"ha":1294,"x_min":75,"x_max":1218,"o":"m 1218 979 l 1218 0 l 947 0 l 947 556 l 765 0 l 531 0 l 349 556 l 349 0 l 75 0 l 75 979 l 410 979 l 651 343 l 886 979 l 1218 979 z "},"N":{"ha":1060,"x_min":75,"x_max":983,"o":"m 983 0 l 710 0 l 349 549 l 349 0 l 75 0 l 75 982 l 349 982 l 710 426 l 710 982 l 983 982 l 983 0 z "},"O":{"ha":1096,"x_min":47,"x_max":1049,"o":"m 549 999 q 802 934 688 999 q 983 754 917 869 q 1049 494 1049 639 q 982 235 1049 350 q 801 55 915 119 q 549 -10 686 -10 q 296 55 411 -10 q 114 235 181 119 q 47 494 47 350 q 114 754 47 639 q 296 934 181 869 q 549 999 411 999 m 549 746 q 385 678 444 746 q 325 494 325 611 q 385 313 325 381 q 549 244 444 244 q 711 313 651 244 q 771 494 771 381 q 712 678 771 611 q 549 746 653 746 z "},"P":{"ha":881,"x_min":75,"x_max":849,"o":"m 349 329 l 349 0 l 75 0 l 75 983 l 483 983 q 755 894 661 983 q 849 654 849 804 q 807 488 849 561 q 683 372 765 414 q 483 329 600 329 l 349 329 m 453 544 q 572 654 572 544 q 453 763 572 763 l 349 763 l 349 544 l 453 544 z "},"Q":{"ha":1096,"x_min":47,"x_max":1075,"o":"m 750 -165 l 640 -1 q 549 -10 597 -10 q 296 55 411 -10 q 114 235 181 119 q 47 494 47 350 q 114 754 47 639 q 296 934 181 869 q 549 999 411 999 q 802 934 688 999 q 983 754 917 869 q 1049 494 1049 639 q 1000 270 1049 372 q 865 99 951 168 l 1075 -165 l 750 -165 m 325 494 q 385 313 325 381 q 549 244 444 244 q 711 313 651 244 q 771 494 771 381 q 712 678 771 611 q 549 746 653 746 q 385 678 444 746 q 325 494 325 611 z "},"R":{"ha":907,"x_min":75,"x_max":876,"o":"m 575 0 l 376 363 l 349 363 l 349 0 l 75 0 l 75 983 l 507 983 q 708 942 625 983 q 832 829 790 901 q 874 667 874 757 q 817 488 874 564 q 653 382 760 413 l 876 0 l 575 0 m 349 546 l 483 546 q 597 649 597 546 q 569 725 597 697 q 483 753 540 753 l 349 753 l 349 546 z "},"S":{"ha":853,"x_min":47,"x_max":808,"o":"m 808 283 q 767 135 808 201 q 644 29 725 68 q 451 -10 564 -10 q 170 72 281 -10 q 50 306 60 154 l 340 306 q 372 229 344 254 q 440 204 400 204 q 497 222 476 204 q 517 274 517 240 q 476 342 517 318 q 349 396 436 367 q 195 458 256 428 q 91 550 135 489 q 47 707 47 611 q 94 865 47 799 q 224 965 142 931 q 410 999 306 999 q 680 919 579 999 q 790 694 781 839 l 497 694 q 469 763 492 740 q 408 785 446 785 q 358 768 376 785 q 340 718 340 751 q 380 653 340 676 q 504 600 419 629 q 658 535 597 567 q 764 442 719 503 q 808 283 808 381 z "},"T":{"ha":831,"x_min":15,"x_max":815,"o":"m 815 983 l 815 765 l 550 765 l 550 0 l 278 0 l 278 765 l 15 765 l 15 983 l 815 983 z "},"U":{"ha":983,"x_min":69,"x_max":914,"o":"m 342 983 l 342 422 q 378 294 342 339 q 490 249 415 249 q 603 294 565 249 q 642 422 642 340 l 642 983 l 914 983 l 914 422 q 858 186 914 283 q 704 40 801 89 q 485 -10 607 -10 q 269 39 363 -10 q 122 185 175 88 q 69 422 69 282 l 69 983 l 342 983 z "},"V":{"ha":1035,"x_min":6,"x_max":1029,"o":"m 296 983 l 518 275 l 739 983 l 1029 983 l 693 0 l 342 0 l 6 983 l 296 983 z "},"W":{"ha":1494,"x_min":43,"x_max":1451,"o":"m 1451 983 l 1222 0 l 883 0 l 747 607 l 611 0 l 272 0 l 43 983 l 338 983 l 446 314 l 597 983 l 896 983 l 1049 314 l 1157 983 l 1451 983 z "},"X":{"ha":1015,"x_min":6,"x_max":1010,"o":"m 686 0 l 493 279 l 329 0 l 18 0 l 336 506 l 6 983 l 329 983 l 517 713 l 675 983 l 988 983 l 672 488 l 1010 0 l 686 0 z "},"Y":{"ha":978,"x_min":6,"x_max":972,"o":"m 972 983 l 625 313 l 625 0 l 353 0 l 353 313 l 6 983 l 318 983 l 492 608 l 664 983 l 972 983 z "},"Z":{"ha":850,"x_min":67,"x_max":783,"o":"m 369 218 l 783 218 l 783 0 l 67 0 l 67 207 l 474 765 l 69 765 l 69 983 l 782 983 l 782 776 l 369 218 z "},"[":{"ha":686,"x_min":131,"x_max":611,"o":"m 611 1324 l 611 1104 l 386 1104 l 386 -50 l 611 -50 l 611 -269 l 131 -269 l 131 1324 l 611 1324 z "},"\\":{"ha":1150,"x_min":249,"x_max":863,"o":"m 601 -268 l 249 1324 l 510 1324 l 863 -268 l 601 -268 z "},"]":{"ha":682,"x_min":72,"x_max":553,"o":"m 72 -269 l 72 -50 l 299 -50 l 299 1104 l 72 1104 l 72 1324 l 553 1324 l 553 -269 l 72 -269 z "},"^":{"ha":1017,"x_min":38,"x_max":979,"o":"m 308 228 l 38 228 l 376 983 l 643 983 l 979 228 l 708 228 l 510 672 l 308 228 z "},"_":{"ha":1021,"x_min":67,"x_max":965,"o":"m 965 -57 l 965 -322 l 67 -322 l 67 -57 l 965 -57 z "},"`":{"ha":440,"x_min":19,"x_max":367,"o":"m 367 1017 l 367 833 l 19 971 l 19 1174 l 367 1017 z "},"a":{"ha":943,"x_min":35,"x_max":868,"o":"m 364 789 q 506 753 446 789 q 596 656 567 718 l 596 779 l 868 779 l 868 0 l 596 0 l 596 124 q 506 26 567 61 q 364 -10 446 -10 q 196 38 271 -10 q 78 177 121 86 q 35 390 35 268 q 78 603 35 513 q 196 741 121 693 q 364 789 271 789 m 454 550 q 351 508 390 550 q 311 390 311 465 q 351 272 311 314 q 454 229 390 229 q 556 272 515 229 q 596 390 596 315 q 556 507 596 464 q 454 550 515 550 z "},"b":{"ha":943,"x_min":75,"x_max":908,"o":"m 579 789 q 747 741 672 789 q 865 603 822 693 q 908 390 908 513 q 865 177 908 268 q 747 38 822 86 q 579 -10 672 -10 q 438 26 497 -10 q 349 124 378 61 l 349 0 l 75 0 l 75 1028 l 349 1028 l 349 656 q 438 753 378 718 q 579 789 497 789 m 489 550 q 388 507 428 550 q 347 390 347 464 q 388 272 347 315 q 489 229 428 229 q 592 272 553 229 q 632 390 632 314 q 592 508 632 465 q 489 550 553 550 z "},"c":{"ha":849,"x_min":35,"x_max":814,"o":"m 431 789 q 685 705 582 789 q 814 472 788 621 l 525 472 q 490 534 515 513 q 424 556 464 556 q 342 513 374 556 q 311 390 311 471 q 342 267 311 308 q 424 225 374 225 q 490 247 464 225 q 525 308 515 268 l 814 308 q 685 75 788 160 q 431 -10 582 -10 q 224 38 314 -10 q 85 177 135 86 q 35 390 35 268 q 85 603 35 513 q 225 741 135 693 q 431 789 315 789 z "},"d":{"ha":943,"x_min":35,"x_max":868,"o":"m 364 789 q 506 753 446 789 q 594 656 565 718 l 594 1028 l 868 1028 l 868 0 l 594 0 l 594 124 q 506 26 565 61 q 364 -10 446 -10 q 196 38 271 -10 q 78 177 121 86 q 35 390 35 268 q 78 603 35 513 q 196 741 121 693 q 364 789 271 789 m 454 550 q 351 508 390 550 q 311 390 311 465 q 351 272 311 314 q 454 229 390 229 q 556 272 515 229 q 596 390 596 315 q 556 507 596 464 q 454 550 515 550 z "},"e":{"ha":858,"x_min":35,"x_max":824,"o":"m 824 404 q 817 340 824 375 l 301 340 q 417 208 308 208 q 483 228 457 208 q 519 279 510 247 l 808 279 q 740 131 793 197 q 607 28 688 65 q 431 -10 526 -10 q 224 38 314 -10 q 85 177 135 86 q 35 390 35 268 q 85 603 35 513 q 225 741 135 693 q 431 789 315 789 q 636 742 547 789 q 774 607 725 694 q 824 404 824 519 m 546 454 q 514 544 547 514 q 431 575 481 575 q 342 544 376 575 q 303 454 308 514 l 546 454 z "},"f":{"ha":524,"x_min":15,"x_max":506,"o":"m 506 860 q 476 861 496 861 q 406 842 428 861 q 379 779 383 824 l 506 779 l 506 551 l 378 551 l 378 0 l 104 0 l 104 551 l 15 551 l 15 779 l 104 779 q 193 1012 104 929 q 449 1094 282 1094 q 506 1092 467 1094 l 506 860 z "},"g":{"ha":943,"x_min":35,"x_max":868,"o":"m 364 789 q 506 753 446 789 q 596 656 567 718 l 596 779 l 868 779 l 868 8 q 826 -188 868 -100 q 697 -329 785 -276 q 476 -382 610 -382 q 187 -297 294 -382 q 61 -65 79 -212 l 329 -65 q 371 -125 339 -104 q 457 -146 403 -146 q 596 8 596 -146 l 596 124 q 506 26 567 61 q 364 -10 446 -10 q 196 38 271 -10 q 78 177 121 86 q 35 390 35 268 q 78 603 35 513 q 196 741 121 693 q 364 789 271 789 m 454 550 q 351 508 390 550 q 311 390 311 465 q 351 272 311 314 q 454 229 390 229 q 556 272 515 229 q 596 390 596 315 q 556 507 596 464 q 454 550 515 550 z "},"h":{"ha":954,"x_min":75,"x_max":883,"o":"m 596 786 q 807 697 731 786 q 883 453 883 607 l 883 0 l 613 0 l 613 418 q 577 524 613 486 q 482 563 542 563 q 385 523 421 563 q 349 414 349 483 l 349 0 l 75 0 l 75 1028 l 349 1028 l 349 649 q 446 749 382 711 q 596 786 510 786 z "},"i":{"ha":425,"x_min":53,"x_max":372,"o":"m 53 994 q 97 1095 53 1056 q 214 1135 142 1135 q 329 1095 286 1135 q 372 994 372 1056 q 328 897 372 936 q 214 858 285 858 q 97 897 142 858 q 53 994 53 936 m 349 779 l 349 0 l 75 0 l 75 779 l 349 779 z "},"j":{"ha":424,"x_min":-46,"x_max":372,"o":"m 213 858 q 97 897 140 858 q 53 994 53 936 q 97 1095 53 1056 q 213 1135 140 1135 q 328 1095 285 1135 q 372 994 372 1056 q 328 897 372 936 q 213 858 285 858 m -46 -139 l 13 -139 q 63 -124 47 -139 q 78 -78 78 -110 l 78 779 l 350 779 l 350 -74 q 50 -372 350 -372 l -46 -372 l -46 -139 z "},"k":{"ha":890,"x_min":75,"x_max":889,"o":"m 561 0 l 349 322 l 349 0 l 75 0 l 75 1028 l 349 1028 l 349 476 l 563 779 l 881 779 l 578 389 l 889 0 l 561 0 z "},"l":{"ha":425,"x_min":75,"x_max":349,"o":"m 349 1028 l 349 0 l 75 0 l 75 1028 l 349 1028 z "},"m":{"ha":1482,"x_min":75,"x_max":1413,"o":"m 1100 786 q 1330 697 1247 786 q 1413 453 1413 608 l 1413 0 l 1140 0 l 1140 418 q 1106 515 1140 481 q 1013 550 1071 550 q 916 515 951 550 q 881 414 881 479 l 881 0 l 608 0 l 608 418 q 574 515 608 481 q 481 550 539 550 q 384 515 419 550 q 349 414 349 479 l 349 0 l 75 0 l 75 779 l 349 779 l 349 660 q 442 752 382 718 q 582 786 501 786 q 736 747 669 786 q 840 636 803 708 q 949 745 881 704 q 1100 786 1017 786 z "},"n":{"ha":954,"x_min":75,"x_max":883,"o":"m 596 786 q 807 697 731 786 q 883 453 883 607 l 883 0 l 613 0 l 613 418 q 577 524 613 486 q 482 563 542 563 q 385 523 421 563 q 349 414 349 483 l 349 0 l 75 0 l 75 779 l 349 779 l 349 649 q 446 749 382 711 q 596 786 510 786 z "},"o":{"ha":885,"x_min":35,"x_max":850,"o":"m 443 789 q 652 741 560 789 q 797 602 744 693 q 850 390 850 511 q 797 178 850 268 q 652 39 744 88 q 443 -10 560 -10 q 233 39 326 -10 q 88 178 140 88 q 35 390 35 268 q 88 603 35 513 q 233 741 140 693 q 443 789 326 789 m 443 553 q 349 511 386 553 q 311 390 311 469 q 349 268 311 310 q 443 226 386 226 q 536 269 499 226 q 574 390 574 311 q 536 511 574 469 q 443 553 499 553 z "},"p":{"ha":943,"x_min":75,"x_max":908,"o":"m 579 789 q 747 741 672 789 q 865 603 822 693 q 908 390 908 513 q 865 177 908 268 q 747 38 822 86 q 579 -10 672 -10 q 438 26 497 -10 q 349 124 378 61 l 349 -372 l 75 -372 l 75 779 l 349 779 l 349 656 q 438 753 378 718 q 579 789 497 789 m 489 550 q 388 507 428 550 q 347 390 347 464 q 388 272 347 315 q 489 229 428 229 q 592 272 553 229 q 632 390 632 314 q 592 508 632 465 q 489 550 553 550 z "},"q":{"ha":943,"x_min":35,"x_max":868,"o":"m 383 785 q 506 762 454 785 q 596 689 558 739 l 596 779 l 868 779 l 868 -372 l 596 -372 l 596 106 q 503 20 554 49 q 383 -8 451 -8 q 209 41 289 -8 q 82 180 129 90 q 35 385 35 269 q 82 591 35 500 q 209 733 129 682 q 383 785 289 785 m 454 549 q 354 507 397 549 q 311 385 311 465 q 353 267 311 306 q 454 229 396 229 q 553 270 510 229 q 596 390 596 311 q 553 509 596 469 q 454 549 510 549 z "},"r":{"ha":626,"x_min":75,"x_max":611,"o":"m 349 633 q 464 744 394 703 q 611 786 533 786 l 611 494 l 532 494 q 394 459 440 494 q 349 336 349 424 l 349 0 l 75 0 l 75 779 l 349 779 l 349 633 z "},"s":{"ha":788,"x_min":49,"x_max":743,"o":"m 371 789 q 617 714 525 789 q 732 515 708 639 l 476 515 q 437 578 467 557 q 364 599 407 599 q 317 585 333 599 q 301 549 301 572 q 335 505 301 519 q 447 472 369 490 q 597 431 538 453 q 699 358 656 408 q 743 224 743 308 q 706 103 743 156 q 597 20 668 50 q 428 -10 525 -10 q 167 61 264 -10 q 49 264 69 132 l 311 264 q 348 200 317 221 q 426 179 379 179 q 475 193 458 179 q 492 229 492 207 q 456 278 492 263 q 343 308 421 293 q 197 348 254 326 q 98 417 140 369 q 56 550 56 465 q 138 722 56 656 q 371 789 219 789 z "},"t":{"ha":589,"x_min":22,"x_max":539,"o":"m 539 233 l 539 0 l 426 0 q 203 71 283 0 q 122 306 122 142 l 122 551 l 22 551 l 22 779 l 122 779 l 122 968 l 396 968 l 396 779 l 536 779 l 536 551 l 396 551 l 396 300 q 412 249 396 264 q 465 233 428 233 l 539 233 z "},"u":{"ha":951,"x_min":67,"x_max":875,"o":"m 875 779 l 875 0 l 603 0 l 603 131 q 506 31 569 68 q 356 -7 442 -7 q 144 83 221 -7 q 67 328 67 172 l 67 779 l 339 779 l 339 361 q 374 256 339 294 q 469 218 410 218 q 567 257 531 218 q 603 367 603 296 l 603 779 l 875 779 z "},"v":{"ha":906,"x_min":14,"x_max":890,"o":"m 453 263 l 600 779 l 890 779 l 622 0 l 283 0 l 14 779 l 306 779 l 453 263 z "},"w":{"ha":1238,"x_min":3,"x_max":1238,"o":"m 1238 779 l 1044 0 l 739 0 l 621 485 l 500 0 l 193 0 l 3 779 l 274 779 l 358 258 l 481 779 l 771 779 l 899 254 l 985 779 l 1238 779 z "},"x":{"ha":885,"x_min":4,"x_max":881,"o":"m 575 0 l 429 199 l 317 0 l 15 0 l 275 408 l 4 779 l 310 779 l 454 582 l 568 779 l 869 779 l 601 381 l 881 0 l 575 0 z "},"y":{"ha":910,"x_min":-8,"x_max":919,"o":"m 296 779 l 463 343 l 617 779 l 919 779 l 426 -372 l 126 -372 l 317 33 l -8 779 l 296 779 z "},"z":{"ha":700,"x_min":29,"x_max":671,"o":"m 329 226 l 671 226 l 671 0 l 29 0 l 29 215 l 346 553 l 35 553 l 35 779 l 657 779 l 657 565 l 329 226 z "},"{":{"ha":675,"x_min":76,"x_max":628,"o":"m 310 515 q 423 456 386 500 q 460 331 460 411 q 449 203 460 286 q 436 64 436 125 q 490 -161 436 -75 q 628 -282 544 -247 l 628 -301 l 372 -301 q 294 -243 336 -285 q 219 -123 251 -201 q 186 68 186 -44 q 192 155 186 111 q 199 208 197 199 q 211 338 211 283 q 179 429 211 392 q 76 471 147 467 l 76 563 q 181 604 150 567 q 211 696 211 642 q 199 825 211 750 q 192 878 197 835 q 186 965 186 922 q 219 1156 186 1078 q 294 1276 251 1235 q 372 1335 336 1318 l 628 1335 l 628 1315 q 490 1194 544 1281 q 436 969 436 1108 q 449 831 436 911 q 460 703 460 747 q 424 578 460 622 q 310 518 388 533 l 310 515 z "},"|":{"ha":351,"x_min":39,"x_max":313,"o":"m 313 -190 l 39 -190 l 39 1142 l 313 1142 l 313 -190 z "},"}":{"ha":647,"x_min":51,"x_max":601,"o":"m 369 518 q 254 572 290 533 q 218 679 218 610 q 231 807 218 729 q 238 858 232 815 q 243 946 243 901 q 217 1111 243 1035 q 147 1241 192 1188 q 51 1315 103 1294 l 51 1335 l 304 1335 q 383 1276 340 1318 q 458 1156 425 1235 q 492 965 492 1078 q 486 878 492 922 q 479 825 481 835 q 467 696 467 750 q 499 601 467 640 q 601 563 532 561 l 601 471 q 499 434 532 475 q 467 338 467 393 q 479 208 467 283 q 486 155 481 199 q 492 68 492 111 q 458 -123 492 -44 q 383 -243 425 -201 q 304 -301 340 -285 l 51 -301 l 51 -282 q 147 -208 103 -261 q 217 -78 192 -154 q 243 88 243 -1 q 238 174 243 131 q 231 228 232 218 q 218 354 218 303 q 256 462 218 424 q 369 515 293 500 l 369 518 z "},"~":{"ha":936,"x_min":32,"x_max":904,"o":"m 332 604 q 418 590 379 604 q 508 550 457 576 q 569 520 546 529 q 617 511 593 511 q 672 534 653 511 q 699 607 692 557 l 904 607 q 799 353 878 436 q 603 271 719 271 q 518 285 556 271 q 428 325 481 299 q 367 354 390 344 q 318 364 343 364 q 261 341 281 364 q 235 268 242 318 l 32 268 q 138 522 60 440 q 332 604 215 604 z "}," ":{"ha":257,"x_min":0,"x_max":0,"o":""},"¡":{"ha":601,"x_min":149,"x_max":447,"o":"m 447 -254 l 414 415 l 181 415 l 149 -254 l 447 -254 m 436 519 l 436 786 l 160 786 l 160 519 l 436 519 z "},"¢":{"ha":806,"x_min":35,"x_max":771,"o":"m 418 214 q 483 233 453 214 q 521 286 514 251 l 771 286 q 678 88 763 163 q 471 -3 594 13 l 471 -117 l 357 -117 l 357 -3 q 121 106 207 13 q 35 356 35 199 q 121 603 35 511 q 357 711 207 696 l 357 824 l 471 824 l 471 711 q 678 622 594 697 q 771 424 763 547 l 521 424 q 481 478 510 460 q 418 496 453 496 q 328 459 361 496 q 296 354 296 422 q 328 251 296 288 q 418 214 360 214 z "},"£":{"ha":919,"x_min":46,"x_max":835,"o":"m 835 204 l 835 -7 l 96 -7 l 63 122 q 163 239 131 176 q 197 390 194 301 l 46 390 l 46 572 l 158 572 q 131 757 131 671 q 174 920 131 851 q 294 1025 217 989 q 474 1061 372 1061 q 731 972 639 1061 q 833 736 824 882 l 582 736 q 552 811 576 783 q 483 839 528 839 q 414 809 438 839 q 390 725 390 779 q 398 666 390 697 q 424 572 406 635 l 663 572 l 663 390 l 454 390 q 429 292 450 342 q 363 204 408 242 l 835 204 z "},"¤":{"ha":819,"x_min":86,"x_max":735,"o":"m 717 526 q 664 372 717 436 l 735 301 l 635 201 l 544 292 q 413 271 486 271 q 276 293 340 271 l 185 201 l 86 301 l 160 375 q 110 526 110 438 q 161 679 110 617 l 86 754 l 185 854 l 281 758 q 413 778 343 778 q 540 760 476 778 l 635 854 l 735 754 l 661 682 q 717 526 717 619 m 413 428 q 479 451 453 428 q 506 524 506 475 q 479 597 506 572 q 413 622 453 622 q 346 597 372 622 q 319 524 319 572 q 346 451 319 475 q 413 428 372 428 z "},"¥":{"ha":985,"x_min":10,"x_max":976,"o":"m 783 610 l 907 610 l 907 432 l 692 432 l 660 371 l 907 371 l 907 192 l 629 192 l 629 0 l 357 0 l 357 192 l 78 192 l 78 371 l 326 371 l 294 432 l 78 432 l 78 610 l 203 610 l 10 983 l 322 983 l 496 567 l 668 983 l 976 983 l 783 610 z "},"¦":{"ha":558,"x_min":143,"x_max":415,"o":"m 143 1142 l 415 1142 l 415 558 l 143 558 l 143 1142 m 415 -190 l 143 -190 l 143 394 l 415 394 l 415 -190 z "},"§":{"ha":821,"x_min":36,"x_max":786,"o":"m 642 146 q 711 51 688 103 q 735 -57 735 -1 q 649 -241 735 -171 q 408 -311 563 -311 q 178 -233 263 -311 q 81 -28 93 -156 l 350 -28 q 414 -118 356 -118 q 460 -69 460 -118 q 440 -18 460 -42 q 377 31 421 6 q 249 96 333 56 q 36 349 36 196 q 179 553 36 499 q 110 647 133 596 q 86 754 86 699 q 172 938 86 868 q 414 1008 258 1008 q 644 931 560 1008 q 740 725 729 853 l 471 725 q 408 815 467 815 q 375 803 388 815 q 363 768 363 792 q 382 716 363 739 q 444 668 401 693 q 572 603 488 643 q 730 492 674 554 q 786 349 786 429 q 753 231 786 282 q 642 146 719 181 m 411 257 q 473 283 450 257 q 496 349 496 308 q 475 415 496 389 q 414 442 454 442 q 351 415 374 442 q 328 349 328 389 q 350 283 328 308 q 411 257 372 257 z "},"¨":{"ha":563,"x_min":24,"x_max":539,"o":"m 24 971 q 55 1050 24 1018 q 132 1082 86 1082 q 212 1051 181 1082 q 243 971 243 1019 q 211 894 243 925 q 132 863 179 863 q 55 894 86 863 q 24 971 24 925 m 319 971 q 351 1050 319 1018 q 428 1082 382 1082 q 508 1051 476 1082 q 539 971 539 1019 q 507 894 539 925 q 428 863 475 863 q 351 894 382 863 q 319 971 319 925 z "},"©":{"ha":1076,"x_min":47,"x_max":1029,"o":"m 539 997 q 283 933 394 997 q 109 756 171 869 q 47 496 47 642 q 109 235 47 350 q 283 57 171 121 q 539 -7 394 -7 q 794 57 683 -7 q 967 235 906 121 q 1029 496 1029 350 q 967 756 1029 642 q 794 933 906 869 q 539 997 683 997 m 539 915 q 753 863 661 915 q 893 717 844 811 q 942 496 942 622 q 892 276 942 371 q 752 128 843 181 q 539 75 661 75 q 324 128 415 75 q 185 276 233 181 q 136 496 136 371 q 185 717 136 622 q 324 863 233 811 q 539 915 415 915 m 544 806 q 738 739 656 806 q 838 560 819 672 l 610 560 q 581 607 601 589 q 532 625 561 625 q 468 592 492 625 q 444 494 444 558 q 468 398 444 431 q 532 365 492 365 q 581 383 561 365 q 610 431 601 401 l 838 431 q 738 251 819 318 q 544 185 656 185 q 382 222 453 185 q 272 331 311 260 q 232 496 232 401 q 272 660 232 590 q 382 768 311 731 q 544 806 453 806 z "},"ª":{"ha":660,"x_min":32,"x_max":625,"o":"m 258 989 q 358 968 318 989 q 422 904 397 947 l 422 982 l 625 982 l 625 493 l 422 493 l 422 571 q 358 507 396 528 q 261 486 319 486 q 96 552 160 486 q 32 736 32 618 q 96 922 32 854 q 258 989 160 989 m 331 828 q 266 803 292 828 q 240 735 240 778 q 265 671 240 693 q 331 649 290 649 q 396 672 369 649 q 422 739 422 696 q 396 804 422 781 q 331 828 369 828 z "},"«":{"ha":817,"x_min":63,"x_max":758,"o":"m 175 167 l 63 410 l 175 653 l 424 653 l 308 410 l 424 167 l 175 167 m 510 167 l 397 410 l 510 653 l 758 653 l 644 410 l 758 167 l 510 167 z "},"¬":{"ha":1088,"x_min":36,"x_max":1001,"o":"m 1001 618 l 1001 233 l 728 233 l 728 413 l 36 413 l 36 618 l 1001 618 z "},"­":{"ha":778,"x_min":19,"x_max":649,"o":"m 649 594 l 649 368 l 19 368 l 19 594 l 649 594 z "},"®":{"ha":1132,"x_min":47,"x_max":1085,"o":"m 567 997 q 837 934 719 997 q 1019 757 954 871 q 1085 496 1085 643 q 1019 235 1085 350 q 837 57 954 121 q 567 -7 719 -7 q 296 57 414 -7 q 113 235 178 121 q 47 496 47 350 q 113 756 47 642 q 296 934 178 871 q 567 997 414 997 m 567 76 q 794 128 697 76 q 944 276 892 181 q 997 496 997 371 q 945 717 997 622 q 796 864 893 813 q 567 915 699 915 q 338 864 435 915 q 188 717 240 813 q 136 496 136 622 q 188 276 136 371 q 338 128 240 181 q 567 76 435 76 m 822 617 q 791 513 822 558 q 696 446 760 467 l 832 210 l 651 210 l 528 433 l 519 433 l 519 210 l 351 210 l 351 797 l 603 797 q 768 744 714 797 q 822 617 822 692 m 519 538 l 585 538 q 651 592 651 538 q 585 646 651 646 l 519 646 l 519 538 z "},"¯":{"ha":615,"x_min":19,"x_max":597,"o":"m 597 1053 l 597 871 l 19 871 l 19 1053 l 597 1053 z "},"°":{"ha":665,"x_min":33,"x_max":632,"o":"m 333 989 q 551 922 469 989 q 632 738 632 856 q 553 551 632 621 q 339 482 474 482 q 180 513 249 482 q 72 603 111 544 q 33 738 33 661 q 115 922 33 856 q 333 989 196 989 m 335 846 q 269 818 297 846 q 242 736 242 790 q 271 656 242 683 q 339 628 300 628 q 398 655 374 628 q 422 736 422 682 q 397 818 422 790 q 335 846 371 846 z "},"±":{"ha":772,"x_min":32,"x_max":740,"o":"m 517 486 l 517 381 l 740 381 l 740 132 l 32 132 l 32 381 l 254 381 l 254 486 l 32 486 l 32 733 l 254 733 l 254 876 l 517 876 l 517 733 l 740 733 l 740 486 l 517 486 z "},"²":{"ha":565,"x_min":56,"x_max":533,"o":"m 274 644 l 524 644 l 524 489 l 65 489 l 65 639 l 249 743 q 319 829 319 783 q 294 853 319 853 q 257 796 261 853 l 56 796 q 133 939 63 883 q 322 994 204 994 q 481 951 429 994 q 533 846 533 907 q 490 756 533 794 q 347 676 447 718 l 274 644 z "},"³":{"ha":542,"x_min":22,"x_max":514,"o":"m 281 994 q 444 954 385 994 q 503 849 503 914 q 400 744 503 761 l 400 739 q 488 697 461 725 q 514 625 514 669 q 453 522 514 558 q 285 485 392 485 q 90 530 149 485 q 22 663 32 575 l 235 663 q 244 633 236 642 q 268 625 253 625 q 300 664 300 625 q 251 707 300 707 l 204 707 l 204 776 l 240 776 q 276 787 265 776 q 288 821 288 797 q 280 845 288 836 q 258 854 272 854 q 234 843 242 854 q 225 808 226 832 l 32 808 q 92 941 33 888 q 281 994 151 994 z "},"´":{"ha":386,"x_min":19,"x_max":367,"o":"m 367 971 l 19 833 l 19 1017 l 367 1174 l 367 971 z "},"µ":{"ha":1021,"x_min":106,"x_max":914,"o":"m 914 779 l 914 0 l 642 0 l 642 119 q 549 28 608 63 q 408 -7 489 -7 q 378 -3 393 -7 l 378 -372 l 106 -372 l 106 779 l 378 779 l 378 369 q 414 267 378 304 q 510 229 450 229 q 606 265 571 229 q 642 367 642 301 l 642 779 l 914 779 z "},"¶":{"ha":1031,"x_min":31,"x_max":925,"o":"m 925 0 l 706 0 l 706 775 l 617 775 l 617 0 l 400 0 l 400 374 l 361 374 q 174 416 249 374 q 65 527 100 458 q 31 676 31 596 q 65 826 31 757 q 174 937 100 894 q 361 979 249 979 l 925 979 l 925 0 z "},"·":{"ha":393,"x_min":57,"x_max":333,"o":"m 333 563 l 333 296 l 57 296 l 57 563 l 333 563 z "},"¸":{"ha":460,"x_min":19,"x_max":442,"o":"m 261 -49 q 343 -63 301 -47 q 413 -116 385 -79 q 442 -210 442 -153 q 382 -335 442 -296 q 240 -374 322 -374 l 19 -374 l 19 -233 l 213 -233 q 247 -225 235 -233 q 258 -201 258 -217 q 213 -174 258 -174 l 103 -174 l 103 10 l 261 10 l 261 -49 z "},"¹":{"ha":374,"x_min":32,"x_max":324,"o":"m 32 821 l 32 978 l 324 978 l 324 489 l 121 489 l 121 821 l 32 821 z "},"º":{"ha":643,"x_min":32,"x_max":613,"o":"m 322 985 q 476 952 410 985 q 577 863 542 919 q 613 735 613 807 q 577 606 613 663 q 476 515 542 549 q 322 482 410 482 q 169 515 235 482 q 67 605 103 547 q 32 735 32 663 q 67 863 32 807 q 168 952 103 919 q 322 985 233 985 m 322 829 q 261 805 285 829 q 238 735 238 781 q 261 663 238 688 q 322 638 285 638 q 382 663 358 638 q 406 735 406 688 q 382 805 406 781 q 322 829 358 829 z "},"»":{"ha":817,"x_min":69,"x_max":765,"o":"m 186 410 l 69 653 l 319 653 l 431 410 l 319 167 l 69 167 l 186 410 m 521 410 l 404 653 l 656 653 l 765 410 l 656 167 l 404 167 l 521 410 z "},"¼":{"ha":1157,"x_min":65,"x_max":1124,"o":"m 942 983 l 411 0 l 143 0 l 675 983 l 942 983 m 65 821 l 65 978 l 357 978 l 357 489 l 154 489 l 154 821 l 65 821 m 1124 83 l 1071 83 l 1071 0 l 868 0 l 868 83 l 590 83 l 590 189 l 793 489 l 1071 489 l 1071 194 l 1124 194 l 1124 83 m 878 357 l 781 200 l 878 200 l 878 357 z "},"½":{"ha":1231,"x_min":67,"x_max":1136,"o":"m 951 986 l 408 0 l 140 0 l 685 986 l 951 986 m 156 821 l 67 821 l 67 978 l 358 978 l 358 489 l 156 489 l 156 821 m 876 154 l 1126 154 l 1126 -1 l 668 -1 l 668 149 l 851 253 q 922 339 922 293 q 897 363 922 363 q 860 306 864 363 l 658 306 q 736 449 665 393 q 925 504 807 504 q 1084 460 1032 504 q 1136 356 1136 417 q 1093 266 1136 304 q 950 186 1050 228 l 876 154 z "},"¾":{"ha":1338,"x_min":90,"x_max":1311,"o":"m 349 994 q 512 954 453 994 q 571 849 571 914 q 468 744 571 761 l 468 739 q 556 697 529 725 q 582 625 582 669 q 521 522 582 558 q 353 485 460 485 q 158 530 217 485 q 90 663 100 575 l 303 663 q 313 633 304 642 q 336 625 321 625 q 368 664 368 625 q 319 707 368 707 l 272 707 l 272 776 l 308 776 q 344 787 333 776 q 356 821 356 797 q 348 845 356 836 q 326 854 340 854 q 302 843 310 854 q 293 808 294 832 l 100 808 q 160 941 101 888 q 349 994 219 994 m 1113 986 l 601 0 l 336 0 l 844 986 l 1113 986 m 1311 83 l 1260 83 l 1260 0 l 1057 0 l 1057 83 l 779 83 l 779 189 l 957 489 l 1260 489 l 1260 194 l 1311 194 l 1311 83 m 1068 382 l 971 194 l 1068 194 l 1068 382 z "},"¿":{"ha":735,"x_min":108,"x_max":789,"o":"m 439 -272 q 199 -197 289 -272 q 108 24 108 -121 q 193 226 108 151 q 415 304 278 301 l 415 417 l 672 417 l 672 131 l 567 131 q 426 107 475 131 q 376 25 376 83 q 397 -31 376 -11 q 449 -51 417 -51 q 507 -28 486 -51 q 528 33 528 -4 l 786 33 q 751 -121 789 -51 q 633 -231 713 -190 q 439 -272 554 -272 m 404 524 l 404 790 l 681 790 l 681 524 l 404 524 z "},"À":{"ha":1044,"x_min":6,"x_max":1039,"o":"m 696 164 l 347 164 l 293 0 l 6 0 l 365 979 l 681 979 l 1039 0 l 750 0 l 696 164 m 628 369 l 522 689 l 415 369 l 628 369 m 679 1221 l 679 1038 l 332 1175 l 332 1378 l 679 1221 z "},"Á":{"ha":1044,"x_min":6,"x_max":1039,"o":"m 696 164 l 347 164 l 293 0 l 6 0 l 365 979 l 681 979 l 1039 0 l 750 0 l 696 164 m 628 369 l 522 689 l 415 369 l 628 369 m 711 1175 l 364 1038 l 364 1221 l 711 1378 l 711 1175 z "},"Â":{"ha":1044,"x_min":6,"x_max":1039,"o":"m 696 164 l 347 164 l 293 0 l 6 0 l 365 979 l 681 979 l 1039 0 l 750 0 l 696 164 m 628 369 l 522 689 l 415 369 l 628 369 m 524 1153 l 300 1032 l 300 1210 l 524 1328 l 744 1210 l 744 1032 l 524 1153 z "},"Ã":{"ha":1044,"x_min":6,"x_max":1039,"o":"m 696 164 l 347 164 l 293 0 l 6 0 l 365 979 l 681 979 l 1039 0 l 750 0 l 696 164 m 628 369 l 522 689 l 415 369 l 628 369 m 429 1278 q 489 1268 463 1278 q 549 1240 515 1258 q 591 1220 575 1226 q 624 1214 607 1214 q 685 1279 675 1214 l 821 1279 q 749 1108 801 1161 q 614 1056 696 1056 q 557 1065 582 1056 q 496 1092 532 1074 q 453 1111 471 1104 q 419 1118 436 1118 q 358 1053 371 1118 l 224 1053 q 296 1224 244 1171 q 429 1278 347 1278 z "},"Ä":{"ha":1044,"x_min":6,"x_max":1039,"o":"m 696 164 l 347 164 l 293 0 l 6 0 l 365 979 l 681 979 l 1039 0 l 750 0 l 696 164 m 628 369 l 522 689 l 415 369 l 628 369 m 264 1175 q 295 1254 264 1222 q 372 1286 326 1286 q 452 1255 421 1286 q 483 1175 483 1224 q 451 1098 483 1129 q 372 1067 419 1067 q 295 1098 326 1067 q 264 1175 264 1129 m 560 1175 q 591 1254 560 1222 q 668 1286 622 1286 q 748 1255 717 1286 q 779 1175 779 1224 q 747 1098 779 1129 q 668 1067 715 1067 q 591 1098 622 1067 q 560 1175 560 1129 z "},"Å":{"ha":1044,"x_min":6,"x_max":1039,"o":"m 696 164 l 347 164 l 293 0 l 6 0 l 365 979 l 681 979 l 1039 0 l 750 0 l 696 164 m 628 369 l 522 689 l 415 369 l 628 369 m 522 1383 q 647 1335 597 1383 q 697 1208 697 1288 q 647 1080 697 1128 q 522 1032 597 1032 q 397 1080 447 1032 q 346 1208 346 1128 q 397 1335 346 1288 q 522 1383 447 1383 m 522 1278 q 474 1259 493 1278 q 454 1208 454 1240 q 474 1157 454 1176 q 522 1138 493 1138 q 571 1157 551 1138 q 590 1208 590 1176 q 571 1259 590 1240 q 522 1278 551 1278 z "},"Æ":{"ha":1343,"x_min":1,"x_max":1293,"o":"m 946 765 l 946 606 l 1251 606 l 1251 400 l 946 400 l 946 218 l 1293 218 l 1293 0 l 672 0 l 672 151 l 372 151 l 299 0 l 1 0 l 489 983 l 1293 983 l 1293 765 l 946 765 m 672 358 l 672 768 l 474 358 l 672 358 z "},"Ç":{"ha":1049,"x_min":47,"x_max":1001,"o":"m 529 993 q 755 947 656 993 q 917 815 854 900 q 1001 617 979 729 l 714 617 q 640 708 690 675 q 525 740 590 740 q 379 673 435 740 q 324 493 324 606 q 379 313 324 381 q 525 244 435 244 q 640 278 590 244 q 714 369 690 311 l 1001 369 q 844 95 968 197 q 529 -7 719 -7 q 274 56 383 -7 q 106 233 165 119 q 47 493 47 347 q 106 753 47 639 q 274 930 165 867 q 529 993 383 993 m 613 -49 q 694 -63 653 -47 q 765 -116 736 -79 q 793 -210 793 -153 q 733 -335 793 -296 q 592 -374 674 -374 l 371 -374 l 371 -233 l 564 -233 q 598 -225 586 -233 q 610 -201 610 -217 q 564 -174 610 -174 l 454 -174 l 454 10 l 613 10 l 613 -49 z "},"È":{"ha":758,"x_min":75,"x_max":708,"o":"m 349 765 l 349 603 l 667 603 l 667 396 l 349 396 l 349 218 l 708 218 l 708 0 l 75 0 l 75 983 l 708 983 l 708 765 l 349 765 m 550 1221 l 550 1038 l 203 1175 l 203 1378 l 550 1221 z "},"É":{"ha":758,"x_min":75,"x_max":708,"o":"m 349 765 l 349 603 l 667 603 l 667 396 l 349 396 l 349 218 l 708 218 l 708 0 l 75 0 l 75 983 l 708 983 l 708 765 l 349 765 m 582 1175 l 235 1038 l 235 1221 l 582 1378 l 582 1175 z "},"Ê":{"ha":758,"x_min":75,"x_max":708,"o":"m 349 765 l 349 603 l 667 603 l 667 396 l 349 396 l 349 218 l 708 218 l 708 0 l 75 0 l 75 983 l 708 983 l 708 765 l 349 765 m 394 1153 l 171 1032 l 171 1210 l 394 1328 l 615 1210 l 615 1032 l 394 1153 z "},"Ë":{"ha":758,"x_min":75,"x_max":708,"o":"m 349 765 l 349 603 l 667 603 l 667 396 l 349 396 l 349 218 l 708 218 l 708 0 l 75 0 l 75 983 l 708 983 l 708 765 l 349 765 m 136 1175 q 167 1254 136 1222 q 244 1286 199 1286 q 324 1255 293 1286 q 356 1175 356 1224 q 324 1098 356 1129 q 244 1067 292 1067 q 167 1098 199 1067 q 136 1175 136 1129 m 432 1175 q 463 1254 432 1222 q 540 1286 494 1286 q 620 1255 589 1286 q 651 1175 651 1224 q 619 1098 651 1129 q 540 1067 588 1067 q 463 1098 494 1067 q 432 1175 432 1129 z "},"Ì":{"ha":425,"x_min":22,"x_max":369,"o":"m 349 983 l 349 0 l 75 0 l 75 983 l 349 983 m 369 1221 l 369 1038 l 22 1175 l 22 1378 l 369 1221 z "},"Í":{"ha":425,"x_min":56,"x_max":403,"o":"m 349 983 l 349 0 l 75 0 l 75 983 l 349 983 m 403 1175 l 56 1038 l 56 1221 l 403 1378 l 403 1175 z "},"Î":{"ha":425,"x_min":-10,"x_max":435,"o":"m 349 983 l 349 0 l 75 0 l 75 983 l 349 983 m 214 1153 l -10 1032 l -10 1210 l 214 1328 l 435 1210 l 435 1032 l 214 1153 z "},"Ï":{"ha":425,"x_min":-44,"x_max":471,"o":"m 349 983 l 349 0 l 75 0 l 75 983 l 349 983 m -44 1175 q -13 1254 -44 1222 q 64 1286 18 1286 q 144 1255 113 1286 q 175 1175 175 1224 q 143 1098 175 1129 q 64 1067 111 1067 q -13 1098 18 1067 q -44 1175 -44 1129 m 251 1175 q 283 1254 251 1222 q 360 1286 314 1286 q 440 1255 408 1286 q 471 1175 471 1224 q 439 1098 471 1129 q 360 1067 407 1067 q 283 1098 314 1067 q 251 1175 251 1129 z "},"Ð":{"ha":1032,"x_min":1,"x_max":985,"o":"m 474 983 q 745 922 629 983 q 923 749 861 860 q 985 494 985 638 q 922 240 985 351 q 744 64 860 128 q 474 0 629 0 l 82 0 l 82 385 l 1 385 l 1 603 l 82 603 l 82 983 l 474 983 m 449 244 q 639 310 569 244 q 708 494 708 375 q 639 678 708 613 q 449 744 569 744 l 356 744 l 356 603 l 554 603 l 554 385 l 356 385 l 356 244 l 449 244 z "},"Ñ":{"ha":1060,"x_min":75,"x_max":983,"o":"m 983 0 l 710 0 l 349 549 l 349 0 l 75 0 l 75 982 l 349 982 l 710 426 l 710 982 l 983 982 l 983 0 m 436 1278 q 496 1268 469 1278 q 556 1240 522 1258 q 598 1220 582 1226 q 631 1214 614 1214 q 692 1279 682 1214 l 828 1279 q 756 1108 808 1161 q 621 1056 703 1056 q 564 1065 589 1056 q 503 1092 539 1074 q 460 1111 478 1104 q 426 1118 443 1118 q 365 1053 378 1118 l 231 1053 q 303 1224 251 1171 q 436 1278 354 1278 z "},"Ò":{"ha":1096,"x_min":47,"x_max":1049,"o":"m 549 999 q 802 934 688 999 q 983 754 917 869 q 1049 494 1049 639 q 982 235 1049 350 q 801 55 915 119 q 549 -10 686 -10 q 296 55 411 -10 q 114 235 181 119 q 47 494 47 350 q 114 754 47 639 q 296 934 181 869 q 549 999 411 999 m 549 746 q 385 678 444 746 q 325 494 325 611 q 385 313 325 381 q 549 244 444 244 q 711 313 651 244 q 771 494 771 381 q 712 678 771 611 q 549 746 653 746 m 706 1221 l 706 1038 l 358 1175 l 358 1378 l 706 1221 z "},"Ó":{"ha":1096,"x_min":47,"x_max":1049,"o":"m 549 999 q 802 934 688 999 q 983 754 917 869 q 1049 494 1049 639 q 982 235 1049 350 q 801 55 915 119 q 549 -10 686 -10 q 296 55 411 -10 q 114 235 181 119 q 47 494 47 350 q 114 754 47 639 q 296 934 181 869 q 549 999 411 999 m 549 746 q 385 678 444 746 q 325 494 325 611 q 385 313 325 381 q 549 244 444 244 q 711 313 651 244 q 771 494 771 381 q 712 678 771 611 q 549 746 653 746 m 738 1175 l 390 1038 l 390 1221 l 738 1378 l 738 1175 z "},"Ô":{"ha":1096,"x_min":47,"x_max":1049,"o":"m 549 999 q 802 934 688 999 q 983 754 917 869 q 1049 494 1049 639 q 982 235 1049 350 q 801 55 915 119 q 549 -10 686 -10 q 296 55 411 -10 q 114 235 181 119 q 47 494 47 350 q 114 754 47 639 q 296 934 181 869 q 549 999 411 999 m 549 746 q 385 678 444 746 q 325 494 325 611 q 385 313 325 381 q 549 244 444 244 q 711 313 651 244 q 771 494 771 381 q 712 678 771 611 q 549 746 653 746 m 550 1153 l 326 1032 l 326 1210 l 550 1328 l 771 1210 l 771 1032 l 550 1153 z "},"Õ":{"ha":1096,"x_min":47,"x_max":1049,"o":"m 549 999 q 802 934 688 999 q 983 754 917 869 q 1049 494 1049 639 q 982 235 1049 350 q 801 55 915 119 q 549 -10 686 -10 q 296 55 411 -10 q 114 235 181 119 q 47 494 47 350 q 114 754 47 639 q 296 934 181 869 q 549 999 411 999 m 549 746 q 385 678 444 746 q 325 494 325 611 q 385 313 325 381 q 549 244 444 244 q 711 313 651 244 q 771 494 771 381 q 712 678 771 611 q 549 746 653 746 m 456 1278 q 515 1268 489 1278 q 575 1240 542 1258 q 617 1220 601 1226 q 650 1214 633 1214 q 711 1279 701 1214 l 847 1279 q 775 1108 828 1161 q 640 1056 722 1056 q 583 1065 608 1056 q 522 1092 558 1074 q 480 1111 497 1104 q 446 1118 463 1118 q 385 1053 397 1118 l 250 1053 q 322 1224 271 1171 q 456 1278 374 1278 z "},"Ö":{"ha":1096,"x_min":47,"x_max":1049,"o":"m 549 999 q 802 934 688 999 q 983 754 917 869 q 1049 494 1049 639 q 982 235 1049 350 q 801 55 915 119 q 549 -10 686 -10 q 296 55 411 -10 q 114 235 181 119 q 47 494 47 350 q 114 754 47 639 q 296 934 181 869 q 549 999 411 999 m 549 746 q 385 678 444 746 q 325 494 325 611 q 385 313 325 381 q 549 244 444 244 q 711 313 651 244 q 771 494 771 381 q 712 678 771 611 q 549 746 653 746 m 290 1175 q 322 1254 290 1222 q 399 1286 353 1286 q 478 1255 447 1286 q 510 1175 510 1224 q 478 1098 510 1129 q 399 1067 446 1067 q 322 1098 353 1067 q 290 1175 290 1129 m 586 1175 q 617 1254 586 1222 q 694 1286 649 1286 q 774 1255 743 1286 q 806 1175 806 1224 q 774 1098 806 1129 q 694 1067 742 1067 q 617 1098 649 1067 q 586 1175 586 1129 z "},"×":{"ha":788,"x_min":32,"x_max":757,"o":"m 575 126 l 389 313 l 207 128 l 32 303 l 214 488 l 36 665 l 217 843 l 393 668 l 565 843 l 743 668 l 569 493 l 757 306 l 575 126 z "},"Ø":{"ha":1096,"x_min":32,"x_max":1061,"o":"m 924 835 q 1015 681 983 768 q 1047 494 1047 594 q 981 235 1047 350 q 799 55 914 119 q 547 -10 685 -10 q 389 15 464 -10 q 251 83 314 39 l 178 1 l 32 1 l 171 156 q 78 309 111 222 q 46 494 46 396 q 113 754 46 639 q 294 934 179 869 q 547 999 410 999 q 706 975 631 999 q 844 906 782 951 l 918 988 l 1061 988 l 924 835 m 324 494 q 353 358 324 415 l 671 713 q 547 746 621 746 q 383 678 443 746 q 324 494 324 611 m 769 494 q 742 631 769 572 l 425 278 q 547 244 475 244 q 710 313 650 244 q 769 494 769 381 z "},"Ù":{"ha":983,"x_min":69,"x_max":914,"o":"m 342 983 l 342 422 q 378 294 342 339 q 490 249 415 249 q 603 294 565 249 q 642 422 642 340 l 642 983 l 914 983 l 914 422 q 858 186 914 283 q 704 40 801 89 q 485 -10 607 -10 q 269 39 363 -10 q 122 185 175 88 q 69 422 69 282 l 69 983 l 342 983 m 649 1221 l 649 1038 l 301 1175 l 301 1378 l 649 1221 z "},"Ú":{"ha":983,"x_min":69,"x_max":914,"o":"m 342 983 l 342 422 q 378 294 342 339 q 490 249 415 249 q 603 294 565 249 q 642 422 642 340 l 642 983 l 914 983 l 914 422 q 858 186 914 283 q 704 40 801 89 q 485 -10 607 -10 q 269 39 363 -10 q 122 185 175 88 q 69 422 69 282 l 69 983 l 342 983 m 681 1175 l 333 1038 l 333 1221 l 681 1378 l 681 1175 z "},"Û":{"ha":983,"x_min":69,"x_max":914,"o":"m 342 983 l 342 422 q 378 294 342 339 q 490 249 415 249 q 603 294 565 249 q 642 422 642 340 l 642 983 l 914 983 l 914 422 q 858 186 914 283 q 704 40 801 89 q 485 -10 607 -10 q 269 39 363 -10 q 122 185 175 88 q 69 422 69 282 l 69 983 l 342 983 m 493 1153 l 269 1032 l 269 1210 l 493 1328 l 714 1210 l 714 1032 l 493 1153 z "},"Ü":{"ha":983,"x_min":69,"x_max":914,"o":"m 342 983 l 342 422 q 378 294 342 339 q 490 249 415 249 q 603 294 565 249 q 642 422 642 340 l 642 983 l 914 983 l 914 422 q 858 186 914 283 q 704 40 801 89 q 485 -10 607 -10 q 269 39 363 -10 q 122 185 175 88 q 69 422 69 282 l 69 983 l 342 983 m 235 1175 q 266 1254 235 1222 q 343 1286 297 1286 q 423 1255 392 1286 q 454 1175 454 1224 q 422 1098 454 1129 q 343 1067 390 1067 q 266 1098 297 1067 q 235 1175 235 1129 m 531 1175 q 562 1254 531 1222 q 639 1286 593 1286 q 719 1255 688 1286 q 750 1175 750 1224 q 718 1098 750 1129 q 639 1067 686 1067 q 562 1098 593 1067 q 531 1175 531 1129 z "},"Ý":{"ha":978,"x_min":6,"x_max":972,"o":"m 972 983 l 625 313 l 625 0 l 353 0 l 353 313 l 6 983 l 318 983 l 492 608 l 664 983 l 972 983 m 679 1175 l 332 1038 l 332 1221 l 679 1378 l 679 1175 z "},"Þ":{"ha":881,"x_min":75,"x_max":849,"o":"m 349 179 l 349 0 l 75 0 l 75 983 l 346 983 l 346 810 l 483 810 q 755 724 661 810 q 849 493 849 638 q 807 332 849 403 q 683 220 765 261 q 483 179 600 179 l 349 179 m 453 383 q 572 493 572 383 q 453 601 572 601 l 349 601 l 349 383 l 453 383 z "},"ß":{"ha":1042,"x_min":75,"x_max":1022,"o":"m 804 574 q 972 439 922 508 q 1022 265 1022 369 q 986 126 1022 189 q 883 26 950 63 q 725 -10 815 -10 q 490 71 569 -10 q 408 294 411 151 l 631 294 q 653 244 635 261 q 699 228 671 228 q 743 244 728 228 q 758 286 758 261 q 740 339 758 318 q 672 386 721 360 l 468 496 l 468 601 l 489 614 q 528 651 517 632 q 539 697 539 671 q 515 766 539 739 q 449 793 490 793 q 374 764 403 793 q 346 681 346 735 l 349 0 l 75 0 l 75 622 q 177 939 75 836 q 481 1042 279 1042 q 665 1008 589 1042 q 780 919 742 975 q 818 800 818 864 q 793 702 818 744 q 710 626 768 660 l 804 574 z "},"à":{"ha":943,"x_min":35,"x_max":868,"o":"m 364 789 q 506 753 446 789 q 596 656 567 718 l 596 779 l 868 779 l 868 0 l 596 0 l 596 124 q 506 26 567 61 q 364 -10 446 -10 q 196 38 271 -10 q 78 177 121 86 q 35 390 35 268 q 78 603 35 513 q 196 741 121 693 q 364 789 271 789 m 454 550 q 351 508 390 550 q 311 390 311 465 q 351 272 311 314 q 454 229 390 229 q 556 272 515 229 q 596 390 596 315 q 556 507 596 464 q 454 550 515 550 m 608 1017 l 608 833 l 261 971 l 261 1174 l 608 1017 z "},"á":{"ha":943,"x_min":35,"x_max":868,"o":"m 364 789 q 506 753 446 789 q 596 656 567 718 l 596 779 l 868 779 l 868 0 l 596 0 l 596 124 q 506 26 567 61 q 364 -10 446 -10 q 196 38 271 -10 q 78 177 121 86 q 35 390 35 268 q 78 603 35 513 q 196 741 121 693 q 364 789 271 789 m 454 550 q 351 508 390 550 q 311 390 311 465 q 351 272 311 314 q 454 229 390 229 q 556 272 515 229 q 596 390 596 315 q 556 507 596 464 q 454 550 515 550 m 642 971 l 294 833 l 294 1017 l 642 1174 l 642 971 z "},"â":{"ha":943,"x_min":35,"x_max":868,"o":"m 364 789 q 506 753 446 789 q 596 656 567 718 l 596 779 l 868 779 l 868 0 l 596 0 l 596 124 q 506 26 567 61 q 364 -10 446 -10 q 196 38 271 -10 q 78 177 121 86 q 35 390 35 268 q 78 603 35 513 q 196 741 121 693 q 364 789 271 789 m 454 550 q 351 508 390 550 q 311 390 311 465 q 351 272 311 314 q 454 229 390 229 q 556 272 515 229 q 596 390 596 315 q 556 507 596 464 q 454 550 515 550 m 453 949 l 229 828 l 229 1006 l 453 1124 l 674 1006 l 674 828 l 453 949 z "},"ã":{"ha":943,"x_min":35,"x_max":868,"o":"m 364 789 q 506 753 446 789 q 596 656 567 718 l 596 779 l 868 779 l 868 0 l 596 0 l 596 124 q 506 26 567 61 q 364 -10 446 -10 q 196 38 271 -10 q 78 177 121 86 q 35 390 35 268 q 78 603 35 513 q 196 741 121 693 q 364 789 271 789 m 454 550 q 351 508 390 550 q 311 390 311 465 q 351 272 311 314 q 454 229 390 229 q 556 272 515 229 q 596 390 596 315 q 556 507 596 464 q 454 550 515 550 m 358 1074 q 418 1064 392 1074 q 478 1036 444 1054 q 520 1016 504 1022 q 553 1010 536 1010 q 614 1075 604 1010 l 750 1075 q 678 904 731 957 q 543 851 625 851 q 486 860 511 851 q 425 888 461 869 q 383 907 400 900 q 349 914 365 914 q 288 849 300 914 l 153 849 q 225 1020 174 967 q 358 1074 276 1074 z "},"ä":{"ha":943,"x_min":35,"x_max":868,"o":"m 364 789 q 506 753 446 789 q 596 656 567 718 l 596 779 l 868 779 l 868 0 l 596 0 l 596 124 q 506 26 567 61 q 364 -10 446 -10 q 196 38 271 -10 q 78 177 121 86 q 35 390 35 268 q 78 603 35 513 q 196 741 121 693 q 364 789 271 789 m 454 550 q 351 508 390 550 q 311 390 311 465 q 351 272 311 314 q 454 229 390 229 q 556 272 515 229 q 596 390 596 315 q 556 507 596 464 q 454 550 515 550 m 194 971 q 226 1050 194 1018 q 303 1082 257 1082 q 383 1051 351 1082 q 414 971 414 1019 q 382 894 414 925 q 303 863 350 863 q 226 894 257 863 q 194 971 194 925 m 490 971 q 522 1050 490 1018 q 599 1082 553 1082 q 678 1051 647 1082 q 710 971 710 1019 q 678 894 710 925 q 599 863 646 863 q 522 894 553 863 q 490 971 490 925 z "},"å":{"ha":943,"x_min":35,"x_max":868,"o":"m 364 789 q 506 753 446 789 q 596 656 567 718 l 596 779 l 868 779 l 868 0 l 596 0 l 596 124 q 506 26 567 61 q 364 -10 446 -10 q 196 38 271 -10 q 78 177 121 86 q 35 390 35 268 q 78 603 35 513 q 196 741 121 693 q 364 789 271 789 m 454 550 q 351 508 390 550 q 311 390 311 465 q 351 272 311 314 q 454 229 390 229 q 556 272 515 229 q 596 390 596 315 q 556 507 596 464 q 454 550 515 550 m 451 1179 q 576 1131 526 1179 q 626 1004 626 1083 q 576 876 626 924 q 451 828 526 828 q 326 876 376 828 q 275 1004 275 924 q 326 1131 275 1083 q 451 1179 376 1179 m 451 1074 q 403 1055 422 1074 q 383 1004 383 1036 q 403 953 383 972 q 451 933 422 933 q 500 953 481 933 q 519 1004 519 972 q 500 1055 519 1036 q 451 1074 481 1074 z "},"æ":{"ha":1478,"x_min":35,"x_max":1443,"o":"m 1443 404 q 1436 340 1443 375 l 876 340 q 1015 206 892 206 q 1097 225 1065 206 q 1140 279 1129 244 l 1429 279 q 1318 71 1403 151 q 1111 -10 1233 -10 q 960 26 1024 -10 q 868 124 897 61 l 868 0 l 596 0 l 596 124 q 506 26 567 61 q 364 -10 446 -10 q 196 38 271 -10 q 78 177 121 86 q 35 390 35 268 q 78 603 35 513 q 196 741 121 693 q 364 789 271 789 q 506 753 446 789 q 596 656 567 718 l 596 779 l 868 779 l 868 656 q 959 754 896 719 q 1111 789 1022 789 q 1285 742 1210 789 q 1401 607 1360 694 q 1443 404 1443 519 m 1167 454 q 1126 544 1168 513 q 1024 575 1085 575 q 926 547 965 575 q 878 454 886 518 l 1167 454 m 454 229 q 556 272 515 229 q 596 390 596 315 q 556 507 596 464 q 454 550 515 550 q 351 508 390 550 q 311 390 311 465 q 351 272 311 314 q 454 229 390 229 z "},"ç":{"ha":849,"x_min":35,"x_max":814,"o":"m 431 789 q 685 705 582 789 q 814 472 788 621 l 525 472 q 490 534 515 513 q 424 556 464 556 q 342 513 374 556 q 311 390 311 471 q 342 267 311 308 q 424 225 374 225 q 490 247 464 225 q 525 308 515 268 l 814 308 q 685 75 788 160 q 431 -10 582 -10 q 224 38 314 -10 q 85 177 135 86 q 35 390 35 268 q 85 603 35 513 q 225 741 135 693 q 431 789 315 789 m 464 -49 q 546 -63 504 -47 q 616 -116 588 -79 q 644 -210 644 -153 q 585 -335 644 -296 q 443 -374 525 -374 l 222 -374 l 222 -233 l 415 -233 q 449 -225 438 -233 q 461 -201 461 -217 q 415 -174 461 -174 l 306 -174 l 306 10 l 464 10 l 464 -49 z "},"è":{"ha":858,"x_min":35,"x_max":824,"o":"m 824 404 q 817 340 824 375 l 301 340 q 417 208 308 208 q 483 228 457 208 q 519 279 510 247 l 808 279 q 740 131 793 197 q 607 28 688 65 q 431 -10 526 -10 q 224 38 314 -10 q 85 177 135 86 q 35 390 35 268 q 85 603 35 513 q 225 741 135 693 q 431 789 315 789 q 636 742 547 789 q 774 607 725 694 q 824 404 824 519 m 546 454 q 514 544 547 514 q 431 575 481 575 q 342 544 376 575 q 303 454 308 514 l 546 454 m 586 1017 l 586 833 l 239 971 l 239 1174 l 586 1017 z "},"é":{"ha":858,"x_min":35,"x_max":824,"o":"m 824 404 q 817 340 824 375 l 301 340 q 417 208 308 208 q 483 228 457 208 q 519 279 510 247 l 808 279 q 740 131 793 197 q 607 28 688 65 q 431 -10 526 -10 q 224 38 314 -10 q 85 177 135 86 q 35 390 35 268 q 85 603 35 513 q 225 741 135 693 q 431 789 315 789 q 636 742 547 789 q 774 607 725 694 q 824 404 824 519 m 546 454 q 514 544 547 514 q 431 575 481 575 q 342 544 376 575 q 303 454 308 514 l 546 454 m 619 971 l 272 833 l 272 1017 l 619 1174 l 619 971 z "},"ê":{"ha":858,"x_min":35,"x_max":824,"o":"m 824 404 q 817 340 824 375 l 301 340 q 417 208 308 208 q 483 228 457 208 q 519 279 510 247 l 808 279 q 740 131 793 197 q 607 28 688 65 q 431 -10 526 -10 q 224 38 314 -10 q 85 177 135 86 q 35 390 35 268 q 85 603 35 513 q 225 741 135 693 q 431 789 315 789 q 636 742 547 789 q 774 607 725 694 q 824 404 824 519 m 546 454 q 514 544 547 514 q 431 575 481 575 q 342 544 376 575 q 303 454 308 514 l 546 454 m 431 949 l 207 828 l 207 1006 l 431 1124 l 651 1006 l 651 828 l 431 949 z "},"ë":{"ha":858,"x_min":35,"x_max":824,"o":"m 824 404 q 817 340 824 375 l 301 340 q 417 208 308 208 q 483 228 457 208 q 519 279 510 247 l 808 279 q 740 131 793 197 q 607 28 688 65 q 431 -10 526 -10 q 224 38 314 -10 q 85 177 135 86 q 35 390 35 268 q 85 603 35 513 q 225 741 135 693 q 431 789 315 789 q 636 742 547 789 q 774 607 725 694 q 824 404 824 519 m 546 454 q 514 544 547 514 q 431 575 481 575 q 342 544 376 575 q 303 454 308 514 l 546 454 m 172 971 q 203 1050 172 1018 q 281 1082 235 1082 q 360 1051 329 1082 q 392 971 392 1019 q 360 894 392 925 q 281 863 328 863 q 203 894 235 863 q 172 971 172 925 m 468 971 q 499 1050 468 1018 q 576 1082 531 1082 q 656 1051 625 1082 q 688 971 688 1019 q 656 894 688 925 q 576 863 624 863 q 499 894 531 863 q 468 971 468 925 z "},"ì":{"ha":485,"x_min":53,"x_max":400,"o":"m 379 779 l 379 0 l 106 0 l 106 779 l 379 779 m 400 1017 l 400 833 l 53 971 l 53 1174 l 400 1017 z "},"í":{"ha":485,"x_min":86,"x_max":433,"o":"m 379 779 l 379 0 l 106 0 l 106 779 l 379 779 m 433 971 l 86 833 l 86 1017 l 433 1174 l 433 971 z "},"î":{"ha":485,"x_min":21,"x_max":465,"o":"m 379 779 l 379 0 l 106 0 l 106 779 l 379 779 m 244 949 l 21 828 l 21 1006 l 244 1124 l 465 1006 l 465 828 l 244 949 z "},"ï":{"ha":485,"x_min":-14,"x_max":501,"o":"m 379 779 l 379 0 l 106 0 l 106 779 l 379 779 m -14 971 q 17 1050 -14 1018 q 94 1082 49 1082 q 174 1051 143 1082 q 206 971 206 1019 q 174 894 206 925 q 94 863 142 863 q 17 894 49 863 q -14 971 -14 925 m 282 971 q 313 1050 282 1018 q 390 1082 344 1082 q 470 1051 439 1082 q 501 971 501 1019 q 469 894 501 925 q 390 863 438 863 q 313 894 344 863 q 282 971 282 925 z "},"ð":{"ha":893,"x_min":35,"x_max":858,"o":"m 690 917 q 814 688 769 811 q 858 439 858 565 q 805 197 858 297 q 659 44 751 96 q 454 -8 567 -8 q 244 42 340 -8 q 91 183 147 92 q 35 394 35 275 q 85 603 35 514 q 224 739 136 692 q 422 786 313 786 q 561 742 500 786 q 499 860 535 806 l 365 821 l 365 911 l 446 935 q 356 1028 400 990 l 594 1028 l 631 990 l 740 1022 l 740 932 l 690 917 m 454 228 q 544 268 508 228 q 581 390 581 308 q 542 511 581 471 q 450 551 503 551 q 353 512 393 551 q 313 393 313 472 q 356 269 313 311 q 454 228 399 228 z "},"ñ":{"ha":954,"x_min":75,"x_max":883,"o":"m 596 786 q 807 697 731 786 q 883 453 883 607 l 883 0 l 613 0 l 613 418 q 577 524 613 486 q 482 563 542 563 q 385 523 421 563 q 349 414 349 483 l 349 0 l 75 0 l 75 779 l 349 779 l 349 649 q 446 749 382 711 q 596 786 510 786 m 386 1074 q 446 1064 419 1074 q 506 1036 472 1054 q 548 1016 532 1022 q 581 1010 564 1010 q 642 1075 632 1010 l 778 1075 q 706 904 758 957 q 571 851 653 851 q 514 860 539 851 q 453 888 489 869 q 410 907 428 900 q 376 914 393 914 q 315 849 328 914 l 181 849 q 253 1020 201 967 q 386 1074 304 1074 z "},"ò":{"ha":885,"x_min":35,"x_max":850,"o":"m 443 789 q 652 741 560 789 q 797 602 744 693 q 850 390 850 511 q 797 178 850 268 q 652 39 744 88 q 443 -10 560 -10 q 233 39 326 -10 q 88 178 140 88 q 35 390 35 268 q 88 603 35 513 q 233 741 140 693 q 443 789 326 789 m 443 553 q 349 511 386 553 q 311 390 311 469 q 349 268 311 310 q 443 226 386 226 q 536 269 499 226 q 574 390 574 311 q 536 511 574 469 q 443 553 499 553 m 600 1017 l 600 833 l 253 971 l 253 1174 l 600 1017 z "},"ó":{"ha":885,"x_min":35,"x_max":850,"o":"m 443 789 q 652 741 560 789 q 797 602 744 693 q 850 390 850 511 q 797 178 850 268 q 652 39 744 88 q 443 -10 560 -10 q 233 39 326 -10 q 88 178 140 88 q 35 390 35 268 q 88 603 35 513 q 233 741 140 693 q 443 789 326 789 m 443 553 q 349 511 386 553 q 311 390 311 469 q 349 268 311 310 q 443 226 386 226 q 536 269 499 226 q 574 390 574 311 q 536 511 574 469 q 443 553 499 553 m 633 971 l 286 833 l 286 1017 l 633 1174 l 633 971 z "},"ô":{"ha":885,"x_min":35,"x_max":850,"o":"m 443 789 q 652 741 560 789 q 797 602 744 693 q 850 390 850 511 q 797 178 850 268 q 652 39 744 88 q 443 -10 560 -10 q 233 39 326 -10 q 88 178 140 88 q 35 390 35 268 q 88 603 35 513 q 233 741 140 693 q 443 789 326 789 m 443 553 q 349 511 386 553 q 311 390 311 469 q 349 268 311 310 q 443 226 386 226 q 536 269 499 226 q 574 390 574 311 q 536 511 574 469 q 443 553 499 553 m 444 949 l 221 828 l 221 1006 l 444 1124 l 665 1006 l 665 828 l 444 949 z "},"õ":{"ha":885,"x_min":35,"x_max":850,"o":"m 443 789 q 652 741 560 789 q 797 602 744 693 q 850 390 850 511 q 797 178 850 268 q 652 39 744 88 q 443 -10 560 -10 q 233 39 326 -10 q 88 178 140 88 q 35 390 35 268 q 88 603 35 513 q 233 741 140 693 q 443 789 326 789 m 443 553 q 349 511 386 553 q 311 390 311 469 q 349 268 311 310 q 443 226 386 226 q 536 269 499 226 q 574 390 574 311 q 536 511 574 469 q 443 553 499 553 m 350 1074 q 410 1064 383 1074 q 469 1036 436 1054 q 512 1016 496 1022 q 544 1010 528 1010 q 606 1075 596 1010 l 742 1075 q 669 904 722 957 q 535 851 617 851 q 478 860 503 851 q 417 888 453 869 q 374 907 392 900 q 340 914 357 914 q 279 849 292 914 l 144 849 q 217 1020 165 967 q 350 1074 268 1074 z "},"ö":{"ha":885,"x_min":35,"x_max":850,"o":"m 443 789 q 652 741 560 789 q 797 602 744 693 q 850 390 850 511 q 797 178 850 268 q 652 39 744 88 q 443 -10 560 -10 q 233 39 326 -10 q 88 178 140 88 q 35 390 35 268 q 88 603 35 513 q 233 741 140 693 q 443 789 326 789 m 443 553 q 349 511 386 553 q 311 390 311 469 q 349 268 311 310 q 443 226 386 226 q 536 269 499 226 q 574 390 574 311 q 536 511 574 469 q 443 553 499 553 m 186 971 q 217 1050 186 1018 q 294 1082 249 1082 q 374 1051 343 1082 q 406 971 406 1019 q 374 894 406 925 q 294 863 342 863 q 217 894 249 863 q 186 971 186 925 m 482 971 q 513 1050 482 1018 q 590 1082 544 1082 q 670 1051 639 1082 q 701 971 701 1019 q 669 894 701 925 q 590 863 638 863 q 513 894 544 863 q 482 971 482 925 z "},"÷":{"ha":772,"x_min":32,"x_max":740,"o":"m 522 935 l 522 669 l 246 669 l 246 935 l 522 935 m 740 604 l 740 356 l 32 356 l 32 604 l 740 604 m 522 292 l 522 25 l 246 25 l 246 292 l 522 292 z "},"ø":{"ha":867,"x_min":13,"x_max":856,"o":"m 746 660 q 840 390 840 554 q 788 178 840 268 q 642 39 735 88 q 433 -10 550 -10 q 193 56 297 -10 l 142 0 l 13 0 l 121 118 q 25 390 25 228 q 78 603 25 513 q 224 741 131 693 q 433 789 317 789 q 674 722 571 789 l 726 779 l 856 779 l 746 660 m 301 390 q 310 325 301 353 l 501 533 q 433 553 469 553 q 339 511 376 553 q 301 390 301 469 m 564 390 q 557 453 564 422 l 367 244 q 433 226 394 226 q 526 269 489 226 q 564 390 564 311 z "},"ù":{"ha":951,"x_min":67,"x_max":875,"o":"m 875 779 l 875 0 l 603 0 l 603 131 q 506 31 569 68 q 356 -7 442 -7 q 144 83 221 -7 q 67 328 67 172 l 67 779 l 339 779 l 339 361 q 374 256 339 294 q 469 218 410 218 q 567 257 531 218 q 603 367 603 296 l 603 779 l 875 779 m 628 1017 l 628 833 l 281 971 l 281 1174 l 628 1017 z "},"ú":{"ha":951,"x_min":67,"x_max":875,"o":"m 875 779 l 875 0 l 603 0 l 603 131 q 506 31 569 68 q 356 -7 442 -7 q 144 83 221 -7 q 67 328 67 172 l 67 779 l 339 779 l 339 361 q 374 256 339 294 q 469 218 410 218 q 567 257 531 218 q 603 367 603 296 l 603 779 l 875 779 m 661 971 l 314 833 l 314 1017 l 661 1174 l 661 971 z "},"û":{"ha":951,"x_min":67,"x_max":875,"o":"m 875 779 l 875 0 l 603 0 l 603 131 q 506 31 569 68 q 356 -7 442 -7 q 144 83 221 -7 q 67 328 67 172 l 67 779 l 339 779 l 339 361 q 374 256 339 294 q 469 218 410 218 q 567 257 531 218 q 603 367 603 296 l 603 779 l 875 779 m 472 949 l 249 828 l 249 1006 l 472 1124 l 693 1006 l 693 828 l 472 949 z "},"ü":{"ha":951,"x_min":67,"x_max":875,"o":"m 875 779 l 875 0 l 603 0 l 603 131 q 506 31 569 68 q 356 -7 442 -7 q 144 83 221 -7 q 67 328 67 172 l 67 779 l 339 779 l 339 361 q 374 256 339 294 q 469 218 410 218 q 567 257 531 218 q 603 367 603 296 l 603 779 l 875 779 m 214 971 q 245 1050 214 1018 q 322 1082 276 1082 q 402 1051 371 1082 q 433 971 433 1019 q 401 894 433 925 q 322 863 369 863 q 245 894 276 863 q 214 971 214 925 m 510 971 q 541 1050 510 1018 q 618 1082 572 1082 q 698 1051 667 1082 q 729 971 729 1019 q 697 894 729 925 q 618 863 665 863 q 541 894 572 863 q 510 971 510 925 z "},"ý":{"ha":910,"x_min":-8,"x_max":919,"o":"m 296 779 l 463 343 l 617 779 l 919 779 l 426 -372 l 126 -372 l 317 33 l -8 779 l 296 779 m 644 971 l 297 833 l 297 1017 l 644 1174 l 644 971 z "},"þ":{"ha":943,"x_min":75,"x_max":908,"o":"m 560 785 q 734 733 654 785 q 861 591 814 682 q 908 385 908 500 q 861 180 908 269 q 735 41 814 90 q 560 -8 656 -8 q 349 106 428 -8 l 349 -372 l 75 -372 l 75 1028 l 349 1028 l 349 689 q 438 762 386 739 q 560 785 489 785 m 490 549 q 392 509 435 549 q 349 390 349 469 q 392 270 349 311 q 490 229 435 229 q 590 267 547 229 q 632 385 632 306 q 590 507 632 465 q 490 549 547 549 z "},"ÿ":{"ha":910,"x_min":-8,"x_max":919,"o":"m 296 779 l 463 343 l 617 779 l 919 779 l 426 -372 l 126 -372 l 317 33 l -8 779 l 296 779 m 197 971 q 228 1050 197 1018 q 306 1082 260 1082 q 385 1051 354 1082 q 417 971 417 1019 q 385 894 417 925 q 306 863 353 863 q 228 894 260 863 q 197 971 197 925 m 493 971 q 524 1050 493 1018 q 601 1082 556 1082 q 681 1051 650 1082 q 713 971 713 1019 q 681 894 713 925 q 601 863 649 863 q 524 894 556 863 q 493 971 493 925 z "},"Ā":{"ha":1044,"x_min":6,"x_max":1039,"o":"m 696 164 l 347 164 l 293 0 l 6 0 l 365 979 l 681 979 l 1039 0 l 750 0 l 696 164 m 628 369 l 522 689 l 415 369 l 628 369 m 811 1257 l 811 1075 l 233 1075 l 233 1257 l 811 1257 z "},"ā":{"ha":943,"x_min":35,"x_max":868,"o":"m 364 789 q 506 753 446 789 q 596 656 567 718 l 596 779 l 868 779 l 868 0 l 596 0 l 596 124 q 506 26 567 61 q 364 -10 446 -10 q 196 38 271 -10 q 78 177 121 86 q 35 390 35 268 q 78 603 35 513 q 196 741 121 693 q 364 789 271 789 m 454 550 q 351 508 390 550 q 311 390 311 465 q 351 272 311 314 q 454 229 390 229 q 556 272 515 229 q 596 390 596 315 q 556 507 596 464 q 454 550 515 550 m 742 1053 l 742 871 l 164 871 l 164 1053 l 742 1053 z "},"Ă":{"ha":1044,"x_min":6,"x_max":1039,"o":"m 696 164 l 347 164 l 293 0 l 6 0 l 365 979 l 681 979 l 1039 0 l 750 0 l 696 164 m 628 369 l 522 689 l 415 369 l 628 369 m 521 1040 q 341 1109 410 1040 q 272 1306 272 1178 l 272 1326 l 400 1326 q 428 1259 400 1282 q 521 1236 456 1236 q 614 1259 586 1236 q 642 1326 642 1282 l 769 1326 l 769 1306 q 701 1109 769 1178 q 521 1040 632 1040 z "},"ă":{"ha":943,"x_min":35,"x_max":868,"o":"m 364 789 q 506 753 446 789 q 596 656 567 718 l 596 779 l 868 779 l 868 0 l 596 0 l 596 124 q 506 26 567 61 q 364 -10 446 -10 q 196 38 271 -10 q 78 177 121 86 q 35 390 35 268 q 78 603 35 513 q 196 741 121 693 q 364 789 271 789 m 454 550 q 351 508 390 550 q 311 390 311 465 q 351 272 311 314 q 454 229 390 229 q 556 272 515 229 q 596 390 596 315 q 556 507 596 464 q 454 550 515 550 m 451 836 q 272 905 340 836 q 203 1101 203 974 l 203 1122 l 331 1122 q 358 1055 331 1078 q 451 1032 386 1032 q 544 1055 517 1032 q 572 1122 572 1078 l 700 1122 l 700 1101 q 631 905 700 974 q 451 836 563 836 z "},"Ą":{"ha":1044,"x_min":6,"x_max":1093,"o":"m 1093 -158 l 1093 -299 l 876 -299 q 734 -260 793 -299 q 675 -135 675 -221 q 750 0 675 -46 l 696 164 l 347 164 l 293 0 l 6 0 l 365 979 l 681 979 l 1032 18 l 1032 -94 l 906 -94 q 869 -103 882 -94 q 857 -126 857 -111 q 870 -150 857 -142 q 906 -158 883 -158 l 1093 -158 m 628 369 l 522 689 l 415 369 l 628 369 z "},"ą":{"ha":943,"x_min":35,"x_max":929,"o":"m 364 789 q 506 753 446 789 q 596 656 567 718 l 596 779 l 868 779 l 868 0 l 596 0 l 596 124 q 506 26 567 61 q 364 -10 446 -10 q 196 38 271 -10 q 78 177 121 86 q 35 390 35 268 q 78 603 35 513 q 196 741 121 693 q 364 789 271 789 m 454 550 q 351 508 390 550 q 311 390 311 465 q 351 272 311 314 q 454 229 390 229 q 556 272 515 229 q 596 390 596 315 q 556 507 596 464 q 454 550 515 550 m 868 31 l 868 -94 l 742 -94 q 706 -103 718 -94 q 693 -125 693 -111 q 706 -149 693 -140 q 742 -158 719 -158 l 929 -158 l 929 -299 l 714 -299 q 571 -259 631 -299 q 511 -133 511 -219 q 539 -40 511 -76 q 608 14 567 -3 q 689 31 649 31 l 868 31 z "},"Ć":{"ha":1049,"x_min":47,"x_max":1001,"o":"m 529 993 q 755 947 656 993 q 917 815 854 900 q 1001 617 979 729 l 714 617 q 640 708 690 675 q 525 740 590 740 q 379 673 435 740 q 324 493 324 606 q 379 313 324 381 q 525 244 435 244 q 640 278 590 244 q 714 369 690 311 l 1001 369 q 844 95 968 197 q 529 -7 719 -7 q 274 56 383 -7 q 106 233 165 119 q 47 493 47 347 q 106 753 47 639 q 274 930 165 867 q 529 993 383 993 m 714 1175 l 367 1038 l 367 1221 l 714 1378 l 714 1175 z "},"ć":{"ha":849,"x_min":35,"x_max":814,"o":"m 431 789 q 685 705 582 789 q 814 472 788 621 l 525 472 q 490 534 515 513 q 424 556 464 556 q 342 513 374 556 q 311 390 311 471 q 342 267 311 308 q 424 225 374 225 q 490 247 464 225 q 525 308 515 268 l 814 308 q 685 75 788 160 q 431 -10 582 -10 q 224 38 314 -10 q 85 177 135 86 q 35 390 35 268 q 85 603 35 513 q 225 741 135 693 q 431 789 315 789 m 614 971 l 267 833 l 267 1017 l 614 1174 l 614 971 z "},"Ċ":{"ha":1049,"x_min":47,"x_max":1001,"o":"m 529 993 q 755 947 656 993 q 917 815 854 900 q 1001 617 979 729 l 714 617 q 640 708 690 675 q 525 740 590 740 q 379 673 435 740 q 324 493 324 606 q 379 313 324 381 q 525 244 435 244 q 640 278 590 244 q 714 369 690 311 l 1001 369 q 844 95 968 197 q 529 -7 719 -7 q 274 56 383 -7 q 106 233 165 119 q 47 493 47 347 q 106 753 47 639 q 274 930 165 867 q 529 993 383 993 m 414 1175 q 445 1254 414 1222 q 522 1286 476 1286 q 602 1255 571 1286 q 633 1175 633 1224 q 601 1098 633 1129 q 522 1067 569 1067 q 445 1098 476 1067 q 414 1175 414 1129 z "},"ċ":{"ha":849,"x_min":35,"x_max":814,"o":"m 431 789 q 685 705 582 789 q 814 472 788 621 l 525 472 q 490 534 515 513 q 424 556 464 556 q 342 513 374 556 q 311 390 311 471 q 342 267 311 308 q 424 225 374 225 q 490 247 464 225 q 525 308 515 268 l 814 308 q 685 75 788 160 q 431 -10 582 -10 q 224 38 314 -10 q 85 177 135 86 q 35 390 35 268 q 85 603 35 513 q 225 741 135 693 q 431 789 315 789 m 315 971 q 347 1050 315 1018 q 424 1082 378 1082 q 503 1051 472 1082 q 535 971 535 1019 q 503 894 535 925 q 424 863 471 863 q 347 894 378 863 q 315 971 315 925 z "},"Č":{"ha":1049,"x_min":47,"x_max":1001,"o":"m 529 993 q 755 947 656 993 q 917 815 854 900 q 1001 617 979 729 l 714 617 q 640 708 690 675 q 525 740 590 740 q 379 673 435 740 q 324 493 324 606 q 379 313 324 381 q 525 244 435 244 q 640 278 590 244 q 714 369 690 311 l 1001 369 q 844 95 968 197 q 529 -7 719 -7 q 274 56 383 -7 q 106 233 165 119 q 47 493 47 347 q 106 753 47 639 q 274 930 165 867 q 529 993 383 993 m 747 1149 l 526 1031 l 303 1149 l 303 1326 l 526 1206 l 747 1326 l 747 1149 z "},"č":{"ha":849,"x_min":35,"x_max":814,"o":"m 431 789 q 685 705 582 789 q 814 472 788 621 l 525 472 q 490 534 515 513 q 424 556 464 556 q 342 513 374 556 q 311 390 311 471 q 342 267 311 308 q 424 225 374 225 q 490 247 464 225 q 525 308 515 268 l 814 308 q 685 75 788 160 q 431 -10 582 -10 q 224 38 314 -10 q 85 177 135 86 q 35 390 35 268 q 85 603 35 513 q 225 741 135 693 q 431 789 315 789 m 647 944 l 426 826 l 203 944 l 203 1122 l 426 1001 l 647 1122 l 647 944 z "},"Ď":{"ha":1025,"x_min":75,"x_max":978,"o":"m 978 494 q 915 240 978 351 q 738 64 853 128 q 467 0 622 0 l 75 0 l 75 983 l 467 983 q 738 922 622 983 q 916 749 854 860 q 978 494 978 638 m 442 244 q 632 310 563 244 q 701 494 701 375 q 632 678 701 613 q 442 744 563 744 l 349 744 l 349 244 l 442 244 m 749 1149 l 528 1031 l 304 1149 l 304 1326 l 528 1206 l 749 1326 l 749 1149 z "},"ď":{"ha":1189,"x_min":35,"x_max":1182,"o":"m 364 789 q 506 753 446 789 q 594 656 565 718 l 594 1028 l 868 1028 l 868 0 l 594 0 l 594 124 q 506 26 565 61 q 364 -10 446 -10 q 196 38 271 -10 q 78 177 121 86 q 35 390 35 268 q 78 603 35 513 q 196 741 121 693 q 364 789 271 789 m 1150 1028 q 1182 853 1182 940 q 1128 688 1182 751 q 969 625 1075 625 l 969 724 q 1044 822 1044 724 l 1044 842 l 950 842 l 950 1028 l 1150 1028 m 454 550 q 351 508 390 550 q 311 390 311 465 q 351 272 311 314 q 454 229 390 229 q 556 272 515 229 q 596 390 596 315 q 556 507 596 464 q 454 550 515 550 z "},"Đ":{"ha":1032,"x_min":1,"x_max":985,"o":"m 474 983 q 745 922 629 983 q 923 749 861 860 q 985 494 985 638 q 922 240 985 351 q 744 64 860 128 q 474 0 629 0 l 82 0 l 82 385 l 1 385 l 1 603 l 82 603 l 82 983 l 474 983 m 449 244 q 639 310 569 244 q 708 494 708 375 q 639 678 708 613 q 449 744 569 744 l 356 744 l 356 603 l 554 603 l 554 385 l 356 385 l 356 244 l 449 244 z "},"đ":{"ha":971,"x_min":35,"x_max":957,"o":"m 957 832 l 868 832 l 868 0 l 594 0 l 594 124 q 506 26 565 61 q 364 -10 446 -10 q 196 38 271 -10 q 78 177 121 86 q 35 390 35 268 q 78 603 35 513 q 196 741 121 693 q 364 789 271 789 q 506 753 446 789 q 594 656 565 718 l 594 832 l 488 832 l 488 953 l 594 953 l 594 1028 l 868 1028 l 868 953 l 957 953 l 957 832 m 454 229 q 556 272 515 229 q 596 390 596 315 q 556 507 596 464 q 454 550 515 550 q 351 508 390 550 q 311 390 311 465 q 351 272 311 314 q 454 229 390 229 z "},"Ē":{"ha":758,"x_min":75,"x_max":708,"o":"m 349 765 l 349 603 l 667 603 l 667 396 l 349 396 l 349 218 l 708 218 l 708 0 l 75 0 l 75 983 l 708 983 l 708 765 l 349 765 m 682 1257 l 682 1075 l 104 1075 l 104 1257 l 682 1257 z "},"ē":{"ha":858,"x_min":35,"x_max":824,"o":"m 824 404 q 817 340 824 375 l 301 340 q 417 208 308 208 q 483 228 457 208 q 519 279 510 247 l 808 279 q 740 131 793 197 q 607 28 688 65 q 431 -10 526 -10 q 224 38 314 -10 q 85 177 135 86 q 35 390 35 268 q 85 603 35 513 q 225 741 135 693 q 431 789 315 789 q 636 742 547 789 q 774 607 725 694 q 824 404 824 519 m 546 454 q 514 544 547 514 q 431 575 481 575 q 342 544 376 575 q 303 454 308 514 l 546 454 m 719 1053 l 719 871 l 142 871 l 142 1053 l 719 1053 z "},"Ĕ":{"ha":758,"x_min":75,"x_max":708,"o":"m 349 765 l 349 603 l 667 603 l 667 396 l 349 396 l 349 218 l 708 218 l 708 0 l 75 0 l 75 983 l 708 983 l 708 765 l 349 765 m 392 1040 q 212 1109 281 1040 q 143 1306 143 1178 l 143 1326 l 271 1326 q 299 1259 271 1282 q 392 1236 326 1236 q 485 1259 457 1236 q 513 1326 513 1282 l 640 1326 l 640 1306 q 572 1109 640 1178 q 392 1040 503 1040 z "},"ĕ":{"ha":858,"x_min":35,"x_max":824,"o":"m 824 404 q 817 340 824 375 l 301 340 q 417 208 308 208 q 483 228 457 208 q 519 279 510 247 l 808 279 q 740 131 793 197 q 607 28 688 65 q 431 -10 526 -10 q 224 38 314 -10 q 85 177 135 86 q 35 390 35 268 q 85 603 35 513 q 225 741 135 693 q 431 789 315 789 q 636 742 547 789 q 774 607 725 694 q 824 404 824 519 m 546 454 q 514 544 547 514 q 431 575 481 575 q 342 544 376 575 q 303 454 308 514 l 546 454 m 429 836 q 249 905 318 836 q 181 1101 181 974 l 181 1122 l 308 1122 q 336 1055 308 1078 q 429 1032 364 1032 q 522 1055 494 1032 q 550 1122 550 1078 l 678 1122 l 678 1101 q 609 905 678 974 q 429 836 540 836 z "},"Ė":{"ha":758,"x_min":75,"x_max":708,"o":"m 349 765 l 349 603 l 667 603 l 667 396 l 349 396 l 349 218 l 708 218 l 708 0 l 75 0 l 75 983 l 708 983 l 708 765 l 349 765 m 283 1175 q 315 1254 283 1222 q 392 1286 346 1286 q 472 1255 440 1286 q 503 1175 503 1224 q 471 1098 503 1129 q 392 1067 439 1067 q 315 1098 346 1067 q 283 1175 283 1129 z "},"ė":{"ha":858,"x_min":35,"x_max":824,"o":"m 824 404 q 817 340 824 375 l 301 340 q 417 208 308 208 q 483 228 457 208 q 519 279 510 247 l 808 279 q 740 131 793 197 q 607 28 688 65 q 431 -10 526 -10 q 224 38 314 -10 q 85 177 135 86 q 35 390 35 268 q 85 603 35 513 q 225 741 135 693 q 431 789 315 789 q 636 742 547 789 q 774 607 725 694 q 824 404 824 519 m 546 454 q 514 544 547 514 q 431 575 481 575 q 342 544 376 575 q 303 454 308 514 l 546 454 m 319 971 q 351 1050 319 1018 q 428 1082 382 1082 q 508 1051 476 1082 q 539 971 539 1019 q 507 894 539 925 q 428 863 475 863 q 351 894 382 863 q 319 971 319 925 z "},"Ę":{"ha":758,"x_min":75,"x_max":715,"o":"m 349 765 l 349 603 l 667 603 l 667 396 l 349 396 l 349 218 l 708 218 l 708 0 l 75 0 l 75 983 l 708 983 l 708 765 l 349 765 m 654 121 l 654 -4 l 528 -4 q 492 -12 504 -4 q 479 -35 479 -21 q 492 -59 479 -50 q 528 -68 506 -68 l 715 -68 l 715 -208 l 500 -208 q 357 -169 417 -208 q 297 -43 297 -129 q 325 51 297 14 q 394 104 353 88 q 475 121 435 121 l 654 121 z "},"ę":{"ha":858,"x_min":35,"x_max":824,"o":"m 824 404 q 817 340 824 375 l 301 340 q 338 240 306 271 q 418 208 371 208 q 484 228 458 208 q 519 279 510 247 l 808 279 q 715 102 789 176 q 533 3 642 28 q 511 -7 518 0 q 504 -26 504 -14 q 564 -61 504 -61 l 728 -61 l 728 -201 l 524 -201 q 382 -162 442 -201 q 322 -36 322 -122 l 322 4 q 113 135 190 33 q 35 390 35 236 q 85 603 35 513 q 225 741 135 693 q 431 789 315 789 q 636 742 547 789 q 774 607 725 694 q 824 404 824 519 m 546 454 q 514 544 547 514 q 431 575 481 575 q 342 544 376 575 q 303 454 308 514 l 546 454 z "},"Ě":{"ha":758,"x_min":75,"x_max":708,"o":"m 349 765 l 349 603 l 667 603 l 667 396 l 349 396 l 349 218 l 708 218 l 708 0 l 75 0 l 75 983 l 708 983 l 708 765 l 349 765 m 615 1149 l 394 1031 l 171 1149 l 171 1326 l 394 1206 l 615 1326 l 615 1149 z "},"ě":{"ha":858,"x_min":35,"x_max":824,"o":"m 824 404 q 817 340 824 375 l 301 340 q 417 208 308 208 q 483 228 457 208 q 519 279 510 247 l 808 279 q 740 131 793 197 q 607 28 688 65 q 431 -10 526 -10 q 224 38 314 -10 q 85 177 135 86 q 35 390 35 268 q 85 603 35 513 q 225 741 135 693 q 431 789 315 789 q 636 742 547 789 q 774 607 725 694 q 824 404 824 519 m 546 454 q 514 544 547 514 q 431 575 481 575 q 342 544 376 575 q 303 454 308 514 l 546 454 m 651 944 l 431 826 l 207 944 l 207 1122 l 431 1001 l 651 1122 l 651 944 z "},"Ğ":{"ha":1051,"x_min":47,"x_max":1004,"o":"m 540 992 q 850 900 729 992 q 996 653 971 808 l 708 653 q 643 717 686 693 q 542 740 600 740 q 383 673 442 740 q 324 493 324 606 q 387 299 324 365 q 572 233 450 233 q 694 267 642 233 q 778 365 747 300 l 506 365 l 506 560 l 1004 560 l 1004 289 q 835 80 951 167 q 543 -7 719 -7 q 281 56 393 -7 q 108 233 168 119 q 47 493 47 347 q 108 752 47 639 q 279 928 168 865 q 540 992 390 992 m 526 1040 q 347 1109 415 1040 q 278 1306 278 1178 l 278 1326 l 406 1326 q 433 1259 406 1282 q 526 1236 461 1236 q 619 1259 592 1236 q 647 1326 647 1282 l 775 1326 l 775 1306 q 706 1109 775 1178 q 526 1040 638 1040 z "},"ğ":{"ha":943,"x_min":35,"x_max":868,"o":"m 364 789 q 506 753 446 789 q 596 656 567 718 l 596 779 l 868 779 l 868 8 q 826 -188 868 -100 q 697 -329 785 -276 q 476 -382 610 -382 q 187 -297 294 -382 q 61 -65 79 -212 l 329 -65 q 371 -125 339 -104 q 457 -146 403 -146 q 596 8 596 -146 l 596 124 q 506 26 567 61 q 364 -10 446 -10 q 196 38 271 -10 q 78 177 121 86 q 35 390 35 268 q 78 603 35 513 q 196 741 121 693 q 364 789 271 789 m 454 550 q 351 508 390 550 q 311 390 311 465 q 351 272 311 314 q 454 229 390 229 q 556 272 515 229 q 596 390 596 315 q 556 507 596 464 q 454 550 515 550 m 451 836 q 272 905 340 836 q 203 1101 203 974 l 203 1122 l 331 1122 q 358 1055 331 1078 q 451 1032 386 1032 q 544 1055 517 1032 q 572 1122 572 1078 l 700 1122 l 700 1101 q 631 905 700 974 q 451 836 563 836 z "},"Ġ":{"ha":1051,"x_min":47,"x_max":1004,"o":"m 540 992 q 850 900 729 992 q 996 653 971 808 l 708 653 q 643 717 686 693 q 542 740 600 740 q 383 673 442 740 q 324 493 324 606 q 387 299 324 365 q 572 233 450 233 q 694 267 642 233 q 778 365 747 300 l 506 365 l 506 560 l 1004 560 l 1004 289 q 835 80 951 167 q 543 -7 719 -7 q 281 56 393 -7 q 108 233 168 119 q 47 493 47 347 q 108 752 47 639 q 279 928 168 865 q 540 992 390 992 m 417 1175 q 448 1254 417 1222 q 525 1286 479 1286 q 605 1255 574 1286 q 636 1175 636 1224 q 604 1098 636 1129 q 525 1067 572 1067 q 448 1098 479 1067 q 417 1175 417 1129 z "},"ġ":{"ha":943,"x_min":35,"x_max":868,"o":"m 364 789 q 506 753 446 789 q 596 656 567 718 l 596 779 l 868 779 l 868 8 q 826 -188 868 -100 q 697 -329 785 -276 q 476 -382 610 -382 q 187 -297 294 -382 q 61 -65 79 -212 l 329 -65 q 371 -125 339 -104 q 457 -146 403 -146 q 596 8 596 -146 l 596 124 q 506 26 567 61 q 364 -10 446 -10 q 196 38 271 -10 q 78 177 121 86 q 35 390 35 268 q 78 603 35 513 q 196 741 121 693 q 364 789 271 789 m 454 550 q 351 508 390 550 q 311 390 311 465 q 351 272 311 314 q 454 229 390 229 q 556 272 515 229 q 596 390 596 315 q 556 507 596 464 q 454 550 515 550 m 342 971 q 373 1050 342 1018 q 450 1082 404 1082 q 530 1051 499 1082 q 561 971 561 1019 q 529 894 561 925 q 450 863 497 863 q 373 894 404 863 q 342 971 342 925 z "},"Ģ":{"ha":1057,"x_min":47,"x_max":1004,"o":"m 540 992 q 850 900 729 992 q 996 653 971 808 l 708 653 q 643 717 686 693 q 542 740 600 740 q 383 673 442 740 q 324 493 324 606 q 387 299 324 365 q 572 233 450 233 q 694 267 642 233 q 778 365 747 300 l 506 365 l 506 560 l 1004 560 l 1004 289 q 835 80 951 167 q 543 -7 719 -7 q 281 56 393 -7 q 108 233 168 119 q 47 493 47 347 q 108 752 47 639 q 279 928 168 865 q 540 992 390 992 m 626 -53 q 658 -222 658 -136 q 604 -388 658 -325 q 446 -451 550 -451 l 446 -353 q 521 -253 521 -353 l 521 -237 l 428 -237 l 428 -53 l 626 -53 z "},"ģ":{"ha":943,"x_min":35,"x_max":868,"o":"m 394 831 q 363 1007 363 915 q 416 1172 363 1108 q 574 1235 469 1235 l 574 1136 q 499 1038 499 1136 l 499 1019 l 593 1019 l 593 831 l 394 831 m 364 789 q 506 753 446 789 q 596 656 567 718 l 596 779 l 868 779 l 868 8 q 826 -188 868 -100 q 697 -329 785 -276 q 476 -382 610 -382 q 187 -297 294 -382 q 61 -65 79 -212 l 329 -65 q 371 -125 339 -104 q 457 -146 403 -146 q 596 8 596 -146 l 596 124 q 506 26 567 61 q 364 -10 446 -10 q 196 38 271 -10 q 78 177 121 86 q 35 390 35 268 q 78 603 35 513 q 196 741 121 693 q 364 789 271 789 m 454 550 q 351 508 390 550 q 311 390 311 465 q 351 272 311 314 q 454 229 390 229 q 556 272 515 229 q 596 390 596 315 q 556 507 596 464 q 454 550 515 550 z "},"Ĩ":{"ha":425,"x_min":-86,"x_max":511,"o":"m 349 983 l 349 0 l 75 0 l 75 983 l 349 983 m 119 1278 q 179 1268 153 1278 q 239 1240 206 1258 q 281 1220 265 1226 q 314 1214 297 1214 q 375 1279 365 1214 l 511 1279 q 439 1108 492 1161 q 304 1056 386 1056 q 247 1065 272 1056 q 186 1092 222 1074 q 144 1111 161 1104 q 110 1118 126 1118 q 49 1053 61 1118 l -86 1053 q -14 1224 -65 1171 q 119 1278 38 1278 z "},"ĩ":{"ha":485,"x_min":-56,"x_max":542,"o":"m 379 779 l 379 0 l 106 0 l 106 779 l 379 779 m 150 1074 q 210 1064 183 1074 q 269 1036 236 1054 q 312 1016 296 1022 q 344 1010 328 1010 q 406 1075 396 1010 l 542 1075 q 469 904 522 957 q 335 851 417 851 q 278 860 303 851 q 217 888 253 869 q 174 907 192 900 q 140 914 157 914 q 79 849 92 914 l -56 849 q 17 1020 -35 967 q 150 1074 68 1074 z "},"Ī":{"ha":425,"x_min":-75,"x_max":503,"o":"m 349 983 l 349 0 l 75 0 l 75 983 l 349 983 m 503 1257 l 503 1075 l -75 1075 l -75 1257 l 503 1257 z "},"ī":{"ha":485,"x_min":-46,"x_max":532,"o":"m 379 779 l 379 0 l 106 0 l 106 779 l 379 779 m 532 1053 l 532 871 l -46 871 l -46 1053 l 532 1053 z "},"Ĭ":{"ha":425,"x_min":-36,"x_max":461,"o":"m 349 983 l 349 0 l 75 0 l 75 983 l 349 983 m 213 1040 q 33 1109 101 1040 q -36 1306 -36 1178 l -36 1326 l 92 1326 q 119 1259 92 1282 q 213 1236 147 1236 q 306 1259 278 1236 q 333 1326 333 1282 l 461 1326 l 461 1306 q 392 1109 461 1178 q 213 1040 324 1040 z "},"ĭ":{"ha":485,"x_min":-6,"x_max":492,"o":"m 379 779 l 379 0 l 106 0 l 106 779 l 379 779 m 243 836 q 63 905 132 836 q -6 1101 -6 974 l -6 1122 l 122 1122 q 150 1055 122 1078 q 243 1032 178 1032 q 336 1055 308 1032 q 364 1122 364 1078 l 492 1122 l 492 1101 q 423 905 492 974 q 243 836 354 836 z "},"Į":{"ha":425,"x_min":-8,"x_max":410,"o":"m 349 983 l 349 0 l 75 0 l 75 983 l 349 983 m 349 31 l 349 -94 l 222 -94 q 186 -103 199 -94 q 174 -125 174 -111 q 187 -149 174 -140 q 222 -158 200 -158 l 410 -158 l 410 -299 l 194 -299 q 51 -259 111 -299 q -8 -133 -8 -219 q 19 -40 -8 -76 q 88 14 47 -3 q 169 31 129 31 l 349 31 z "},"į":{"ha":425,"x_min":-8,"x_max":410,"o":"m 53 994 q 97 1095 53 1056 q 214 1135 142 1135 q 329 1095 286 1135 q 372 994 372 1056 q 328 897 372 936 q 214 858 285 858 q 97 897 142 858 q 53 994 53 936 m 349 779 l 349 0 l 75 0 l 75 779 l 349 779 m 349 31 l 349 -94 l 222 -94 q 186 -103 199 -94 q 174 -125 174 -111 q 187 -149 174 -140 q 222 -158 200 -158 l 410 -158 l 410 -299 l 194 -299 q 51 -259 111 -299 q -8 -133 -8 -219 q 19 -40 -8 -76 q 88 14 47 -3 q 169 31 129 31 l 349 31 z "},"İ":{"ha":425,"x_min":75,"x_max":349,"o":"m 349 983 l 349 0 l 75 0 l 75 983 l 349 983 m 103 1175 q 134 1254 103 1222 q 211 1286 165 1286 q 291 1255 260 1286 q 322 1175 322 1224 q 290 1098 322 1129 q 211 1067 258 1067 q 134 1098 165 1067 q 103 1175 103 1129 z "},"ı":{"ha":485,"x_min":106,"x_max":379,"o":"m 379 779 l 379 0 l 106 0 l 106 779 l 379 779 z "},"Ķ":{"ha":1056,"x_min":75,"x_max":988,"o":"m 607 503 l 988 0 l 658 0 l 349 435 l 349 0 l 75 0 l 75 983 l 349 983 l 349 558 l 661 983 l 988 983 l 607 503 m 624 -53 q 654 -222 654 -133 q 601 -387 654 -324 q 444 -451 547 -451 l 444 -353 q 518 -253 518 -353 l 518 -237 l 425 -237 l 425 -53 l 624 -53 z "},"ķ":{"ha":890,"x_min":75,"x_max":889,"o":"m 349 0 l 75 0 l 75 1028 l 349 1028 l 349 476 l 563 779 l 881 779 l 578 389 l 889 0 l 561 0 l 349 322 l 349 0 m 547 -53 q 578 -222 578 -133 q 524 -387 578 -324 q 368 -451 471 -451 l 368 -353 q 442 -253 442 -353 l 442 -237 l 349 -237 l 349 -53 l 547 -53 z "},"Ĺ":{"ha":683,"x_min":75,"x_max":656,"o":"m 349 207 l 656 207 l 656 0 l 75 0 l 75 983 l 349 983 l 349 207 m 532 1175 l 185 1038 l 185 1221 l 532 1378 l 532 1175 z "},"ĺ":{"ha":425,"x_min":75,"x_max":424,"o":"m 349 1028 l 349 0 l 75 0 l 75 1028 l 349 1028 m 424 1188 l 76 1050 l 76 1233 l 424 1390 l 424 1188 z "},"Ļ":{"ha":690,"x_min":75,"x_max":656,"o":"m 349 207 l 656 207 l 656 0 l 75 0 l 75 983 l 349 983 l 349 207 m 490 -53 q 522 -222 522 -142 q 468 -387 522 -324 q 310 -451 414 -451 l 310 -353 q 385 -253 385 -353 l 385 -237 l 292 -237 l 292 -53 l 490 -53 z "},"ļ":{"ha":425,"x_min":75,"x_max":349,"o":"m 349 1028 l 349 0 l 75 0 l 75 1028 l 349 1028 m 315 -53 q 347 -222 347 -136 q 293 -387 347 -324 q 136 -451 239 -451 l 136 -353 q 210 -253 210 -353 l 210 -237 l 118 -237 l 118 -53 l 315 -53 z "},"Ľ":{"ha":769,"x_min":75,"x_max":719,"o":"m 349 207 l 656 207 l 656 0 l 75 0 l 75 983 l 349 983 l 349 207 m 688 983 q 719 808 719 900 q 666 642 719 706 q 508 579 613 579 l 508 679 q 583 776 583 679 l 583 796 l 489 796 l 489 983 l 688 983 z "},"ľ":{"ha":660,"x_min":75,"x_max":654,"o":"m 349 1028 l 349 0 l 75 0 l 75 1028 l 349 1028 m 622 1028 q 654 853 654 940 q 601 688 654 751 q 443 625 547 625 l 443 724 q 517 822 517 724 l 517 842 l 424 842 l 424 1028 l 622 1028 z "},"Ŀ":{"ha":683,"x_min":75,"x_max":657,"o":"m 349 207 l 656 207 l 656 0 l 75 0 l 75 983 l 349 983 l 349 207 m 438 490 q 469 569 438 538 q 546 601 500 601 q 626 570 594 601 q 657 490 657 539 q 625 413 657 444 q 546 382 593 382 q 469 413 500 382 q 438 490 438 444 z "},"ŀ":{"ha":513,"x_min":75,"x_max":578,"o":"m 349 1028 l 349 0 l 75 0 l 75 1028 l 349 1028 m 358 513 q 390 592 358 560 q 467 624 421 624 q 547 592 515 624 q 578 513 578 561 q 546 435 578 467 q 467 404 514 404 q 390 435 421 404 q 358 513 358 467 z "},"Ł":{"ha":706,"x_min":14,"x_max":678,"o":"m 678 207 l 678 0 l 97 0 l 97 347 l 14 322 l 14 589 l 97 614 l 97 983 l 371 983 l 371 694 l 490 729 l 490 464 l 371 428 l 371 207 l 678 207 z "},"ł":{"ha":489,"x_min":14,"x_max":475,"o":"m 475 479 l 381 451 l 381 0 l 108 0 l 108 369 l 14 342 l 14 608 l 108 636 l 108 1028 l 381 1028 l 381 717 l 475 744 l 475 479 z "},"Ń":{"ha":1060,"x_min":75,"x_max":983,"o":"m 983 0 l 710 0 l 349 549 l 349 0 l 75 0 l 75 982 l 349 982 l 710 426 l 710 982 l 983 982 l 983 0 m 719 1175 l 372 1038 l 372 1221 l 719 1378 l 719 1175 z "},"ń":{"ha":954,"x_min":75,"x_max":883,"o":"m 596 786 q 807 697 731 786 q 883 453 883 607 l 883 0 l 613 0 l 613 418 q 577 524 613 486 q 482 563 542 563 q 385 523 421 563 q 349 414 349 483 l 349 0 l 75 0 l 75 779 l 349 779 l 349 649 q 446 749 382 711 q 596 786 510 786 m 669 971 l 322 833 l 322 1017 l 669 1174 l 669 971 z "},"Ņ":{"ha":1119,"x_min":75,"x_max":983,"o":"m 983 0 l 710 0 l 349 549 l 349 0 l 75 0 l 75 982 l 349 982 l 710 426 l 710 982 l 983 982 l 983 0 m 656 -53 q 688 -222 688 -136 q 634 -388 688 -325 q 476 -451 581 -451 l 476 -353 q 550 -253 550 -353 l 550 -237 l 457 -237 l 457 -53 l 656 -53 z "},"ņ":{"ha":954,"x_min":75,"x_max":883,"o":"m 596 786 q 807 697 731 786 q 883 453 883 607 l 883 0 l 613 0 l 613 418 q 577 524 613 486 q 482 563 542 563 q 385 523 421 563 q 349 414 349 483 l 349 0 l 75 0 l 75 779 l 349 779 l 349 649 q 446 749 382 711 q 596 786 510 786 m 604 -53 q 635 -222 635 -133 q 581 -387 635 -324 q 425 -451 528 -451 l 425 -353 q 499 -253 499 -353 l 499 -237 l 406 -237 l 406 -53 l 604 -53 z "},"Ň":{"ha":1060,"x_min":75,"x_max":983,"o":"m 983 0 l 710 0 l 349 549 l 349 0 l 75 0 l 75 982 l 349 982 l 710 426 l 710 982 l 983 982 l 983 0 m 751 1149 l 531 1031 l 307 1149 l 307 1326 l 531 1206 l 751 1326 l 751 1149 z "},"ň":{"ha":954,"x_min":75,"x_max":883,"o":"m 596 786 q 807 697 731 786 q 883 453 883 607 l 883 0 l 613 0 l 613 418 q 577 524 613 486 q 482 563 542 563 q 385 523 421 563 q 349 414 349 483 l 349 0 l 75 0 l 75 779 l 349 779 l 349 649 q 446 749 382 711 q 596 786 510 786 m 701 944 l 481 826 l 257 944 l 257 1122 l 481 1001 l 701 1122 l 701 944 z "},"Ō":{"ha":1096,"x_min":47,"x_max":1049,"o":"m 549 999 q 802 934 688 999 q 983 754 917 869 q 1049 494 1049 639 q 982 235 1049 350 q 801 55 915 119 q 549 -10 686 -10 q 296 55 411 -10 q 114 235 181 119 q 47 494 47 350 q 114 754 47 639 q 296 934 181 869 q 549 999 411 999 m 549 746 q 385 678 444 746 q 325 494 325 611 q 385 313 325 381 q 549 244 444 244 q 711 313 651 244 q 771 494 771 381 q 712 678 771 611 q 549 746 653 746 m 838 1257 l 838 1075 l 260 1075 l 260 1257 l 838 1257 z "},"ō":{"ha":885,"x_min":35,"x_max":850,"o":"m 443 789 q 652 741 560 789 q 797 602 744 693 q 850 390 850 511 q 797 178 850 268 q 652 39 744 88 q 443 -10 560 -10 q 233 39 326 -10 q 88 178 140 88 q 35 390 35 268 q 88 603 35 513 q 233 741 140 693 q 443 789 326 789 m 443 553 q 349 511 386 553 q 311 390 311 469 q 349 268 311 310 q 443 226 386 226 q 536 269 499 226 q 574 390 574 311 q 536 511 574 469 q 443 553 499 553 m 733 1053 l 733 871 l 156 871 l 156 1053 l 733 1053 z "},"Ŏ":{"ha":1096,"x_min":47,"x_max":1049,"o":"m 549 999 q 802 934 688 999 q 983 754 917 869 q 1049 494 1049 639 q 982 235 1049 350 q 801 55 915 119 q 549 -10 686 -10 q 296 55 411 -10 q 114 235 181 119 q 47 494 47 350 q 114 754 47 639 q 296 934 181 869 q 549 999 411 999 m 549 746 q 385 678 444 746 q 325 494 325 611 q 385 313 325 381 q 549 244 444 244 q 711 313 651 244 q 771 494 771 381 q 712 678 771 611 q 549 746 653 746 m 547 1040 q 367 1109 436 1040 q 299 1306 299 1178 l 299 1326 l 426 1326 q 454 1259 426 1282 q 547 1236 482 1236 q 640 1259 613 1236 q 668 1326 668 1282 l 796 1326 l 796 1306 q 727 1109 796 1178 q 547 1040 658 1040 z "},"ŏ":{"ha":885,"x_min":35,"x_max":850,"o":"m 443 789 q 652 741 560 789 q 797 602 744 693 q 850 390 850 511 q 797 178 850 268 q 652 39 744 88 q 443 -10 560 -10 q 233 39 326 -10 q 88 178 140 88 q 35 390 35 268 q 88 603 35 513 q 233 741 140 693 q 443 789 326 789 m 443 553 q 349 511 386 553 q 311 390 311 469 q 349 268 311 310 q 443 226 386 226 q 536 269 499 226 q 574 390 574 311 q 536 511 574 469 q 443 553 499 553 m 443 836 q 263 905 332 836 q 194 1101 194 974 l 194 1122 l 322 1122 q 350 1055 322 1078 q 443 1032 378 1032 q 536 1055 508 1032 q 564 1122 564 1078 l 692 1122 l 692 1101 q 623 905 692 974 q 443 836 554 836 z "},"Ő":{"ha":1096,"x_min":47,"x_max":1049,"o":"m 549 999 q 802 934 688 999 q 983 754 917 869 q 1049 494 1049 639 q 982 235 1049 350 q 801 55 915 119 q 549 -10 686 -10 q 296 55 411 -10 q 114 235 181 119 q 47 494 47 350 q 114 754 47 639 q 296 934 181 869 q 549 999 411 999 m 549 746 q 385 678 444 746 q 325 494 325 611 q 385 313 325 381 q 549 244 444 244 q 711 313 651 244 q 771 494 771 381 q 712 678 771 611 q 549 746 653 746 m 474 1039 l 308 1039 l 415 1354 l 624 1354 l 474 1039 m 760 1039 l 594 1039 l 733 1354 l 942 1354 l 760 1039 z "},"ő":{"ha":885,"x_min":35,"x_max":850,"o":"m 443 789 q 652 741 560 789 q 797 602 744 693 q 850 390 850 511 q 797 178 850 268 q 652 39 744 88 q 443 -10 560 -10 q 233 39 326 -10 q 88 178 140 88 q 35 390 35 268 q 88 603 35 513 q 233 741 140 693 q 443 789 326 789 m 443 553 q 349 511 386 553 q 311 390 311 469 q 349 268 311 310 q 443 226 386 226 q 536 269 499 226 q 574 390 574 311 q 536 511 574 469 q 443 553 499 553 m 382 835 l 217 835 l 324 1150 l 532 1150 l 382 835 m 668 835 l 503 835 l 642 1150 l 850 1150 l 668 835 z "},"Œ":{"ha":1467,"x_min":47,"x_max":1417,"o":"m 1057 603 l 1375 603 l 1375 396 l 1057 396 l 1057 218 l 1417 218 l 1417 0 l 783 0 l 783 86 q 674 13 742 39 q 528 -17 606 -14 q 281 48 390 -17 q 109 228 171 113 q 47 492 47 344 q 109 754 47 639 q 281 934 171 869 q 528 999 390 999 q 672 972 603 999 q 783 896 740 944 l 783 983 l 1417 983 l 1417 765 l 1057 765 l 1057 603 m 549 236 q 712 305 653 236 q 771 492 771 374 q 712 677 771 608 q 549 746 653 746 q 385 678 444 746 q 325 492 325 610 q 385 305 325 374 q 549 236 444 236 z "},"œ":{"ha":1439,"x_min":35,"x_max":1372,"o":"m 1372 404 q 1367 340 1372 368 l 850 340 q 967 208 858 208 q 1033 228 1007 208 q 1069 279 1060 247 l 1358 279 q 1290 131 1343 197 q 1157 28 1238 65 q 979 -10 1076 -10 q 831 17 899 -10 q 714 92 763 43 q 594 17 664 43 q 443 -10 524 -10 q 233 39 326 -10 q 88 178 140 88 q 35 390 35 268 q 88 603 35 513 q 233 741 140 693 q 443 789 326 789 q 594 763 524 789 q 714 688 664 736 q 831 763 763 736 q 979 789 899 789 q 1185 742 1096 789 q 1323 607 1274 694 q 1372 404 1372 519 m 1096 454 q 1063 544 1097 514 q 979 575 1029 575 q 892 544 926 575 q 851 454 858 514 l 1096 454 m 443 226 q 536 269 499 226 q 574 390 574 311 q 536 511 574 469 q 443 553 499 553 q 349 511 386 553 q 311 390 311 469 q 349 268 311 310 q 443 226 386 226 z "},"Ŕ":{"ha":907,"x_min":75,"x_max":876,"o":"m 575 0 l 376 363 l 349 363 l 349 0 l 75 0 l 75 983 l 507 983 q 708 942 625 983 q 832 829 790 901 q 874 667 874 757 q 817 488 874 564 q 653 382 760 413 l 876 0 l 575 0 m 349 546 l 483 546 q 597 649 597 546 q 569 725 597 697 q 483 753 540 753 l 349 753 l 349 546 m 667 1175 l 319 1038 l 319 1221 l 667 1378 l 667 1175 z "},"ŕ":{"ha":626,"x_min":75,"x_max":611,"o":"m 349 633 q 464 744 394 703 q 611 786 533 786 l 611 494 l 532 494 q 394 459 440 494 q 349 336 349 424 l 349 0 l 75 0 l 75 779 l 349 779 l 349 633 m 533 971 l 186 833 l 186 1017 l 533 1174 l 533 971 z "},"Ŗ":{"ha":944,"x_min":75,"x_max":876,"o":"m 376 363 l 349 363 l 349 0 l 75 0 l 75 983 l 507 983 q 708 942 625 983 q 832 829 790 901 q 874 667 874 757 q 817 488 874 564 q 653 382 760 413 l 876 0 l 575 0 l 376 363 m 349 546 l 483 546 q 597 649 597 546 q 569 725 597 697 q 483 753 540 753 l 349 753 l 349 546 m 568 -53 q 600 -222 600 -136 q 546 -388 600 -325 q 388 -451 492 -451 l 388 -353 q 463 -253 463 -353 l 463 -237 l 369 -237 l 369 -53 l 568 -53 z "},"ŗ":{"ha":626,"x_min":75,"x_max":611,"o":"m 349 633 q 464 744 394 703 q 611 786 533 786 l 611 494 l 532 494 q 394 459 440 494 q 349 336 349 424 l 349 0 l 75 0 l 75 779 l 349 779 l 349 633 m 307 -53 q 338 -222 338 -133 q 284 -387 338 -324 q 128 -451 231 -451 l 128 -353 q 201 -253 201 -353 l 201 -237 l 108 -237 l 108 -53 l 307 -53 z "},"Ř":{"ha":907,"x_min":75,"x_max":876,"o":"m 575 0 l 376 363 l 349 363 l 349 0 l 75 0 l 75 983 l 507 983 q 708 942 625 983 q 832 829 790 901 q 874 667 874 757 q 817 488 874 564 q 653 382 760 413 l 876 0 l 575 0 m 349 546 l 483 546 q 597 649 597 546 q 569 725 597 697 q 483 753 540 753 l 349 753 l 349 546 m 699 1149 l 478 1031 l 254 1149 l 254 1326 l 478 1206 l 699 1326 l 699 1149 z "},"ř":{"ha":626,"x_min":75,"x_max":611,"o":"m 349 633 q 464 744 394 703 q 611 786 533 786 l 611 494 l 532 494 q 394 459 440 494 q 349 336 349 424 l 349 0 l 75 0 l 75 779 l 349 779 l 349 633 m 565 944 l 344 826 l 121 944 l 121 1122 l 344 1001 l 565 1122 l 565 944 z "},"Ś":{"ha":853,"x_min":47,"x_max":808,"o":"m 808 283 q 767 135 808 201 q 644 29 725 68 q 451 -10 564 -10 q 170 72 281 -10 q 50 306 60 154 l 340 306 q 372 229 344 254 q 440 204 400 204 q 497 222 476 204 q 517 274 517 240 q 476 342 517 318 q 349 396 436 367 q 195 458 256 428 q 91 550 135 489 q 47 707 47 611 q 94 865 47 799 q 224 965 142 931 q 410 999 306 999 q 680 919 579 999 q 790 694 781 839 l 497 694 q 469 763 492 740 q 408 785 446 785 q 358 768 376 785 q 340 718 340 751 q 380 653 340 676 q 504 600 419 629 q 658 535 597 567 q 764 442 719 503 q 808 283 808 381 m 617 1175 l 269 1038 l 269 1221 l 617 1378 l 617 1175 z "},"ś":{"ha":788,"x_min":49,"x_max":743,"o":"m 371 789 q 617 714 525 789 q 732 515 708 639 l 476 515 q 437 578 467 557 q 364 599 407 599 q 317 585 333 599 q 301 549 301 572 q 335 505 301 519 q 447 472 369 490 q 597 431 538 453 q 699 358 656 408 q 743 224 743 308 q 706 103 743 156 q 597 20 668 50 q 428 -10 525 -10 q 167 61 264 -10 q 49 264 69 132 l 311 264 q 348 200 317 221 q 426 179 379 179 q 475 193 458 179 q 492 229 492 207 q 456 278 492 263 q 343 308 421 293 q 197 348 254 326 q 98 417 140 369 q 56 550 56 465 q 138 722 56 656 q 371 789 219 789 m 586 971 l 239 833 l 239 1017 l 586 1174 l 586 971 z "},"Ş":{"ha":853,"x_min":47,"x_max":808,"o":"m 808 283 q 767 135 808 201 q 644 29 725 68 q 451 -10 564 -10 q 170 72 281 -10 q 50 306 60 154 l 340 306 q 372 229 344 254 q 440 204 400 204 q 497 222 476 204 q 517 274 517 240 q 476 342 517 318 q 349 396 436 367 q 195 458 256 428 q 91 550 135 489 q 47 707 47 611 q 94 865 47 799 q 224 965 142 931 q 410 999 306 999 q 680 919 579 999 q 790 694 781 839 l 497 694 q 469 763 492 740 q 408 785 446 785 q 358 768 376 785 q 340 718 340 751 q 380 653 340 676 q 504 600 419 629 q 658 535 597 567 q 764 442 719 503 q 808 283 808 381 m 526 -49 q 608 -63 567 -47 q 678 -116 650 -79 q 707 -210 707 -153 q 647 -335 707 -296 q 506 -374 588 -374 l 285 -374 l 285 -233 l 478 -233 q 512 -225 500 -233 q 524 -201 524 -217 q 478 -174 524 -174 l 368 -174 l 368 10 l 526 10 l 526 -49 z "},"ş":{"ha":788,"x_min":49,"x_max":743,"o":"m 371 789 q 617 714 525 789 q 732 515 708 639 l 476 515 q 437 578 467 557 q 364 599 407 599 q 317 585 333 599 q 301 549 301 572 q 335 505 301 519 q 447 472 369 490 q 597 431 538 453 q 699 358 656 408 q 743 224 743 308 q 706 103 743 156 q 597 20 668 50 q 428 -10 525 -10 q 167 61 264 -10 q 49 264 69 132 l 311 264 q 348 200 317 221 q 426 179 379 179 q 475 193 458 179 q 492 229 492 207 q 456 278 492 263 q 343 308 421 293 q 197 348 254 326 q 98 417 140 369 q 56 550 56 465 q 138 722 56 656 q 371 789 219 789 m 485 -49 q 567 -63 525 -47 q 637 -116 608 -79 q 665 -210 665 -153 q 606 -335 665 -296 q 464 -374 546 -374 l 243 -374 l 243 -233 l 436 -233 q 470 -225 458 -233 q 482 -201 482 -217 q 436 -174 482 -174 l 326 -174 l 326 10 l 485 10 l 485 -49 z "},"Š":{"ha":853,"x_min":47,"x_max":808,"o":"m 808 283 q 767 135 808 201 q 644 29 725 68 q 451 -10 564 -10 q 170 72 281 -10 q 50 306 60 154 l 340 306 q 372 229 344 254 q 440 204 400 204 q 497 222 476 204 q 517 274 517 240 q 476 342 517 318 q 349 396 436 367 q 195 458 256 428 q 91 550 135 489 q 47 707 47 611 q 94 865 47 799 q 224 965 142 931 q 410 999 306 999 q 680 919 579 999 q 790 694 781 839 l 497 694 q 469 763 492 740 q 408 785 446 785 q 358 768 376 785 q 340 718 340 751 q 380 653 340 676 q 504 600 419 629 q 658 535 597 567 q 764 442 719 503 q 808 283 808 381 m 650 1149 l 429 1031 l 206 1149 l 206 1326 l 429 1206 l 650 1326 l 650 1149 z "},"š":{"ha":788,"x_min":49,"x_max":743,"o":"m 371 789 q 617 714 525 789 q 732 515 708 639 l 476 515 q 437 578 467 557 q 364 599 407 599 q 317 585 333 599 q 301 549 301 572 q 335 505 301 519 q 447 472 369 490 q 597 431 538 453 q 699 358 656 408 q 743 224 743 308 q 706 103 743 156 q 597 20 668 50 q 428 -10 525 -10 q 167 61 264 -10 q 49 264 69 132 l 311 264 q 348 200 317 221 q 426 179 379 179 q 475 193 458 179 q 492 229 492 207 q 456 278 492 263 q 343 308 421 293 q 197 348 254 326 q 98 417 140 369 q 56 550 56 465 q 138 722 56 656 q 371 789 219 789 m 618 944 l 397 826 l 174 944 l 174 1122 l 397 1001 l 618 1122 l 618 944 z "},"Ţ":{"ha":831,"x_min":15,"x_max":815,"o":"m 550 765 l 550 4 q 615 -55 594 -22 q 635 -132 635 -87 q 576 -256 635 -217 q 433 -294 517 -294 l 218 -294 l 218 -154 l 411 -154 q 453 -124 453 -154 q 411 -94 453 -94 l 278 -94 l 278 765 l 15 765 l 15 983 l 815 983 l 815 765 l 550 765 z "},"ţ":{"ha":589,"x_min":22,"x_max":597,"o":"m 418 -49 q 500 -63 458 -47 q 569 -116 542 -79 q 597 -210 597 -153 q 538 -335 597 -296 q 397 -374 479 -374 l 176 -374 l 176 -233 l 368 -233 q 415 -201 415 -233 q 368 -174 415 -174 l 258 -174 l 258 33 q 122 306 122 99 l 122 551 l 22 551 l 22 779 l 122 779 l 122 968 l 396 968 l 396 779 l 536 779 l 536 551 l 396 551 l 396 300 q 412 249 396 264 q 465 233 428 233 l 539 233 l 539 0 l 426 0 l 418 0 l 418 -49 z "},"Ť":{"ha":831,"x_min":15,"x_max":815,"o":"m 815 983 l 815 765 l 550 765 l 550 0 l 278 0 l 278 765 l 15 765 l 15 983 l 815 983 m 638 1149 l 417 1031 l 193 1149 l 193 1326 l 417 1206 l 638 1326 l 638 1149 z "},"ť":{"ha":589,"x_min":22,"x_max":678,"o":"m 646 1210 q 678 1047 678 1122 q 624 899 678 954 q 465 843 571 843 l 465 943 q 540 997 540 943 l 540 1024 l 446 1024 l 446 1210 l 646 1210 m 396 300 q 412 249 396 264 q 465 233 428 233 l 539 233 l 539 0 l 426 0 q 203 71 283 0 q 122 306 122 142 l 122 551 l 22 551 l 22 779 l 122 779 l 122 968 l 396 968 l 396 779 l 536 779 l 536 551 l 396 551 l 396 300 z "},"Ũ":{"ha":983,"x_min":69,"x_max":914,"o":"m 342 983 l 342 422 q 378 294 342 339 q 490 249 415 249 q 603 294 565 249 q 642 422 642 340 l 642 983 l 914 983 l 914 422 q 858 186 914 283 q 704 40 801 89 q 485 -10 607 -10 q 269 39 363 -10 q 122 185 175 88 q 69 422 69 282 l 69 983 l 342 983 m 399 1278 q 458 1268 432 1278 q 518 1240 485 1258 q 560 1220 544 1226 q 593 1214 576 1214 q 654 1279 644 1214 l 790 1279 q 718 1108 771 1161 q 583 1056 665 1056 q 526 1065 551 1056 q 465 1092 501 1074 q 423 1111 440 1104 q 389 1118 406 1118 q 328 1053 340 1118 l 193 1053 q 265 1224 214 1171 q 399 1278 317 1278 z "},"ũ":{"ha":951,"x_min":67,"x_max":875,"o":"m 875 779 l 875 0 l 603 0 l 603 131 q 506 31 569 68 q 356 -7 442 -7 q 144 83 221 -7 q 67 328 67 172 l 67 779 l 339 779 l 339 361 q 374 256 339 294 q 469 218 410 218 q 567 257 531 218 q 603 367 603 296 l 603 779 l 875 779 m 378 1074 q 438 1064 411 1074 q 497 1036 464 1054 q 540 1016 524 1022 q 572 1010 556 1010 q 633 1075 624 1010 l 769 1075 q 697 904 750 957 q 563 851 644 851 q 506 860 531 851 q 444 888 481 869 q 402 907 419 900 q 368 914 385 914 q 307 849 319 914 l 172 849 q 244 1020 193 967 q 378 1074 296 1074 z "},"Ū":{"ha":983,"x_min":69,"x_max":914,"o":"m 342 983 l 342 422 q 378 294 342 339 q 490 249 415 249 q 603 294 565 249 q 642 422 642 340 l 642 983 l 914 983 l 914 422 q 858 186 914 283 q 704 40 801 89 q 485 -10 607 -10 q 269 39 363 -10 q 122 185 175 88 q 69 422 69 282 l 69 983 l 342 983 m 781 1257 l 781 1075 l 203 1075 l 203 1257 l 781 1257 z "},"ū":{"ha":951,"x_min":67,"x_max":875,"o":"m 875 779 l 875 0 l 603 0 l 603 131 q 506 31 569 68 q 356 -7 442 -7 q 144 83 221 -7 q 67 328 67 172 l 67 779 l 339 779 l 339 361 q 374 256 339 294 q 469 218 410 218 q 567 257 531 218 q 603 367 603 296 l 603 779 l 875 779 m 761 1053 l 761 871 l 183 871 l 183 1053 l 761 1053 z "},"Ŭ":{"ha":983,"x_min":69,"x_max":914,"o":"m 342 983 l 342 422 q 378 294 342 339 q 490 249 415 249 q 603 294 565 249 q 642 422 642 340 l 642 983 l 914 983 l 914 422 q 858 186 914 283 q 704 40 801 89 q 485 -10 607 -10 q 269 39 363 -10 q 122 185 175 88 q 69 422 69 282 l 69 983 l 342 983 m 490 1040 q 310 1109 379 1040 q 242 1306 242 1178 l 242 1326 l 369 1326 q 397 1259 369 1282 q 490 1236 425 1236 q 583 1259 556 1236 q 611 1326 611 1282 l 739 1326 l 739 1306 q 670 1109 739 1178 q 490 1040 601 1040 z "},"ŭ":{"ha":951,"x_min":67,"x_max":875,"o":"m 875 779 l 875 0 l 603 0 l 603 131 q 506 31 569 68 q 356 -7 442 -7 q 144 83 221 -7 q 67 328 67 172 l 67 779 l 339 779 l 339 361 q 374 256 339 294 q 469 218 410 218 q 567 257 531 218 q 603 367 603 296 l 603 779 l 875 779 m 471 836 q 291 905 360 836 q 222 1101 222 974 l 222 1122 l 350 1122 q 378 1055 350 1078 q 471 1032 406 1032 q 564 1055 536 1032 q 592 1122 592 1078 l 719 1122 l 719 1101 q 651 905 719 974 q 471 836 582 836 z "},"Ů":{"ha":983,"x_min":69,"x_max":914,"o":"m 342 983 l 342 422 q 378 294 342 339 q 490 249 415 249 q 603 294 565 249 q 642 422 642 340 l 642 983 l 914 983 l 914 422 q 858 186 914 283 q 704 40 801 89 q 485 -10 607 -10 q 269 39 363 -10 q 122 185 175 88 q 69 422 69 282 l 69 983 l 342 983 m 492 1383 q 617 1335 567 1383 q 667 1208 667 1288 q 617 1080 667 1128 q 492 1032 567 1032 q 366 1080 417 1032 q 315 1208 315 1128 q 366 1335 315 1288 q 492 1383 417 1383 m 492 1278 q 443 1259 463 1278 q 424 1208 424 1240 q 443 1157 424 1176 q 492 1138 463 1138 q 540 1157 521 1138 q 560 1208 560 1176 q 540 1259 560 1240 q 492 1278 521 1278 z "},"ů":{"ha":951,"x_min":67,"x_max":875,"o":"m 875 779 l 875 0 l 603 0 l 603 131 q 506 31 569 68 q 356 -7 442 -7 q 144 83 221 -7 q 67 328 67 172 l 67 779 l 339 779 l 339 361 q 374 256 339 294 q 469 218 410 218 q 567 257 531 218 q 603 367 603 296 l 603 779 l 875 779 m 471 1179 q 596 1131 546 1179 q 646 1004 646 1083 q 596 876 646 924 q 471 828 546 828 q 345 876 396 828 q 294 1004 294 924 q 345 1131 294 1083 q 471 1179 396 1179 m 471 1074 q 422 1055 442 1074 q 403 1004 403 1036 q 422 953 403 972 q 471 933 442 933 q 519 953 500 933 q 539 1004 539 972 q 519 1055 539 1036 q 471 1074 500 1074 z "},"Ű":{"ha":983,"x_min":69,"x_max":914,"o":"m 342 983 l 342 422 q 378 294 342 339 q 490 249 415 249 q 603 294 565 249 q 642 422 642 340 l 642 983 l 914 983 l 914 422 q 858 186 914 283 q 704 40 801 89 q 485 -10 607 -10 q 269 39 363 -10 q 122 185 175 88 q 69 422 69 282 l 69 983 l 342 983 m 346 1039 l 181 1039 l 288 1354 l 496 1354 l 346 1039 m 632 1039 l 467 1039 l 606 1354 l 814 1354 l 632 1039 z "},"ű":{"ha":951,"x_min":67,"x_max":875,"o":"m 875 779 l 875 0 l 603 0 l 603 131 q 506 31 569 68 q 356 -7 442 -7 q 144 83 221 -7 q 67 328 67 172 l 67 779 l 339 779 l 339 361 q 374 256 339 294 q 469 218 410 218 q 567 257 531 218 q 603 367 603 296 l 603 779 l 875 779 m 325 835 l 160 835 l 267 1150 l 475 1150 l 325 835 m 611 835 l 446 835 l 585 1150 l 793 1150 l 611 835 z "},"Ų":{"ha":1043,"x_min":100,"x_max":943,"o":"m 589 -203 q 503 -183 544 -203 q 434 -125 461 -164 q 407 -31 407 -86 q 417 0 407 -12 q 189 140 278 31 q 100 422 100 249 l 100 983 l 372 983 l 372 422 q 409 294 372 339 q 521 249 446 249 q 633 294 594 249 q 672 422 672 339 l 672 983 l 943 983 l 943 422 q 901 223 943 310 q 792 83 860 136 q 646 11 725 31 q 602 -7 614 3 q 590 -32 590 -17 q 603 -54 590 -46 q 642 -62 617 -62 l 815 -62 l 815 -203 l 589 -203 z "},"ų":{"ha":951,"x_min":67,"x_max":938,"o":"m 875 779 l 875 0 l 603 0 l 603 131 q 506 31 569 68 q 356 -7 442 -7 q 144 83 221 -7 q 67 328 67 172 l 67 779 l 339 779 l 339 361 q 374 256 339 294 q 469 218 410 218 q 567 257 531 218 q 603 367 603 296 l 603 779 l 875 779 m 876 31 l 876 -94 l 750 -94 q 714 -103 726 -94 q 701 -125 701 -111 q 715 -149 701 -140 q 750 -158 728 -158 l 938 -158 l 938 -299 l 722 -299 q 579 -259 639 -299 q 519 -133 519 -219 q 547 -40 519 -76 q 616 14 575 -3 q 697 31 657 31 l 876 31 z "},"Ŵ":{"ha":1494,"x_min":43,"x_max":1451,"o":"m 1451 983 l 1222 0 l 883 0 l 747 607 l 611 0 l 272 0 l 43 983 l 338 983 l 446 314 l 597 983 l 896 983 l 1049 314 l 1157 983 l 1451 983 m 749 1153 l 525 1032 l 525 1210 l 749 1328 l 969 1210 l 969 1032 l 749 1153 z "},"ŵ":{"ha":1238,"x_min":3,"x_max":1238,"o":"m 1238 779 l 1044 0 l 739 0 l 621 485 l 500 0 l 193 0 l 3 779 l 274 779 l 358 258 l 481 779 l 771 779 l 899 254 l 985 779 l 1238 779 m 621 949 l 397 828 l 397 1006 l 621 1124 l 842 1006 l 842 828 l 621 949 z "},"Ŷ":{"ha":978,"x_min":6,"x_max":972,"o":"m 972 983 l 625 313 l 625 0 l 353 0 l 353 313 l 6 983 l 318 983 l 492 608 l 664 983 l 972 983 m 490 1153 l 267 1032 l 267 1210 l 490 1328 l 711 1210 l 711 1032 l 490 1153 z "},"ŷ":{"ha":910,"x_min":-8,"x_max":919,"o":"m 296 779 l 463 343 l 617 779 l 919 779 l 426 -372 l 126 -372 l 317 33 l -8 779 l 296 779 m 457 949 l 233 828 l 233 1006 l 457 1124 l 678 1006 l 678 828 l 457 949 z "},"Ÿ":{"ha":978,"x_min":6,"x_max":972,"o":"m 972 983 l 625 313 l 625 0 l 353 0 l 353 313 l 6 983 l 318 983 l 492 608 l 664 983 l 972 983 m 232 1175 q 263 1254 232 1222 q 340 1286 294 1286 q 420 1255 389 1286 q 451 1175 451 1224 q 419 1098 451 1129 q 340 1067 388 1067 q 263 1098 294 1067 q 232 1175 232 1129 m 528 1175 q 559 1254 528 1222 q 636 1286 590 1286 q 716 1255 685 1286 q 747 1175 747 1224 q 715 1098 747 1129 q 636 1067 683 1067 q 559 1098 590 1067 q 528 1175 528 1129 z "},"Ź":{"ha":850,"x_min":67,"x_max":783,"o":"m 369 218 l 783 218 l 783 0 l 67 0 l 67 207 l 474 765 l 69 765 l 69 983 l 782 983 l 782 776 l 369 218 m 615 1175 l 268 1038 l 268 1221 l 615 1378 l 615 1175 z "},"ź":{"ha":700,"x_min":29,"x_max":671,"o":"m 329 226 l 671 226 l 671 0 l 29 0 l 29 215 l 346 553 l 35 553 l 35 779 l 657 779 l 657 565 l 329 226 m 540 971 l 193 833 l 193 1017 l 540 1174 l 540 971 z "},"Ż":{"ha":850,"x_min":67,"x_max":783,"o":"m 369 218 l 783 218 l 783 0 l 67 0 l 67 207 l 474 765 l 69 765 l 69 983 l 782 983 l 782 776 l 369 218 m 315 1175 q 347 1254 315 1222 q 424 1286 378 1286 q 503 1255 472 1286 q 535 1175 535 1224 q 503 1098 535 1129 q 424 1067 471 1067 q 347 1098 378 1067 q 315 1175 315 1129 z "},"ż":{"ha":700,"x_min":29,"x_max":671,"o":"m 329 226 l 671 226 l 671 0 l 29 0 l 29 215 l 346 553 l 35 553 l 35 779 l 657 779 l 657 565 l 329 226 m 240 971 q 272 1050 240 1018 q 349 1082 303 1082 q 428 1051 397 1082 q 460 971 460 1019 q 428 894 460 925 q 349 863 396 863 q 272 894 303 863 q 240 971 240 925 z "},"Ž":{"ha":850,"x_min":67,"x_max":783,"o":"m 369 218 l 783 218 l 783 0 l 67 0 l 67 207 l 474 765 l 69 765 l 69 983 l 782 983 l 782 776 l 369 218 m 649 1149 l 428 1031 l 204 1149 l 204 1326 l 428 1206 l 649 1326 l 649 1149 z "},"ž":{"ha":700,"x_min":29,"x_max":671,"o":"m 329 226 l 671 226 l 671 0 l 29 0 l 29 215 l 346 553 l 35 553 l 35 779 l 657 779 l 657 565 l 329 226 m 574 944 l 353 826 l 129 944 l 129 1122 l 353 1001 l 574 1122 l 574 944 z "},"ƒ":{"ha":471,"x_min":-89,"x_max":518,"o":"m 394 779 l 497 779 l 474 551 l 369 551 l 299 -125 q 193 -339 283 -278 q -44 -400 103 -400 l -89 -400 l -68 -167 l -17 -167 q 25 -125 21 -167 l 97 551 l 33 551 l 56 779 l 122 779 l 124 797 q 237 1023 140 951 q 518 1094 333 1094 l 496 861 q 424 847 449 861 q 396 797 400 832 l 394 779 z "},"Ǽ":{"ha":1343,"x_min":1,"x_max":1293,"o":"m 946 765 l 946 606 l 1251 606 l 1251 400 l 946 400 l 946 218 l 1293 218 l 1293 0 l 672 0 l 672 151 l 372 151 l 299 0 l 1 0 l 489 983 l 1293 983 l 1293 765 l 946 765 m 672 358 l 672 768 l 474 358 l 672 358 m 849 1175 l 501 1038 l 501 1221 l 849 1378 l 849 1175 z "},"ǽ":{"ha":1478,"x_min":35,"x_max":1443,"o":"m 1443 404 q 1436 340 1443 375 l 876 340 q 1015 206 892 206 q 1097 225 1065 206 q 1140 279 1129 244 l 1429 279 q 1318 71 1403 151 q 1111 -10 1233 -10 q 960 26 1024 -10 q 868 124 897 61 l 868 0 l 596 0 l 596 124 q 506 26 567 61 q 364 -10 446 -10 q 196 38 271 -10 q 78 177 121 86 q 35 390 35 268 q 78 603 35 513 q 196 741 121 693 q 364 789 271 789 q 506 753 446 789 q 596 656 567 718 l 596 779 l 868 779 l 868 656 q 959 754 896 719 q 1111 789 1022 789 q 1285 742 1210 789 q 1401 607 1360 694 q 1443 404 1443 519 m 1167 454 q 1126 544 1168 513 q 1024 575 1085 575 q 926 547 965 575 q 878 454 886 518 l 1167 454 m 454 229 q 556 272 515 229 q 596 390 596 315 q 556 507 596 464 q 454 550 515 550 q 351 508 390 550 q 311 390 311 465 q 351 272 311 314 q 454 229 390 229 m 929 971 l 582 833 l 582 1017 l 929 1174 l 929 971 z "},"Ș":{"ha":925,"x_min":47,"x_max":808,"o":"m 808 283 q 767 135 808 201 q 644 29 725 68 q 451 -10 564 -10 q 170 72 281 -10 q 50 306 60 154 l 340 306 q 372 229 344 254 q 440 204 400 204 q 497 222 476 204 q 517 274 517 240 q 476 342 517 318 q 349 396 436 367 q 195 458 256 428 q 91 550 135 489 q 47 707 47 611 q 94 865 47 799 q 224 965 142 931 q 410 999 306 999 q 680 919 579 999 q 790 694 781 839 l 497 694 q 469 763 492 740 q 408 785 446 785 q 358 768 376 785 q 340 718 340 751 q 380 653 340 676 q 504 600 419 629 q 658 535 597 567 q 764 442 719 503 q 808 283 808 381 m 564 -53 q 596 -222 596 -136 q 542 -388 596 -325 q 385 -451 489 -451 l 385 -353 q 458 -253 458 -353 l 458 -237 l 367 -237 l 367 -53 l 564 -53 z "},"ș":{"ha":788,"x_min":49,"x_max":743,"o":"m 371 789 q 617 714 525 789 q 732 515 708 639 l 476 515 q 437 578 467 557 q 364 599 407 599 q 317 585 333 599 q 301 549 301 572 q 335 505 301 519 q 447 472 369 490 q 597 431 538 453 q 699 358 656 408 q 743 224 743 308 q 706 103 743 156 q 597 20 668 50 q 428 -10 525 -10 q 167 61 264 -10 q 49 264 69 132 l 311 264 q 348 200 317 221 q 426 179 379 179 q 475 193 458 179 q 492 229 492 207 q 456 278 492 263 q 343 308 421 293 q 197 348 254 326 q 98 417 140 369 q 56 550 56 465 q 138 722 56 656 q 371 789 219 789 m 493 -53 q 524 -222 524 -139 q 469 -387 524 -324 q 313 -451 415 -451 l 313 -353 q 388 -253 388 -353 l 388 -237 l 294 -237 l 294 -53 l 493 -53 z "},"Ț":{"ha":831,"x_min":15,"x_max":815,"o":"m 815 983 l 815 765 l 550 765 l 550 0 l 278 0 l 278 765 l 15 765 l 15 983 l 815 983 m 513 -53 q 543 -222 543 -133 q 490 -387 543 -324 q 333 -451 436 -451 l 333 -353 q 407 -253 407 -353 l 407 -237 l 314 -237 l 314 -53 l 513 -53 z "},"ț":{"ha":589,"x_min":22,"x_max":539,"o":"m 539 233 l 539 0 l 426 0 q 203 71 283 0 q 122 306 122 142 l 122 551 l 22 551 l 22 779 l 122 779 l 122 968 l 396 968 l 396 779 l 536 779 l 536 551 l 396 551 l 396 300 q 412 249 396 264 q 465 233 428 233 l 539 233 m 408 -53 q 440 -222 440 -136 q 386 -387 440 -324 q 228 -451 332 -451 l 228 -353 q 303 -253 303 -353 l 303 -237 l 210 -237 l 210 -53 l 408 -53 z "},"ʼ":{"ha":363,"x_min":67,"x_max":297,"o":"m 265 1193 q 297 1018 297 1106 q 244 853 297 917 q 86 790 190 790 l 86 889 q 161 988 161 889 l 161 1007 l 67 1007 l 67 1193 l 265 1193 z "},"ˆ":{"ha":483,"x_min":19,"x_max":464,"o":"m 243 949 l 19 828 l 19 1006 l 243 1124 l 464 1006 l 464 828 l 243 949 z "},"ˇ":{"ha":483,"x_min":19,"x_max":464,"o":"m 464 944 l 243 826 l 19 944 l 19 1122 l 243 1001 l 464 1122 l 464 944 z "},"ˉ":{"ha":615,"x_min":19,"x_max":597,"o":"m 597 1053 l 597 871 l 19 871 l 19 1053 l 597 1053 z "},"˘":{"ha":535,"x_min":19,"x_max":517,"o":"m 268 836 q 88 905 157 836 q 19 1101 19 974 l 19 1122 l 147 1122 q 175 1055 147 1078 q 268 1032 203 1032 q 361 1055 333 1032 q 389 1122 389 1078 l 517 1122 l 517 1101 q 448 905 517 974 q 268 836 379 836 z "},"˙":{"ha":260,"x_min":21,"x_max":240,"o":"m 21 971 q 52 1050 21 1018 q 129 1082 83 1082 q 209 1051 178 1082 q 240 971 240 1019 q 208 894 240 925 q 129 863 176 863 q 52 894 83 863 q 21 971 21 925 z "},"˚":{"ha":389,"x_min":19,"x_max":371,"o":"m 196 1179 q 321 1131 271 1179 q 371 1004 371 1083 q 321 876 371 924 q 196 828 271 828 q 70 876 121 828 q 19 1004 19 924 q 70 1131 19 1083 q 196 1179 121 1179 m 196 1074 q 147 1055 167 1074 q 128 1004 128 1036 q 147 953 128 972 q 196 933 167 933 q 244 953 225 933 q 264 1004 264 972 q 244 1055 264 1036 q 196 1074 225 1074 z "},"˛":{"ha":432,"x_min":7,"x_max":425,"o":"m 364 24 l 364 -101 l 238 -101 q 201 -110 214 -101 q 189 -132 189 -118 q 202 -156 189 -147 q 238 -165 215 -165 l 425 -165 l 425 -306 l 210 -306 q 67 -266 126 -306 q 7 -140 7 -226 q 35 -47 7 -83 q 103 7 63 -10 q 185 24 144 24 l 364 24 z "},"˜":{"ha":611,"x_min":7,"x_max":604,"o":"m 213 1074 q 272 1064 246 1074 q 332 1036 299 1054 q 374 1016 358 1022 q 407 1010 390 1010 q 468 1075 458 1010 l 604 1075 q 532 904 585 957 q 397 851 479 851 q 340 860 365 851 q 279 888 315 869 q 237 907 254 900 q 203 914 219 914 q 142 849 154 914 l 7 849 q 79 1020 28 967 q 213 1074 131 1074 z "},"˝":{"ha":672,"x_min":19,"x_max":653,"o":"m 185 835 l 19 835 l 126 1150 l 335 1150 l 185 835 m 471 835 l 306 835 l 444 1150 l 653 1150 l 471 835 z "},"π":{"ha":986,"x_min":24,"x_max":968,"o":"m 968 779 l 968 575 l 874 575 l 874 0 l 601 0 l 601 575 l 390 575 l 390 0 l 118 0 l 118 575 l 24 575 l 24 779 l 968 779 z "},"Ẁ":{"ha":1494,"x_min":43,"x_max":1451,"o":"m 1451 983 l 1222 0 l 883 0 l 747 607 l 611 0 l 272 0 l 43 983 l 338 983 l 446 314 l 597 983 l 896 983 l 1049 314 l 1157 983 l 1451 983 m 904 1221 l 904 1038 l 557 1175 l 557 1378 l 904 1221 z "},"ẁ":{"ha":1238,"x_min":3,"x_max":1238,"o":"m 1238 779 l 1044 0 l 739 0 l 621 485 l 500 0 l 193 0 l 3 779 l 274 779 l 358 258 l 481 779 l 771 779 l 899 254 l 985 779 l 1238 779 m 776 1017 l 776 833 l 429 971 l 429 1174 l 776 1017 z "},"Ẃ":{"ha":1494,"x_min":43,"x_max":1451,"o":"m 1451 983 l 1222 0 l 883 0 l 747 607 l 611 0 l 272 0 l 43 983 l 338 983 l 446 314 l 597 983 l 896 983 l 1049 314 l 1157 983 l 1451 983 m 938 1175 l 590 1038 l 590 1221 l 938 1378 l 938 1175 z "},"ẃ":{"ha":1238,"x_min":3,"x_max":1238,"o":"m 1238 779 l 1044 0 l 739 0 l 621 485 l 500 0 l 193 0 l 3 779 l 274 779 l 358 258 l 481 779 l 771 779 l 899 254 l 985 779 l 1238 779 m 810 971 l 463 833 l 463 1017 l 810 1174 l 810 971 z "},"Ẅ":{"ha":1494,"x_min":43,"x_max":1451,"o":"m 1451 983 l 1222 0 l 883 0 l 747 607 l 611 0 l 272 0 l 43 983 l 338 983 l 446 314 l 597 983 l 896 983 l 1049 314 l 1157 983 l 1451 983 m 490 1175 q 522 1254 490 1222 q 599 1286 553 1286 q 678 1255 647 1286 q 710 1175 710 1224 q 678 1098 710 1129 q 599 1067 646 1067 q 522 1098 553 1067 q 490 1175 490 1129 m 786 1175 q 817 1254 786 1222 q 894 1286 849 1286 q 974 1255 943 1286 q 1006 1175 1006 1224 q 974 1098 1006 1129 q 894 1067 942 1067 q 817 1098 849 1067 q 786 1175 786 1129 z "},"ẅ":{"ha":1238,"x_min":3,"x_max":1238,"o":"m 1238 779 l 1044 0 l 739 0 l 621 485 l 500 0 l 193 0 l 3 779 l 274 779 l 358 258 l 481 779 l 771 779 l 899 254 l 985 779 l 1238 779 m 363 971 q 394 1050 363 1018 q 471 1082 425 1082 q 551 1051 519 1082 q 582 971 582 1019 q 550 894 582 925 q 471 863 518 863 q 394 894 425 863 q 363 971 363 925 m 658 971 q 690 1050 658 1018 q 767 1082 721 1082 q 847 1051 815 1082 q 878 971 878 1019 q 846 894 878 925 q 767 863 814 863 q 690 894 721 863 q 658 971 658 925 z "},"Ẽ":{"ha":758,"x_min":75,"x_max":708,"o":"m 349 765 l 349 603 l 667 603 l 667 396 l 349 396 l 349 218 l 708 218 l 708 0 l 75 0 l 75 983 l 708 983 l 708 765 l 349 765 m 300 1278 q 360 1268 333 1278 q 419 1240 386 1258 q 462 1220 446 1226 q 494 1214 478 1214 q 556 1279 546 1214 l 692 1279 q 619 1108 672 1161 q 485 1056 567 1056 q 428 1065 453 1056 q 367 1092 403 1074 q 324 1111 342 1104 q 290 1118 307 1118 q 229 1053 242 1118 l 94 1053 q 167 1224 115 1171 q 300 1278 218 1278 z "},"ẽ":{"ha":858,"x_min":35,"x_max":824,"o":"m 824 404 q 817 340 824 375 l 301 340 q 417 208 308 208 q 483 228 457 208 q 519 279 510 247 l 808 279 q 740 131 793 197 q 607 28 688 65 q 431 -10 526 -10 q 224 38 314 -10 q 85 177 135 86 q 35 390 35 268 q 85 603 35 513 q 225 741 135 693 q 431 789 315 789 q 636 742 547 789 q 774 607 725 694 q 824 404 824 519 m 546 454 q 514 544 547 514 q 431 575 481 575 q 342 544 376 575 q 303 454 308 514 l 546 454 m 336 1074 q 396 1064 369 1074 q 456 1036 422 1054 q 498 1016 482 1022 q 531 1010 514 1010 q 592 1075 582 1010 l 728 1075 q 656 904 708 957 q 521 851 603 851 q 464 860 489 851 q 403 888 439 869 q 360 907 378 900 q 326 914 343 914 q 265 849 278 914 l 131 849 q 203 1020 151 967 q 336 1074 254 1074 z "},"Ỳ":{"ha":978,"x_min":6,"x_max":972,"o":"m 972 983 l 625 313 l 625 0 l 353 0 l 353 313 l 6 983 l 318 983 l 492 608 l 664 983 l 972 983 m 646 1221 l 646 1038 l 299 1175 l 299 1378 l 646 1221 z "},"ỳ":{"ha":910,"x_min":-8,"x_max":919,"o":"m 296 779 l 463 343 l 617 779 l 919 779 l 426 -372 l 126 -372 l 317 33 l -8 779 l 296 779 m 611 1017 l 611 833 l 264 971 l 264 1174 l 611 1017 z "},"Ỹ":{"ha":978,"x_min":6,"x_max":972,"o":"m 972 983 l 625 313 l 625 0 l 353 0 l 353 313 l 6 983 l 318 983 l 492 608 l 664 983 l 972 983 m 396 1278 q 456 1268 429 1278 q 515 1240 482 1258 q 558 1220 542 1226 q 590 1214 574 1214 q 651 1279 642 1214 l 788 1279 q 715 1108 768 1161 q 581 1056 663 1056 q 524 1065 549 1056 q 463 1092 499 1074 q 420 1111 438 1104 q 386 1118 403 1118 q 325 1053 338 1118 l 190 1053 q 263 1224 211 1171 q 396 1278 314 1278 z "},"ỹ":{"ha":910,"x_min":-8,"x_max":919,"o":"m 296 779 l 463 343 l 617 779 l 919 779 l 426 -372 l 126 -372 l 317 33 l -8 779 l 296 779 m 361 1074 q 421 1064 394 1074 q 481 1036 447 1054 q 523 1016 507 1022 q 556 1010 539 1010 q 617 1075 607 1010 l 753 1075 q 681 904 733 957 q 546 851 628 851 q 489 860 514 851 q 428 888 464 869 q 385 907 403 900 q 351 914 368 914 q 290 849 303 914 l 156 849 q 228 1020 176 967 q 361 1074 279 1074 z "},"–":{"ha":931,"x_min":74,"x_max":857,"o":"m 857 594 l 857 368 l 74 368 l 74 594 l 857 594 z "},"—":{"ha":1271,"x_min":74,"x_max":1196,"o":"m 1196 594 l 1196 368 l 74 368 l 74 594 l 1196 594 z "},"‘":{"ha":363,"x_min":67,"x_max":297,"o":"m 99 790 q 67 965 67 878 q 120 1130 67 1067 q 278 1193 174 1193 l 278 1094 q 204 996 204 1094 l 204 978 l 297 978 l 297 790 l 99 790 z "},"’":{"ha":363,"x_min":67,"x_max":297,"o":"m 265 1193 q 297 1018 297 1106 q 244 853 297 917 q 86 790 190 790 l 86 889 q 161 988 161 889 l 161 1007 l 67 1007 l 67 1193 l 265 1193 z "},"‚":{"ha":360,"x_min":38,"x_max":303,"o":"m 254 165 q 290 73 278 124 q 303 -29 303 22 q 247 -202 303 -133 q 74 -271 192 -271 l 74 -172 q 131 -156 113 -172 q 149 -90 149 -139 l 149 -75 l 38 -75 l 38 165 l 254 165 z "},"“":{"ha":651,"x_min":67,"x_max":585,"o":"m 99 790 q 67 965 67 878 q 120 1130 67 1067 q 278 1193 174 1193 l 278 1094 q 204 996 204 1094 l 204 978 l 297 978 l 297 790 l 99 790 m 386 790 q 354 965 354 874 q 408 1130 354 1067 q 565 1193 461 1193 l 565 1094 q 490 996 490 1094 l 490 978 l 585 978 l 585 790 l 386 790 z "},"”":{"ha":651,"x_min":67,"x_max":585,"o":"m 265 1193 q 297 1018 297 1106 q 244 853 297 917 q 86 790 190 790 l 86 889 q 161 988 161 889 l 161 1007 l 67 1007 l 67 1193 l 265 1193 m 553 1193 q 585 1018 585 1106 q 531 853 585 917 q 374 790 478 790 l 374 889 q 447 988 447 889 l 447 1007 l 354 1007 l 354 1193 l 553 1193 z "},"„":{"ha":651,"x_min":67,"x_max":585,"o":"m 265 186 q 297 11 297 99 q 244 -153 297 -90 q 86 -217 190 -217 l 86 -118 q 161 -19 161 -118 l 161 0 l 67 0 l 67 186 l 265 186 m 553 186 q 585 11 585 99 q 531 -153 585 -90 q 374 -217 478 -217 l 374 -118 q 447 -19 447 -118 l 447 0 l 354 0 l 354 186 l 553 186 z "},"†":{"ha":946,"x_min":67,"x_max":879,"o":"m 879 574 l 582 593 l 608 -372 l 336 -372 l 361 593 l 67 574 l 67 779 l 361 761 l 336 1100 l 608 1100 l 582 761 l 879 779 l 879 574 z "},"‡":{"ha":944,"x_min":67,"x_max":879,"o":"m 582 593 l 582 135 l 879 154 l 879 -53 l 582 -33 l 608 -372 l 335 -372 l 363 -33 l 67 -53 l 67 154 l 363 135 l 363 593 l 67 574 l 67 779 l 363 761 l 335 1100 l 608 1100 l 582 761 l 879 779 l 879 574 l 582 593 z "},"•":{"ha":696,"x_min":126,"x_max":569,"o":"m 126 463 q 156 575 126 524 q 237 656 186 626 q 349 685 288 685 q 460 656 410 685 q 540 575 511 626 q 569 463 569 524 q 540 351 569 401 q 460 272 511 301 q 349 243 410 243 q 237 272 288 243 q 156 351 186 301 q 126 463 126 401 z "},"…":{"ha":1075,"x_min":39,"x_max":1035,"o":"m 675 267 l 675 0 l 399 0 l 399 267 l 675 267 m 1035 267 l 1035 0 l 758 0 l 758 267 l 1035 267 m 315 267 l 315 0 l 39 0 l 39 267 l 315 267 z "},"‰":{"ha":1704,"x_min":32,"x_max":1674,"o":"m 274 1000 q 446 937 379 1000 q 513 757 513 874 q 447 579 513 642 q 274 517 381 517 q 99 579 167 517 q 32 757 32 642 q 99 937 32 874 q 274 1000 167 1000 m 985 986 l 458 0 l 197 0 l 724 986 l 985 986 m 211 757 q 227 697 211 718 q 271 676 243 676 q 317 698 300 676 q 335 757 335 719 q 317 819 335 797 q 271 840 300 840 q 227 819 243 840 q 211 757 211 797 m 910 471 q 1083 408 1017 471 q 1150 229 1150 346 q 1083 49 1150 113 q 910 -14 1017 -14 q 736 49 803 -14 q 669 229 669 113 q 736 408 669 346 q 910 471 803 471 m 1433 471 q 1607 408 1540 471 q 1674 229 1674 346 q 1607 49 1674 113 q 1433 -14 1540 -14 q 1259 49 1326 -14 q 1192 229 1192 113 q 1259 408 1192 346 q 1433 471 1326 471 m 847 229 q 863 167 847 189 q 908 146 879 146 q 954 167 938 146 q 971 229 971 189 q 954 290 971 268 q 908 311 938 311 q 863 290 879 311 q 847 229 847 268 m 1371 229 q 1387 167 1371 189 q 1431 146 1403 146 q 1477 167 1460 146 q 1494 229 1494 189 q 1477 290 1494 268 q 1431 311 1460 311 q 1387 290 1403 311 q 1371 229 1371 268 z "},"‹":{"ha":493,"x_min":63,"x_max":424,"o":"m 175 167 l 63 410 l 175 653 l 424 653 l 308 410 l 424 167 l 175 167 z "},"›":{"ha":493,"x_min":69,"x_max":431,"o":"m 186 410 l 69 653 l 319 653 l 431 410 l 319 167 l 69 167 l 186 410 z "},"⁄":{"ha":711,"x_min":-54,"x_max":735,"o":"m 735 986 l 208 0 l -54 0 l 474 986 l 735 986 z "},"€":{"ha":1106,"x_min":22,"x_max":1058,"o":"m 581 244 q 696 278 646 244 q 771 369 746 311 l 1058 369 q 901 95 1025 197 q 586 -7 776 -7 q 286 87 408 -7 q 122 340 164 181 l 22 340 l 22 464 l 104 464 l 104 493 l 104 522 l 22 522 l 22 647 l 124 647 q 286 899 164 806 q 586 993 408 993 q 812 947 713 993 q 974 815 911 900 q 1058 617 1036 729 l 771 617 q 696 708 746 675 q 581 740 646 740 q 486 716 528 740 q 418 647 444 692 l 628 647 l 628 522 l 382 522 q 381 493 381 513 q 382 464 381 474 l 628 464 l 628 340 l 417 340 q 485 269 443 294 q 581 244 526 244 z "},"₺":{"ha":1129,"x_min":24,"x_max":1106,"o":"m 1106 651 q 1053 273 1106 417 q 883 61 1000 129 q 571 -7 767 -7 q 183 35 422 -7 l 183 346 l 24 321 l 24 481 l 183 506 l 183 572 l 24 546 l 24 701 l 183 728 l 183 988 l 461 988 l 461 775 l 631 804 l 631 644 l 461 617 l 461 550 l 635 578 l 635 417 l 461 389 l 461 258 q 568 249 514 249 q 739 303 682 249 q 813 441 796 357 q 829 651 829 525 l 1106 651 z "},"₽":{"ha":964,"x_min":24,"x_max":932,"o":"m 432 376 l 432 303 l 618 303 l 618 99 l 432 99 l 432 0 l 158 0 l 158 99 l 24 99 l 24 303 l 158 303 l 158 376 l 24 376 l 24 583 l 158 583 l 158 983 l 567 983 q 838 900 744 983 q 932 679 932 817 q 838 458 932 540 q 567 376 743 376 l 432 376 m 432 583 l 550 583 q 629 609 603 583 q 656 681 656 635 q 628 750 656 722 q 550 778 601 778 l 432 778 l 432 583 z "},"ℓ":{"ha":482,"x_min":75,"x_max":349,"o":"m 349 1028 l 349 0 l 75 0 l 75 1028 l 349 1028 z "},"™":{"ha":1271,"x_min":42,"x_max":1228,"o":"m 42 983 l 478 983 l 478 825 l 356 825 l 356 496 l 165 496 l 165 825 l 42 825 l 42 983 m 1228 983 l 1228 496 l 1053 496 l 1047 753 l 942 496 l 814 496 l 708 769 l 708 496 l 542 496 l 542 983 l 801 983 l 886 731 l 990 983 l 1228 983 z "},"Ω":{"ha":1099,"x_min":49,"x_max":1051,"o":"m 1051 532 q 1022 346 1051 426 q 919 206 992 265 l 1049 206 l 1049 0 l 675 0 l 675 213 q 749 342 724 276 q 774 493 774 408 q 715 680 774 614 q 550 746 656 746 q 385 680 444 746 q 325 493 325 614 q 351 342 326 408 q 425 213 376 276 l 425 0 l 53 0 l 53 206 l 181 206 q 79 347 110 265 q 49 532 49 428 q 115 782 49 676 q 294 943 181 888 q 550 999 408 999 q 806 943 692 999 q 985 782 919 888 q 1051 532 1051 676 z "},"℮":{"ha":1033,"x_min":44,"x_max":990,"o":"m 529 -10 q 279 47 389 -10 q 107 213 169 104 q 44 469 44 321 q 100 739 44 619 q 262 927 156 858 q 517 996 368 996 q 770 932 663 996 q 934 763 878 868 q 990 536 990 657 l 990 447 l 332 447 l 332 197 q 529 146 424 146 q 707 182 626 146 q 860 290 788 218 l 950 186 q 529 -10 767 -10 m 703 806 q 517 847 632 847 q 332 799 413 847 l 332 581 l 703 581 l 703 806 z "},"∂":{"ha":872,"x_min":44,"x_max":828,"o":"m 419 778 q 576 701 533 778 q 506 831 557 788 q 354 875 456 875 q 275 869 314 875 l 275 1003 q 453 1028 372 1028 q 732 905 636 1028 q 828 560 828 782 q 776 254 828 382 q 627 58 725 126 q 390 -10 529 -10 q 216 31 294 -10 q 91 155 138 72 q 44 358 44 238 q 94 580 44 485 q 228 726 143 675 q 419 778 314 778 m 449 551 q 353 499 385 551 q 321 360 321 447 q 347 260 321 292 q 415 228 374 228 q 508 283 476 228 q 539 436 539 339 q 513 523 539 494 q 449 551 488 551 z "},"∆":{"ha":1046,"x_min":28,"x_max":1018,"o":"m 633 983 l 1018 207 l 1018 0 l 28 0 l 28 207 l 413 983 l 633 983 m 310 207 l 736 207 l 524 674 l 310 207 z "},"∏":{"ha":1042,"x_min":24,"x_max":1018,"o":"m 1018 986 l 1018 782 l 925 782 l 925 0 l 651 0 l 651 782 l 390 782 l 390 0 l 118 0 l 118 782 l 24 782 l 24 986 l 1018 986 z "},"∑":{"ha":779,"x_min":56,"x_max":732,"o":"m 732 776 l 325 776 l 633 582 l 633 376 l 308 138 l 732 138 l 732 -69 l 56 -69 l 56 249 l 369 472 l 56 665 l 56 983 l 732 983 l 732 776 z "},"−":{"ha":692,"x_min":32,"x_max":661,"o":"m 661 594 l 661 368 l 32 368 l 32 594 l 661 594 z "},"∕":{"ha":547,"x_min":-39,"x_max":594,"o":"m 594 1324 l 224 -268 l -39 -268 l 333 1324 l 594 1324 z "},"∙":{"ha":393,"x_min":57,"x_max":333,"o":"m 333 563 l 333 296 l 57 296 l 57 563 l 333 563 z "},"√":{"ha":1354,"x_min":25,"x_max":1318,"o":"m 1318 1272 l 571 -57 l 442 -57 l 224 333 l 101 263 l 25 388 l 390 601 l 588 249 l 1164 1272 l 1318 1272 z "},"∞":{"ha":1126,"x_min":43,"x_max":1090,"o":"m 825 733 q 1021 667 951 732 q 1090 483 1090 601 q 1056 350 1090 407 q 962 263 1021 293 q 831 233 903 233 q 553 350 672 233 q 447 265 508 296 q 310 233 385 233 q 113 299 183 233 q 43 482 43 364 q 78 615 43 558 q 171 703 113 672 q 300 733 229 733 q 457 699 393 733 q 574 606 521 665 q 682 699 617 664 q 825 733 747 733 m 325 410 q 391 425 358 410 q 449 471 424 440 q 385 535 413 514 q 326 557 358 557 q 274 537 293 557 q 254 482 254 517 q 274 429 254 449 q 325 410 293 410 m 806 410 q 859 430 839 410 q 879 483 879 450 q 859 538 879 518 q 806 557 839 557 q 733 538 768 557 q 672 481 699 518 q 733 428 701 446 q 806 410 765 410 z "},"∫":{"ha":419,"x_min":-75,"x_max":490,"o":"m 132 1046 q 238 1258 147 1197 q 471 1319 328 1319 l 490 1319 l 468 1086 l 443 1086 q 417 1076 426 1086 q 404 1046 407 1065 l 285 -125 q 181 -339 269 -278 q -54 -400 92 -400 l -75 -400 l -53 -167 l -26 -167 q 13 -125 8 -167 l 132 1046 z "},"≈":{"ha":936,"x_min":32,"x_max":904,"o":"m 332 467 q 418 453 379 467 q 508 413 457 439 q 569 383 546 392 q 617 374 593 374 q 672 397 653 374 q 699 469 692 419 l 904 469 q 799 216 878 299 q 603 133 719 133 q 518 147 556 133 q 428 188 481 161 q 367 217 390 207 q 318 226 343 226 q 261 203 281 226 q 235 131 242 181 l 32 131 q 138 385 60 303 q 332 467 215 467 m 332 832 q 418 818 379 832 q 508 778 457 804 q 569 748 546 757 q 617 739 593 739 q 672 762 653 739 q 699 835 692 785 l 904 835 q 799 581 878 664 q 603 499 719 499 q 518 513 556 499 q 428 553 481 526 q 367 582 390 572 q 318 592 343 592 q 261 569 281 592 q 235 496 242 546 l 32 496 q 138 750 60 668 q 332 832 215 832 z "},"≠":{"ha":858,"x_min":32,"x_max":828,"o":"m 540 540 l 453 417 l 828 417 l 828 169 l 278 169 l 179 29 l 44 29 l 144 169 l 32 169 l 32 417 l 319 417 l 407 540 l 32 540 l 32 788 l 582 788 l 682 929 l 815 929 l 715 788 l 828 788 l 828 540 l 540 540 z "},"≤":{"ha":667,"x_min":32,"x_max":635,"o":"m 299 276 l 32 529 l 299 783 l 633 783 l 368 529 l 633 276 l 299 276 m 635 168 l 635 -43 l 65 -43 l 65 168 l 635 168 z "},"≥":{"ha":667,"x_min":32,"x_max":635,"o":"m 32 276 l 297 529 l 32 783 l 368 783 l 635 529 l 368 276 l 32 276 m 32 168 l 600 168 l 600 -43 l 32 -43 l 32 168 z "},"◊":{"ha":790,"x_min":21,"x_max":769,"o":"m 769 492 l 396 118 l 21 492 l 396 865 l 769 492 m 281 492 l 396 376 l 511 492 l 396 607 l 281 492 z "},"ﬁ":{"ha":951,"x_min":17,"x_max":871,"o":"m 488 860 q 463 861 479 861 q 401 842 421 861 q 379 779 382 824 l 847 779 l 847 0 l 574 0 l 574 551 l 378 551 l 378 0 l 104 0 l 104 551 l 17 551 l 17 779 l 104 779 q 190 1013 104 931 q 436 1094 276 1094 q 488 1092 451 1094 l 488 860 m 711 833 q 595 870 639 833 q 551 965 551 907 q 595 1061 551 1024 q 711 1099 639 1099 q 827 1061 783 1099 q 871 965 871 1024 q 827 870 871 907 q 711 833 783 833 z "},"ﬂ":{"ha":915,"x_min":15,"x_max":843,"o":"m 506 860 q 476 861 496 861 q 406 842 428 861 q 379 779 383 824 l 506 779 l 506 551 l 378 551 l 378 0 l 104 0 l 104 551 l 15 551 l 15 779 l 104 779 q 193 1012 104 929 q 449 1094 282 1094 q 506 1092 467 1094 l 506 860 m 843 1028 l 843 0 l 569 0 l 569 1028 l 843 1028 z "}}}
